<?xml version="1.0" encoding="UTF-8"?>
<svg width="45px" height="30px" viewBox="0 0 45 30" version="1.1" xmlns="http://www.w3.org/2000/svg" xmlns:xlink="http://www.w3.org/1999/xlink">
    <!-- Generator: Sketch 49 (51002) - http://www.bohemiancoding.com/sketch -->
    <title>contractor</title>
    <desc>Created with Sketch.</desc>
    <defs></defs>
    <g id="contractor" stroke="none" stroke-width="1" fill="none" fill-rule="evenodd">
        <g id="726163" transform="translate(8.000000, 1.000000)" fill="#000000" fill-rule="nonzero">
            <path d="M4.18631111,23.9842142 L3.46204788,24.3465435 C3.23553651,24.4584956 2.96216072,24.4311584 2.76428872,24.2723428 C2.56641673,24.1122253 2.47789504,23.8518718 2.53907915,23.6058377 L2.82963402,22.4402238 C1.05356886,20.0933456 0,17.1694104 0,13.9996267 C0,6.26812179 6.26803959,0 13.9999533,0 C21.7317737,0 28.0001867,6.26784179 28.0001867,13.9996267 C28.0001867,21.7314115 21.7316804,28 13.99986,28 C10.1774123,28 6.71272771,26.4678237 4.18631111,23.9842142 Z M5.51823073,23.3178907 C7.75697096,25.3570868 10.7333369,26.6004293 14.0000233,26.6004293 C20.9587777,26.6004293 26.6005273,20.9586057 26.6005273,13.9998833 C26.6005273,7.04116096 20.9588617,1.40000933 14.0001073,1.40000933 C7.04126898,1.40000933 1.39993933,7.04141297 1.39993933,13.9998833 C1.39993933,16.4311724 2.08863459,18.7017555 3.28158959,20.6271215 L3.53624988,19.6055053 C2.91399451,19.013201 2.5208541,18.1800696 2.5208541,17.2545127 C2.5208541,15.4606768 3.98146187,14.0000933 5.77532775,14.0000933 C7.56919362,14.0000933 9.0298014,15.4606768 9.0298014,17.2545127 C9.0298014,18.1800696 8.63666098,19.013201 8.01440562,19.6055053 L9.01157635,23.6058377 C9.07276045,23.8531735 8.98423877,24.1122253 8.78636677,24.2723428 C8.66790393,24.36607 8.5234053,24.4142354 8.37890667,24.4142354 C8.27997067,24.4142354 8.17973288,24.3908036 8.08730583,24.3465435 L5.77532775,23.189272 L5.51823073,23.3178907 Z M16.8543726,11.2688706 L22.0615305,11.2688706 L22.0615305,21.6830127 C22.0615305,22.4015885 21.4783288,22.9847804 20.759741,22.9847804 L10.2438857,22.9847804 L9.45500132,19.8227865 C10.0329958,19.0456312 10.3454253,18.1109619 10.3454253,17.1268255 C10.3454253,14.837016 8.6426847,12.9559616 6.44005693,12.6370285 L6.44005693,6.0617995 C6.44005693,5.34452546 7.0245604,4.76003173 7.74184639,4.76003173 L15.5525832,4.76003173 L15.5525832,9.96710279 C15.5525832,10.6843768 16.1370866,11.2688706 16.8543726,11.2688706 Z M9.69453059,9.96710279 L13.599899,9.96710279 C13.9591929,9.96710279 14.2507937,9.67550681 14.2507937,9.31621891 C14.2507937,8.956931 13.9591929,8.66533503 13.599899,8.66533503 L9.69453059,8.66533503 C9.33523669,8.66533503 9.04363586,8.956931 9.04363586,9.31621891 C9.04363586,9.67550681 9.33523669,9.96710279 9.69453059,9.96710279 Z M18.8070568,17.7777094 C19.1663507,17.7777094 19.4579515,17.4861134 19.4579515,17.1268255 C19.4579515,16.7675376 19.1663507,16.4759416 18.8070568,16.4759416 L12.2981095,16.4759416 C11.9388156,16.4759416 11.6472148,16.7675376 11.6472148,17.1268255 C11.6472148,17.4861134 11.9388156,17.7777094 12.2981095,17.7777094 L18.8070568,17.7777094 Z M18.8070568,13.8724061 C19.1663507,13.8724061 19.4579515,13.5808101 19.4579515,13.2215222 C19.4579515,12.8622343 19.1663507,12.5706383 18.8070568,12.5706383 L10.99632,12.5706383 C10.6370262,12.5706383 10.3454253,12.8622343 10.3454253,13.2215222 C10.3454253,13.5808101 10.6370262,13.8724061 10.99632,13.8724061 L18.8070568,13.8724061 Z M16.8002987,4.76003173 L22.0074565,9.96710279 L16.8002987,9.96710279 L16.8002987,4.76003173 Z M5.77532775,19.2071644 C6.85190763,19.2071644 7.72801194,18.3310747 7.72801194,17.2545127 C7.72801194,16.1779508 6.85190763,15.3018611 5.77532775,15.3018611 C4.69874786,15.3018611 3.82264356,16.1779508 3.82264356,17.2545127 C3.82264356,18.3310747 4.69874786,19.2071644 5.77532775,19.2071644 Z" id="Shape"></path>
        </g>
    </g>
</svg>