<?xml version="1.0" encoding="UTF-8"?>
<svg width="45px" height="30px" viewBox="0 0 45 30" version="1.1" xmlns="http://www.w3.org/2000/svg" xmlns:xlink="http://www.w3.org/1999/xlink">
    <!-- Generator: Sketch 49 (51002) - http://www.bohemiancoding.com/sketch -->
    <title>dashboard</title>
    <desc>Created with Sketch.</desc>
    <defs></defs>
    <g id="dashboard" stroke="none" stroke-width="1" fill="none" fill-rule="evenodd">
        <g id="165910" transform="translate(8.500000, 1.000000)" fill="#000000" fill-rule="nonzero">
            <path d="M13.99972,0 C21.7314115,0 27.99972,6.26784179 27.99972,13.9996267 C27.99972,21.7314115 21.7313182,28 13.9996267,28 C6.26793512,28 0,21.7311315 0,13.9996267 C0,6.26812179 6.26793512,0 13.99972,0 Z M13.999874,1.40000933 C7.04115163,1.40000933 1.399916,7.04141297 1.399916,13.9998833 C1.399916,20.9583537 7.04115163,26.6004293 13.99979,26.6004293 C20.9584284,26.6004293 26.600084,20.9586057 26.600084,13.9998833 C26.600084,7.04116096 20.9585124,1.40000933 13.999874,1.40000933 Z M18.2213402,23.8865217 C18.5840739,23.8865217 18.8781634,24.1806112 18.8781634,24.5433449 C18.8781634,24.9060785 18.5840739,25.200168 18.2213402,25.200168 L9.77893394,25.200168 C9.41620027,25.200168 9.12211081,24.9060785 9.12211081,24.5433449 C9.12211081,24.1806112 9.41620027,23.8865217 9.77893394,23.8865217 L18.2213402,23.8865217 Z M23.1460918,14.6471164 C22.7833144,14.6471164 22.4892687,14.3530269 22.4892687,13.9902933 C22.4892687,13.6275596 22.7834019,13.3334701 23.1460918,13.3334701 L25.1904992,13.3335576 C25.045292,10.8041783 24.0632292,8.43326247 22.3774429,6.54202486 L20.9317145,7.98757825 C20.8034824,8.11581036 20.6353501,8.17994828 20.4673489,8.17994828 C20.2992166,8.17994828 20.131128,8.11581036 20.0028959,7.9875345 C19.7464316,7.73102654 19.7464316,7.31518002 20.0029396,7.05858456 L21.4485805,5.61307492 C19.5572991,3.92728868 17.1863396,2.94522588 14.6569602,2.80001867 L14.6569602,4.8443823 C14.6569602,5.20711596 14.3628708,5.50120542 14.0001371,5.50120542 C13.6374034,5.50120542 13.343314,5.20711596 13.343314,4.8443823 L13.343314,2.80001867 C10.8139346,2.94522588 8.44301879,3.92728868 6.55178118,5.61316242 L7.99737832,7.05867206 C8.25388628,7.31513627 8.25388628,7.73098279 7.99737832,7.98757825 C7.86910246,8.11585411 7.70101384,8.17999203 7.53292522,8.17999203 C7.3648366,8.17999203 7.19674798,8.11589786 7.06851587,7.98757825 L5.62296249,6.54206861 C3.93708875,8.43321872 2.95502595,10.8041783 2.80986248,13.3335576 L4.85413861,13.3334701 C5.21687228,13.3334701 5.51096174,13.6275159 5.51096174,13.9902933 C5.51096174,14.3530269 5.21691603,14.6471164 4.85413861,14.6471164 L2.80920623,14.6472039 C2.93542582,16.8532686 3.6972934,18.9396325 5.03207105,20.7165944 C5.15614687,20.8817517 5.35066067,20.9789211 5.5572058,20.9789211 L22.4430246,20.9789211 C22.6496135,20.9789211 22.8441273,20.881708 22.9681594,20.7165944 C24.3028933,18.9395888 25.0647171,16.8532249 25.1909367,14.6472039 L23.1460918,14.6471164 Z M18.1175645,10.8017283 L16.3650154,12.5543212 C16.6202983,12.9731865 16.767518,13.4648523 16.767518,13.9902933 C16.767518,15.5162597 15.5260598,16.757718 14.0001371,16.757718 C12.4741707,16.757718 11.2327124,15.5162159 11.2327124,13.9902933 C11.2327124,12.4643268 12.4742144,11.2229123 14.0001371,11.2229123 C14.5255781,11.2229123 15.0172001,11.3701321 15.4361529,11.6254588 L17.1887458,9.87286582 C17.4452101,9.61640161 17.8611003,9.61640161 18.117652,9.87286582 C18.3740725,10.12933 18.3740725,10.5452641 18.1175645,10.8017283 Z" id="Shape"></path>
        </g>
    </g>
</svg>