<?xml version="1.0" encoding="UTF-8"?>
<svg width="45px" height="30px" viewBox="0 0 45 30" version="1.1" xmlns="http://www.w3.org/2000/svg" xmlns:xlink="http://www.w3.org/1999/xlink">
    <!-- Generator: Sketch 49 (51002) - http://www.bohemiancoding.com/sketch -->
    <title>inventory</title>
    <desc>Created with Sketch.</desc>
    <defs></defs>
    <g id="inventory" stroke="none" stroke-width="1" fill="none" fill-rule="evenodd">
        <g id="165910" transform="translate(9.000000, 1.000000)" fill="#000000" fill-rule="nonzero">
            <path d="M13.99972,0 C21.7314115,0 27.99972,6.26784179 27.99972,13.9996267 C27.99972,21.7314115 21.7313182,28 13.9996267,28 C6.26793512,28 0,21.7311315 0,13.9996267 C0,6.26812179 6.26793512,0 13.99972,0 Z M22.2686325,4.49246166 C20.0557066,2.56631035 17.1639413,1.40000933 13.999874,1.40000933 C7.04115163,1.40000933 1.399916,7.04141297 1.399916,13.9998833 C1.399916,20.9583537 7.04115163,26.6004293 13.99979,26.6004293 C20.9584284,26.6004293 26.600084,20.9586057 26.600084,13.9998833 C26.600084,11.0169453 25.5634402,8.27611211 23.8307809,6.11793906 L22.045613,6.11793906 L22.045613,17.6712725 C21.967839,18.0795862 21.641188,18.4023484 21.1939873,18.4023484 L7.53297741,18.4023484 C7.08577669,18.4023484 6.72023871,18.0368105 6.72023871,17.5896097 C6.72023871,17.142409 7.08577669,16.776871 7.53297741,16.776871 L20.4240243,16.776871 L20.4240243,5.30520036 C20.4240243,4.85799964 20.7895623,4.49246166 21.236763,4.49246166 L22.2686325,4.49246166 Z M10.1272241,23.5182541 C8.87117333,23.5182541 7.85622213,22.5033029 7.85622213,21.2472522 C7.85622213,19.9912015 8.87117333,18.9762503 10.1272241,18.9762503 C11.3832748,18.9762503 12.398226,19.9912015 12.398226,21.2472522 C12.437113,22.5033029 11.3832748,23.5182541 10.1272241,23.5182541 Z M18.3631039,23.5182541 C17.1070531,23.5182541 16.0921019,22.5033029 16.0921019,21.2472522 C16.0921019,19.9912015 17.1070531,18.9762503 18.3631039,18.9762503 C19.6191546,18.9762503 20.6729928,19.9912015 20.6729928,21.2472522 C20.6729928,22.5033029 19.6619303,23.5182541 18.3631039,23.5182541 Z M18.2781845,15.4822951 L9.23695254,15.4822951 C8.78975182,15.4822951 8.42421384,15.1167572 8.42421384,14.6695564 L8.42421384,6.15718792 C8.42421384,5.7099872 8.78975182,5.34444922 9.23695254,5.34444922 L18.2781845,5.34444922 C18.7253852,5.34444922 19.0909232,5.7099872 19.0909232,6.15718792 L19.0909232,14.7123322 C19.0870345,15.1556442 18.7253852,15.4822951 18.2781845,15.4822951 Z" id="Shape"></path>
        </g>
    </g>
</svg>