<?xml version="1.0" encoding="UTF-8"?>
<svg width="45px" height="30px" viewBox="0 0 45 30" version="1.1" xmlns="http://www.w3.org/2000/svg" xmlns:xlink="http://www.w3.org/1999/xlink">
    <!-- Generator: Sketch 49 (51002) - http://www.bohemiancoding.com/sketch -->
    <title>setting</title>
    <desc>Created with Sketch.</desc>
    <defs></defs>
    <g id="setting" stroke="none" stroke-width="1" fill="none" fill-rule="evenodd">
        <g id="165910" transform="translate(9.000000, 1.000000)" fill="#000000" fill-rule="nonzero">
            <path d="M26.5667948,11.0607241 C27.4032218,11.2011035 28.0115324,11.9205477 27.9998341,12.7686731 L27.9998341,15.2311611 C27.9998341,16.0792864 27.3915235,16.7987306 26.5550965,16.93911 L24.5897854,17.2666619 C24.3909146,17.9217656 24.1218542,18.5593218 23.8001515,19.1734816 L24.9582812,20.7995425 C25.449609,21.4897411 25.367721,22.4314527 24.7711087,23.028065 L23.028065,24.7711087 C22.7005131,25.0986606 22.2676767,25.2799839 21.8055947,25.2799839 C21.442948,25.2799839 21.0919996,25.1688503 20.7995425,24.9582812 L19.1793307,23.8001515 C18.5710201,24.1218542 17.9334638,24.3850655 17.272511,24.5897854 L16.93911,26.5550965 C16.7987306,27.3915235 16.0792864,27.9998341 15.2311611,27.9998341 L12.7628239,27.9998341 C11.9146986,27.9998341 11.1952543,27.3915235 11.054875,26.5550965 L10.7273231,24.5897854 C10.0897668,24.3909146 9.46975798,24.1394016 8.87899482,23.8293972 L7.23538642,24.9992252 C6.94292942,25.2097943 6.59783014,25.3209279 6.23518345,25.3209279 C5.77310138,25.3209279 5.340265,25.1396046 5.01271315,24.8120527 L3.26966937,23.0690089 C2.66720793,22.4723966 2.59116911,21.5306851 3.08249688,20.8404865 L4.2347775,19.2378221 C3.90722565,18.6295115 3.6381652,17.9919552 3.4334453,17.3368515 L1.44473763,16.9976014 C0.608310581,16.8572221 0,16.1377778 0,15.2896525 L0,12.8271645 C0,11.9790391 0.608310581,11.2595949 1.44473763,11.1192155 L3.38665217,10.7916637 C3.58552294,10.1307108 3.84288511,9.49315454 4.16458782,8.87899482 L2.99475978,7.23538642 C2.503432,6.54518788 2.58531997,5.60347631 3.18193227,5.00686401 L4.93082519,3.26382023 C5.2525279,2.93626838 5.69121341,2.75494503 6.15329549,2.75494503 C6.51594218,2.75494503 6.86689059,2.8660787 7.1593476,3.07664774 L8.76786116,4.2347775 C9.37617174,3.90722565 10.013728,3.6381652 10.6688317,3.4334453 L11.0080819,1.44473763 C11.1484612,0.608310581 11.8679055,0 12.7160308,0 L15.1785188,0 C16.0266441,0 16.7460884,0.608310581 16.8864678,1.44473763 L17.2140196,3.38665217 C17.898369,3.59137208 18.5593218,3.86628167 19.191029,4.19968266 L20.81709,3.0415529 C21.109547,2.83098386 21.4546462,2.71985019 21.8172929,2.71985019 C22.279375,2.71985019 22.7122114,2.90117354 23.0397632,3.22872539 L24.782807,4.97176917 C25.3852685,5.56838147 25.4613073,6.51009304 24.9699795,7.20029158 L23.8118497,8.82050342 C24.1335525,9.428814 24.3967638,10.0663703 24.6014837,10.7273231 L26.5667948,11.0607241 Z M14.0028416,7.95483067 C10.6688317,7.95483067 7.96067981,10.6629826 7.96067981,13.9969925 C7.96067981,17.3310024 10.6688317,20.0391543 14.0028416,20.0391543 C17.3368515,20.0391543 20.0450035,17.3310024 20.0450035,13.9969925 C20.0450035,10.6629826 17.3368515,7.95483067 14.0028416,7.95483067 Z M14.0028416,18.4598865 C11.5403536,18.4598865 9.53994766,16.4594805 9.53994766,13.9969925 C9.53994766,11.5345045 11.5403536,9.53409852 14.0028416,9.53409852 C16.4653297,9.53409852 18.4657356,11.5345045 18.4657356,13.9969925 C18.4657356,16.4594805 16.4653297,18.4598865 14.0028416,18.4598865 Z" id="Shape"></path>
        </g>
    </g>
</svg>