<?xml version="1.0" encoding="UTF-8"?>
<!DOCTYPE svg PUBLIC "-//W3C//DTD SVG 1.1//EN" "http://www.w3.org/Graphics/SVG/1.1/DTD/svg11.dtd">
<svg version="1.1" xmlns="http://www.w3.org/2000/svg" xmlns:xlink="http://www.w3.org/1999/xlink" x="0" y="0" width="155" height="218" viewBox="0, 0, 155, 218">
  <defs>
    <clipPath id="Clip_1">
      <path d="M-0,218 L154.981,218 L154.981,0.743 L-0,0.743 z"/>
    </clipPath>
  </defs>
  <g id="Layer_1">
    <g>
      <path d="M30.674,117.988 L45.438,117.988 C45.457,118.513 45.467,118.978 45.467,119.386 C45.467,125.075 43.603,129.628 39.875,133.045 C36.147,136.462 31.224,138.171 25.109,138.171 C17.789,138.171 12.332,136.091 8.74,131.93 C5.148,127.769 3.353,122.848 3.353,117.165 C3.353,111.211 5.186,106.265 8.855,102.328 C12.523,98.39 17.502,96.422 23.792,96.422 C29.44,96.422 34.176,98.139 38,101.574 L38,97.057 L43.158,97.057 L43.158,110.363 L38,110.363 C37.029,108.131 35.305,106.146 32.829,104.41 C30.353,102.673 27.523,101.804 24.338,101.804 C19.91,101.804 16.414,103.298 13.851,106.285 C11.287,109.273 10.006,112.872 10.006,117.082 C10.006,121.912 11.467,125.745 14.39,128.577 C17.312,131.41 20.832,132.826 24.95,132.826 C28.173,132.826 31.047,131.928 33.572,130.132 C36.097,128.337 37.572,125.982 38,123.071 L30.674,123.071 L30.674,117.988" fill="#1A1919"/>
      <path d="M55.253,132.601 L55.253,114.287 L49.572,114.287 L49.572,109.354 L59.664,109.354 L59.664,115.7 C60.286,114.05 61.151,112.682 62.26,111.596 C63.368,110.509 64.54,109.789 65.775,109.435 C67.011,109.082 68.698,108.905 70.838,108.905 L72.296,108.905 L72.296,114.512 L71.189,114.512 C68.372,114.512 66.269,114.793 64.879,115.355 C63.49,115.917 62.46,116.94 61.79,118.424 C61.12,119.907 60.785,122.568 60.785,126.407 L60.785,132.601 L66.914,132.601 L66.914,137.535 L49.572,137.535 L49.572,132.601 L55.253,132.601" fill="#1A1919"/>
      <path d="M79.844,99.734 C79.844,98.843 80.159,98.069 80.789,97.41 C81.42,96.751 82.22,96.422 83.189,96.422 C84.1,96.422 84.886,96.742 85.545,97.381 C86.204,98.02 86.534,98.804 86.534,99.734 C86.534,100.663 86.204,101.453 85.545,102.101 C84.886,102.75 84.1,103.075 83.189,103.075 C82.258,103.075 81.468,102.745 80.818,102.087 C80.169,101.428 79.844,100.644 79.844,99.734 z M80.629,132.601 L80.629,114.287 L76.256,114.287 L76.256,109.354 L86.161,109.354 L86.161,132.601 L90.533,132.601 L90.533,137.535 L76.256,137.535 L76.256,132.601 L80.629,132.601" fill="#1A1919"/>
      <path d="M102.73,123.848 C102.73,125.402 103.051,126.887 103.692,128.304 C104.333,129.721 105.353,130.91 106.751,131.87 C108.149,132.832 109.791,133.312 111.675,133.312 C114.317,133.312 116.497,132.429 118.216,130.662 C119.936,128.896 120.795,126.469 120.795,123.382 C120.795,120.373 119.896,118.024 118.1,116.335 C116.303,114.646 114.258,113.802 111.967,113.802 C109.519,113.802 107.367,114.719 105.513,116.554 C103.658,118.388 102.73,120.82 102.73,123.848 z M97.286,145.235 L97.286,114.287 L92.539,114.287 L92.539,109.354 L102.817,109.354 L102.817,113.766 C105.574,110.526 108.913,108.905 112.835,108.905 C116.796,108.905 120.072,110.265 122.663,112.984 C125.255,115.703 126.551,119.237 126.551,123.588 C126.551,128.152 125.143,131.755 122.328,134.396 C119.513,137.037 116.311,138.358 112.718,138.358 C108.991,138.358 105.691,136.922 102.817,134.049 L102.817,145.235 L108.274,145.235 L108.274,150.168 L92.127,150.168 L92.127,145.235 L97.286,145.235" fill="#1A1919"/>
      <path d="M131.399,137.535 L131.399,127.855 L136.333,127.855 L136.333,128.784 C136.508,130.1 137.226,131.183 138.483,132.035 C139.741,132.886 141.228,133.312 142.945,133.312 C144.739,133.312 146.172,133.002 147.245,132.383 C148.317,131.764 148.854,130.902 148.854,129.798 C148.854,128.734 148.412,127.951 147.526,127.447 C146.641,126.944 144.886,126.481 142.259,126.06 C138.368,125.408 135.592,124.348 133.93,122.882 C132.268,121.415 131.437,119.515 131.437,117.183 C131.437,114.831 132.339,112.865 134.144,111.281 C135.948,109.697 138.325,108.905 141.274,108.905 C143.933,108.905 146.223,109.458 148.144,110.563 L148.144,109.354 L153.077,109.354 L153.077,118.698 L148.144,118.698 L148.144,116.975 C146.651,114.661 144.481,113.503 141.632,113.503 C140.178,113.503 138.981,113.819 138.042,114.45 C137.102,115.082 136.632,115.923 136.632,116.973 C136.632,118.043 137.063,118.777 137.928,119.175 C138.792,119.574 140.65,119.996 143.505,120.441 C146.243,120.867 148.31,121.366 149.708,121.939 C151.106,122.511 152.266,123.461 153.189,124.789 C154.111,126.119 154.572,127.665 154.572,129.43 C154.572,132.048 153.566,134.13 151.552,135.671 C149.538,137.213 146.926,137.984 143.717,137.984 C140.701,137.984 138.239,137.305 136.333,135.948 L136.333,137.535 L131.399,137.535" fill="#1A1919"/>
      <path d="M10.641,174.919 L10.641,146.834 L5.978,146.834 L5.978,142.307 L15.716,142.307 L15.716,156.555 C18.758,154.097 21.648,152.869 24.387,152.869 C26.094,152.869 27.499,153.225 28.602,153.937 C29.704,154.649 30.455,155.588 30.855,156.753 C31.256,157.919 31.456,159.623 31.456,161.866 L31.456,174.919 L35.88,174.919 L35.88,179.445 L26.381,179.445 L26.381,163.628 C26.381,161.669 26.318,160.36 26.194,159.701 C26.07,159.042 25.728,158.499 25.167,158.071 C24.607,157.644 23.946,157.43 23.182,157.43 C21.226,157.43 18.738,158.543 15.716,160.767 L15.716,174.919 L20.209,174.919 L20.209,179.445 L5.978,179.445 L5.978,174.919 L10.641,174.919" fill="#1A1919"/>
      <path d="M43.67,166.5 C43.67,169.055 44.464,171.148 46.052,172.78 C47.64,174.412 49.578,175.227 51.866,175.227 C54.19,175.227 56.137,174.403 57.707,172.753 C59.277,171.103 60.062,169.019 60.062,166.5 C60.062,163.964 59.264,161.875 57.667,160.234 C56.07,158.594 54.137,157.773 51.866,157.773 C49.489,157.773 47.528,158.611 45.985,160.288 C44.442,161.964 43.67,164.035 43.67,166.5 z M38.287,166.521 C38.287,162.531 39.603,159.259 42.235,156.703 C44.867,154.147 48.078,152.869 51.866,152.869 C55.583,152.869 58.775,154.129 61.444,156.65 C64.111,159.17 65.446,162.461 65.446,166.521 C65.446,170.582 64.116,173.877 61.457,176.406 C58.798,178.935 55.601,180.2 51.866,180.2 C48.024,180.2 44.8,178.917 42.195,176.352 C39.589,173.788 38.287,170.511 38.287,166.521" fill="#1A1919"/>
      <path d="M73.236,174.919 L73.236,146.834 L68.641,146.834 L68.641,142.307 L78.312,142.307 L78.312,174.919 L82.255,174.919 L82.255,179.445 L68.641,179.445 L68.641,174.919 L73.236,174.919" fill="#1A1919"/>
      <path d="M89.581,174.919 L89.581,158.116 L85.261,158.116 L85.261,153.589 L94.657,153.589 L94.657,156.847 C97.714,154.401 100.709,153.178 103.642,153.178 C106.592,153.178 108.628,154.522 109.748,157.21 C113.11,154.522 116.241,153.178 119.141,153.178 C120.813,153.178 122.188,153.547 123.264,154.286 C124.34,155.025 125.065,155.96 125.439,157.091 C125.813,158.221 126,159.891 126,162.098 L126,174.919 L130.526,174.919 L130.526,179.445 L120.924,179.445 L120.924,162.999 C120.924,161.502 120.857,160.446 120.724,159.83 C120.59,159.215 120.253,158.707 119.71,158.306 C119.168,157.905 118.515,157.704 117.75,157.704 C115.581,157.704 113.119,158.818 110.362,161.046 L110.362,174.919 L114.786,174.919 L114.786,179.445 L105.287,179.445 L105.287,162.518 C105.287,160.824 105.043,159.598 104.554,158.841 C104.065,158.083 103.235,157.704 102.063,157.704 C100.145,157.704 97.676,158.818 94.657,161.046 L94.657,174.919 L99.183,174.919 L99.183,179.445 L84.952,179.445 L84.952,174.919 L89.581,174.919" fill="#1A1919"/>
      <path d="M133.058,179.445 L133.058,170.564 L137.584,170.564 L137.584,171.415 C137.745,172.623 138.403,173.617 139.558,174.398 C140.711,175.18 142.076,175.57 143.65,175.57 C145.296,175.57 146.612,175.286 147.596,174.718 C148.58,174.15 149.072,173.359 149.072,172.347 C149.072,171.37 148.666,170.652 147.854,170.19 C147.042,169.728 145.432,169.304 143.022,168.916 C139.452,168.319 136.905,167.347 135.38,166.001 C133.855,164.655 133.092,162.912 133.092,160.772 C133.092,158.615 133.92,156.81 135.576,155.357 C137.231,153.904 139.412,153.178 142.119,153.178 C144.558,153.178 146.658,153.684 148.421,154.699 L148.421,153.589 L152.947,153.589 L152.947,162.162 L148.421,162.162 L148.421,160.582 C147.051,158.458 145.06,157.396 142.446,157.396 C141.112,157.396 140.015,157.685 139.152,158.265 C138.29,158.845 137.859,159.617 137.859,160.58 C137.859,161.561 138.255,162.235 139.048,162.6 C139.84,162.966 141.546,163.353 144.165,163.762 C146.677,164.153 148.573,164.61 149.856,165.135 C151.139,165.66 152.203,166.532 153.049,167.751 C153.896,168.971 154.319,170.389 154.319,172.009 C154.319,174.411 153.395,176.32 151.548,177.735 C149.7,179.149 147.304,179.857 144.359,179.857 C141.592,179.857 139.333,179.234 137.584,177.989 L137.584,179.445 L133.058,179.445" fill="#1A1919"/>
      <path d="M5.824,217.307 L5.824,209.149 L9.982,209.149 L9.982,209.932 C10.129,211.041 10.734,211.954 11.794,212.672 C12.854,213.389 14.107,213.748 15.553,213.748 C17.065,213.748 18.273,213.487 19.178,212.965 C20.081,212.443 20.533,211.717 20.533,210.787 C20.533,209.89 20.16,209.23 19.415,208.806 C18.669,208.382 17.19,207.992 14.976,207.637 C11.697,207.087 9.357,206.195 7.957,204.958 C6.556,203.722 5.855,202.121 5.855,200.156 C5.855,198.175 6.616,196.517 8.137,195.182 C9.658,193.847 11.661,193.18 14.147,193.18 C16.387,193.18 18.316,193.646 19.935,194.577 L19.935,193.558 L24.093,193.558 L24.093,201.432 L19.935,201.432 L19.935,199.981 C18.677,198.03 16.848,197.055 14.448,197.055 C13.222,197.055 12.214,197.321 11.422,197.853 C10.629,198.386 10.234,199.094 10.234,199.979 C10.234,200.881 10.598,201.499 11.326,201.835 C12.054,202.171 13.62,202.527 16.026,202.902 C18.333,203.261 20.075,203.681 21.253,204.163 C22.432,204.646 23.409,205.447 24.187,206.566 C24.964,207.686 25.353,208.989 25.353,210.476 C25.353,212.683 24.504,214.437 22.807,215.736 C21.11,217.035 18.909,217.685 16.204,217.685 C13.663,217.685 11.588,217.113 9.982,215.97 L9.982,217.307 L5.824,217.307" fill="#1A1919"/>
      <path d="M32.263,213.149 L32.263,187.353 L27.979,187.353 L27.979,183.196 L36.925,183.196 L36.925,204.5 L45.801,197.401 L41.838,197.401 L41.838,193.558 L54.973,193.558 L54.973,197.401 L51.343,197.401 L42.442,204.819 L50.804,213.149 L54.973,213.149 L54.973,217.307 L48.867,217.307 L36.925,205.359 L36.925,213.149 L41.02,213.149 L41.02,217.307 L27.979,217.307 L27.979,213.149 L32.263,213.149" fill="#1A1919"/>
      <path d="M60.947,205.417 C60.947,207.764 61.676,209.686 63.135,211.185 C64.593,212.684 66.373,213.433 68.475,213.433 C70.609,213.433 72.398,212.676 73.84,211.16 C75.282,209.645 76.003,207.73 76.003,205.417 C76.003,203.087 75.27,201.169 73.803,199.662 C72.336,198.155 70.561,197.401 68.475,197.401 C66.292,197.401 64.491,198.171 63.073,199.711 C61.656,201.251 60.947,203.153 60.947,205.417 z M56.002,205.436 C56.002,201.772 57.211,198.765 59.628,196.418 C62.046,194.071 64.995,192.897 68.475,192.897 C71.889,192.897 74.821,194.054 77.272,196.369 C79.722,198.684 80.948,201.706 80.948,205.436 C80.948,209.166 79.726,212.193 77.284,214.515 C74.842,216.839 71.905,218 68.475,218 C64.946,218 61.985,216.822 59.592,214.466 C57.198,212.111 56.002,209.1 56.002,205.436" fill="#1A1919"/>
      <path d="M88.104,213.149 L88.104,187.353 L83.883,187.353 L83.883,183.196 L92.765,183.196 L92.765,213.149 L96.387,213.149 L96.387,217.307 L83.883,217.307 L83.883,213.149 L88.104,213.149" fill="#1A1919"/>
      <path d="M114.991,208.449 C112.974,206.879 110.932,206.094 108.865,206.094 C107.569,206.094 106.486,206.47 105.617,207.222 C104.748,207.974 104.313,208.947 104.313,210.14 C104.313,211.251 104.695,212.183 105.458,212.935 C106.22,213.687 107.258,214.063 108.57,214.063 C110.833,214.063 112.974,213.115 114.991,211.219 L114.991,208.449 z M123.59,213.149 L123.59,217.307 L115.432,217.307 L115.432,214.412 C113.173,216.595 110.652,217.685 107.87,217.685 C105.709,217.685 103.831,216.982 102.235,215.576 C100.639,214.17 99.841,212.371 99.841,210.18 C99.841,207.973 100.689,206.142 102.387,204.686 C104.083,203.231 106.129,202.503 108.523,202.503 C110.752,202.503 112.909,203.174 114.991,204.515 L114.991,202.166 C114.991,200.959 114.876,200.031 114.646,199.378 C114.417,198.726 113.878,198.139 113.033,197.617 C112.187,197.095 111.083,196.834 109.72,196.834 C107.372,196.834 105.671,197.758 104.621,199.606 L100.156,198.428 C102.138,194.741 105.562,192.897 110.426,192.897 C112.211,192.897 113.754,193.138 115.057,193.62 C116.359,194.102 117.33,194.723 117.968,195.483 C118.607,196.244 119.037,197.065 119.258,197.948 C119.479,198.83 119.59,200.236 119.59,202.165 L119.59,213.149 L123.59,213.149" fill="#1A1919"/>
    </g>
    <g>
      <path d="M134.375,193.558 L134.375,196.418 C137.37,194.26 140.103,193.18 142.574,193.18 C144.112,193.18 145.384,193.544 146.391,194.272 C147.397,195 148.055,195.891 148.366,196.946 C148.677,198.001 148.833,199.543 148.833,201.57 L148.833,213.149 L152.833,213.149 L152.833,217.307 L144.171,217.307 L144.171,201.776 C144.171,199.976 143.901,198.803 143.361,198.254 C142.821,197.706 142.158,197.432 141.373,197.432 C139.311,197.432 136.978,198.438 134.375,200.449 L134.375,213.149 L138.47,213.149 L138.47,217.307 L125.557,217.307 L125.557,213.149 L129.714,213.149 L129.714,197.716 L125.557,197.716 L125.557,193.558 L134.375,193.558" fill="#1A1919"/>
      <path d="M62.103,1.015 C66.02,0.653 71.457,0.653 75.373,1.015 C70.95,1.015 66.526,1.015 62.103,1.015" fill="#EDD38D"/>
    </g>
    <g>
      <path d="M110.397,2.321 C110.702,1.96 112.486,1.96 112.79,2.321 C111.993,2.321 111.195,2.321 110.397,2.321" fill="#EDD38D"/>
      <path d="M55.794,2.538 C56.096,2.042 57.309,2.457 57.97,2.321 C57.668,2.816 56.456,2.402 55.794,2.538" fill="#AC262E"/>
      <path d="M77.766,18.418 C76.912,17.823 76.081,17.202 74.938,16.896 C75.237,18.119 76.539,18.341 76.679,19.724 C75.356,19.523 74.773,18.583 73.633,18.201 C74.703,19.596 76.018,20.747 77.549,21.682 C77.684,21.092 78.457,21.141 78.419,20.376 C78.057,19.868 77.204,19.851 77.331,18.854 C78.27,18.858 78.132,19.937 79.071,19.941 C79.744,19.526 78.69,17.385 79.724,17.33 C79.556,18.369 80.064,18.731 79.941,19.724 C81.117,20.001 80.868,18.035 81.899,18.854 C81.597,19.493 80.837,19.677 80.812,20.594 C81.582,20.476 81.347,21.365 82.117,21.246 C83.234,19.97 84.325,18.669 85.38,17.33 C84.049,17.667 83.738,19.024 82.335,19.288 C82.512,17.87 83.686,17.449 84.075,16.243 C82.929,15.949 82.351,17.96 80.812,17.983 C80.076,16.182 80.273,13.446 79.071,12.11 C78.579,14.155 78.881,16.996 77.766,18.418 z M71.24,12.762 C70.404,12.22 69.609,11.638 68.412,11.457 C68.692,12.699 70.089,12.826 70.37,14.068 C69.442,14.412 68.486,13.106 67.324,12.98 C68.343,14.209 69.665,15.135 71.022,16.025 C71.158,15.436 71.931,15.484 71.893,14.72 C71.69,14.141 70.318,14.011 71.022,13.198 C71.622,13.438 72.164,14.508 72.763,14.068 C72.981,13.344 72.281,11.701 73.198,11.675 C73.127,12.689 73.368,13.39 73.633,14.068 C74.482,13.975 74.23,12.78 75.373,12.98 C75.369,13.919 74.29,13.782 74.286,14.72 C74.669,14.917 74.959,15.207 75.156,15.59 C76.779,14.676 77.796,13.155 78.854,11.675 C77.656,11.97 76.967,13.79 75.808,13.415 C76.174,12.186 77.182,11.599 77.549,10.369 C76.129,10.691 75.821,12.122 74.286,12.327 C73.651,10.206 73.335,7.767 72.11,6.236 C71.584,7.31 72.564,10.982 71.24,12.762 z M59.057,5.148 C62.135,5.117 64.217,6.079 64.714,8.629 C64.062,8.921 63.248,9.048 63.191,9.934 C64.915,9.611 63.772,11.065 64.278,11.675 C65.457,11.911 65.252,10.763 65.584,10.152 C65.205,9.951 64.416,10.159 64.496,9.499 C64.966,9.009 65.238,9.68 66.019,9.499 C66.19,8.24 65.195,8.148 65.366,6.889 C66.22,7.196 66.184,8.392 66.672,9.064 C67.651,9.029 67.112,7.474 68.194,7.541 C68.411,8.628 67.519,8.606 67.542,9.499 C68.169,9.597 68.222,10.269 69.064,10.152 C69.516,8.499 71.594,7.318 71.457,5.801 C70.678,6.515 69.808,8.154 68.847,7.976 C68.994,6.673 69.732,5.962 69.935,4.713 C68.317,4.836 68.53,6.789 67.107,7.106 C65.887,4.909 61.506,2.92 59.057,5.148 z M57.97,2.321 C64.485,2.532 70.658,2.034 76.244,2.321 C84.682,2.753 89.826,6.818 94.952,10.152 C94.277,11.959 94.603,14.11 95.169,15.808 C92.098,16.665 87.558,15.852 86.903,18.636 C86.352,20.981 89.22,21.58 87.773,23.422 C87.7,23.422 87.628,23.422 87.556,23.422 C86.707,21.733 86.65,19.251 85.598,17.766 C85.152,19.569 85.087,21.752 84.945,23.857 C83.976,24.11 82.765,22.893 81.682,22.552 C81.178,23.677 84.087,24.298 83.422,25.597 C82.365,25.132 81.452,24.522 80.377,24.074 C81.394,25.45 82.927,26.31 84.293,27.337 C84.251,27.514 84.074,27.555 84.075,27.773 C78.604,24.567 74.052,20.092 68.629,15.59 C63.701,11.499 57.384,5.192 49.486,5.366 C43.603,5.496 32.565,10.168 29.689,3.843 C38.088,3.105 46.717,2.598 55.794,2.538 C56.456,2.402 57.668,2.816 57.97,2.321" fill="#E08132"/>
      <path d="M67.107,7.106 C68.53,6.789 68.317,4.836 69.935,4.713 C69.732,5.962 68.994,6.673 68.847,7.976 C69.808,8.154 70.678,6.515 71.457,5.801 C71.594,7.318 69.516,8.499 69.064,10.152 C68.222,10.269 68.169,9.597 67.542,9.499 C67.519,8.606 68.411,8.628 68.194,7.541 C67.112,7.474 67.651,9.029 66.672,9.064 C66.184,8.392 66.22,7.196 65.366,6.889 C65.195,8.148 66.19,8.24 66.019,9.499 C65.238,9.68 64.966,9.009 64.496,9.499 C64.416,10.159 65.205,9.951 65.584,10.152 C65.252,10.763 65.457,11.911 64.278,11.675 C63.772,11.065 64.915,9.611 63.191,9.934 C63.248,9.048 64.062,8.921 64.714,8.629 C64.217,6.079 62.135,5.117 59.057,5.148 C61.506,2.92 65.887,4.909 67.107,7.106" fill="#AC262E"/>
      <path d="M72.11,6.236 C73.335,7.767 73.651,10.206 74.286,12.327 C75.821,12.122 76.129,10.691 77.549,10.369 C77.182,11.599 76.174,12.186 75.808,13.415 C76.967,13.79 77.656,11.97 78.854,11.675 C77.796,13.155 76.779,14.676 75.156,15.59 C74.959,15.207 74.669,14.917 74.286,14.72 C74.29,13.782 75.369,13.919 75.373,12.98 C74.23,12.78 74.482,13.975 73.633,14.068 C73.368,13.39 73.127,12.689 73.198,11.675 C72.281,11.701 72.981,13.344 72.763,14.068 C72.164,14.508 71.622,13.438 71.022,13.198 C70.318,14.011 71.69,14.141 71.893,14.72 C71.931,15.484 71.158,15.436 71.022,16.025 C69.665,15.135 68.343,14.209 67.324,12.98 C68.486,13.106 69.442,14.412 70.37,14.068 C70.089,12.826 68.692,12.699 68.412,11.457 C69.609,11.638 70.404,12.22 71.24,12.762 C72.564,10.982 71.584,7.31 72.11,6.236" fill="#AC262E"/>
      <path d="M79.071,12.11 C80.273,13.446 80.076,16.182 80.812,17.983 C82.351,17.96 82.929,15.949 84.075,16.243 C83.686,17.449 82.512,17.87 82.335,19.288 C83.738,19.024 84.049,17.667 85.38,17.33 C84.325,18.669 83.234,19.97 82.117,21.246 C81.347,21.365 81.582,20.476 80.812,20.594 C80.837,19.677 81.597,19.493 81.899,18.854 C80.868,18.035 81.117,20.001 79.941,19.724 C80.064,18.731 79.556,18.369 79.724,17.33 C78.69,17.385 79.744,19.526 79.071,19.941 C78.132,19.937 78.27,18.858 77.331,18.854 C77.204,19.851 78.057,19.868 78.419,20.376 C78.457,21.141 77.684,21.092 77.549,21.682 C76.018,20.747 74.703,19.596 73.633,18.201 C74.773,18.583 75.356,19.523 76.679,19.724 C76.539,18.341 75.237,18.119 74.938,16.896 C76.081,17.202 76.912,17.823 77.766,18.418 C78.881,16.996 78.579,14.155 79.071,12.11" fill="#AC262E"/>
      <path d="M87.556,23.422 C87.359,23.805 87.069,24.095 86.685,24.292 C86.323,24.002 86.612,23.059 86.25,22.769 C85.478,22.907 86.314,23.991 86.033,24.945 C85.936,25.138 85.841,25.334 85.598,25.38 C85.079,25.17 84.639,24.227 84.075,24.727 C84.164,25.364 84.819,25.433 85.163,25.815 C84.96,26.41 84.495,26.742 84.293,27.337 C82.927,26.31 81.394,25.45 80.377,24.074 C81.452,24.522 82.365,25.132 83.422,25.597 C84.087,24.298 81.178,23.677 81.682,22.552 C82.765,22.893 83.976,24.11 84.945,23.857 C85.087,21.752 85.152,19.569 85.598,17.766 C86.65,19.251 86.707,21.733 87.556,23.422" fill="#AC262E"/>
      <path d="M99.085,25.815 C97.454,23.385 93.432,23.346 92.341,20.376 C94.83,19.964 98.374,19.449 100.173,19.071 C101.37,21.337 99.962,24.229 99.085,25.815" fill="#AC262E"/>
      <path d="M117.576,19.506 C118.812,19.866 119.725,20.548 120.839,21.029 C122.202,23.699 119.107,25.792 118.664,28.861 C118.296,31.405 119.614,33.42 119.316,35.604 C119.044,37.605 116.636,39.302 116.271,41.478 C115.92,43.566 117.068,45.262 117.141,47.351 C117.285,51.485 114.122,53.953 113.661,57.141 C113.174,57.235 113.572,58.213 113.443,58.663 C112.999,58.6 113.017,58.075 112.573,58.011 C110.875,54.473 114.274,52.495 114.749,49.309 C115.214,46.18 113.112,43.824 113.443,40.826 C113.687,38.611 116.183,36.839 116.489,34.517 C116.741,32.596 115.75,30.609 115.836,28.861 C115.998,25.566 119.333,22.808 117.576,19.506" fill="#E08132"/>
      <path d="M86.685,24.292 C86.564,24.605 86.346,24.823 86.033,24.945 C86.314,23.991 85.478,22.907 86.25,22.769 C86.612,23.059 86.323,24.002 86.685,24.292" fill="#E08132"/>
      <path d="M91.471,24.292 C91.113,26.477 87.709,26.66 87.338,29.078 C87.036,31.045 88.274,33.533 87.773,35.822 C87.531,36.926 86.412,37.88 86.25,38.867 C85.854,41.293 87.682,43.361 86.468,45.394 C86.994,42.616 84.382,40.829 84.51,37.997 C84.575,36.552 85.912,35.386 86.033,33.864 C86.203,31.711 84.509,29.986 84.945,27.991 C85.452,25.668 88.68,25.044 89.296,22.987 C90.053,23.389 90.765,23.838 91.471,24.292" fill="#E08132"/>
      <path d="M85.598,25.38 C85.501,25.574 85.406,25.769 85.163,25.815 C84.819,25.433 84.164,25.364 84.075,24.727 C84.639,24.227 85.079,25.17 85.598,25.38" fill="#E08132"/>
      <path d="M89.513,27.773 C90.333,26.997 91.535,26.604 91.906,25.38 C92.521,26.293 91.295,27.228 91.253,28.207 C90.547,28.19 89.915,28.095 89.513,27.773" fill="#E08132"/>
      <path d="M93.429,25.815 C94.147,26.329 94.706,27.004 95.387,27.555 C93.772,30.043 95.789,33.032 95.822,35.822 C95.88,40.766 90.64,45.5 93.864,51.05 C93.021,51.213 92.239,49.75 91.688,48.657 C90.921,47.129 90.136,45.378 90.383,43.218 C90.707,40.389 92.742,38.983 92.559,35.604 C92.513,34.752 92.03,34.024 91.906,32.994 C91.506,29.654 92.534,27.667 93.429,25.815" fill="#E08132"/>
      <path d="M89.513,27.773 C89.915,28.095 90.547,28.19 91.253,28.207 C90.825,28.359 91.307,29.422 90.818,29.513 C90.422,28.894 89.623,28.678 89.078,28.207 C89.175,28.014 89.27,27.819 89.513,27.773" fill="#AC262E"/>
      <path d="M89.078,28.207 C89.623,28.678 90.422,28.894 90.818,29.513 C90.818,29.731 90.818,29.949 90.818,30.165 C89.782,30.187 89.194,29.76 88.426,29.513 C88.426,29.441 88.426,29.368 88.426,29.295 C88.498,28.788 88.648,28.358 89.078,28.207" fill="#E08132"/>
      <path d="M96.04,28.207 C96.325,28.285 96.382,28.591 96.692,28.643 C97.607,29.909 97.183,31.021 97.345,32.341 C97.729,35.486 99.5,38.523 99.52,41.913 C99.539,45.116 97.339,47.775 97.562,50.615 C97.714,52.551 99.09,53.821 99.738,54.966 C95.719,54.366 93.626,51.154 93.646,46.481 C93.663,43.061 96.847,39.389 96.475,34.952 C96.322,33.139 94.773,30.491 96.04,28.207" fill="#AC262E"/>
      <path d="M137.59,27.62 C138.099,28.915 137.405,29.664 137.104,30.784 C135.836,31.201 133.386,31.236 132.723,30.297 C132.313,29.495 132.579,28.741 132.723,27.864 C133.865,26.778 136.183,26.772 137.59,27.62" fill="#E08132"/>
      <path d="M88.208,29.949 C89.198,30.191 89.856,30.766 90.818,31.036 C90.818,31.253 90.818,31.471 90.818,31.689 C89.733,31.324 88.361,31.245 88.208,29.949" fill="#E08132"/>
      <path d="M89.296,32.994 C89.301,33.655 89.976,34.766 88.861,34.734 C89.04,34.188 88.437,32.861 89.296,32.994" fill="#AC262E"/>
      <path d="M83.64,33.429 C83.485,34.236 84.011,34.362 83.857,35.169 C82.47,35.088 82.077,35.999 81.464,36.692 C81.033,35.89 82.542,35.165 82.117,33.646 C82.872,33.821 82.953,33.322 83.64,33.429" fill="#E08132"/>
      <path d="M75.591,34.734 C76.941,34.126 78.882,34.11 80.594,33.864 C80.594,34.444 80.594,35.024 80.594,35.604 C79.743,35.478 79.331,35.791 78.854,36.039 C79.088,36.92 79.89,35.973 80.812,36.257 C80.822,37.428 79.789,37.554 79.724,38.65 C80.52,39.075 80.614,36.935 81.899,37.127 C81.884,37.867 81.831,38.645 82.335,38.867 C82.828,38.636 82.417,37.5 82.552,36.909 C83.217,37.067 83.192,36.534 83.857,36.692 C83.588,37.373 83.279,38.143 83.64,38.867 C82.505,38.25 83.159,41.082 82.987,42.131 C81.982,41.54 82.189,39.738 81.464,38.867 C79.625,39.928 78.558,41.762 76.896,43.001 C76.723,41.012 78.872,39.467 79.071,37.127 C78.19,36.775 77.05,36.683 75.808,36.692 C76.248,35.609 78.354,36.193 78.854,35.169 C78.891,34.698 78.082,35.071 77.766,34.952 C77.465,34.455 76.252,34.87 75.591,34.734" fill="#AC262E"/>
      <path d="M91.036,34.082 C91.151,34.257 91.263,34.435 91.253,34.734 C90.973,35.178 90.354,35.285 90.166,35.822 C89.577,35.288 90.909,34.837 90.818,34.082 C90.891,34.082 90.963,34.082 91.036,34.082" fill="#E08132"/>
      <path d="M50.356,34.517 C51.017,34.653 52.229,34.238 52.531,34.734 C51.87,34.598 50.657,35.012 50.356,34.517" fill="#E08132"/>
      <path d="M70.152,34.734 C70.454,34.238 71.666,34.653 72.328,34.517 C72.026,35.012 70.813,34.598 70.152,34.734" fill="#E08132"/>
      <path d="M55.142,34.734 C55.874,34.871 57.163,34.454 57.535,34.952 C56.802,34.814 55.514,35.232 55.142,34.734" fill="#E08132"/>
      <path d="M65.802,34.952 C66.174,34.454 67.462,34.871 68.194,34.734 C67.822,35.232 66.534,34.814 65.802,34.952" fill="#E08132"/>
      <path d="M75.591,34.734 C76.252,34.87 77.465,34.455 77.766,34.952 C77.105,34.815 75.892,35.23 75.591,34.734" fill="#E08132"/>
      <path d="M72.11,34.952 C72.015,35.699 72.196,36.171 72.328,36.692 C71.67,36.759 70.636,36.451 70.587,37.127 C70.736,37.921 71.454,37.08 72.328,37.345 C72.426,38.603 71.281,38.618 71.24,39.738 C72.036,40.163 72.13,38.023 73.415,38.215 C73.482,38.872 73.174,39.907 73.851,39.955 C74.344,39.724 73.933,38.588 74.068,37.997 C74.774,38.123 75.08,37.849 75.591,37.78 C75.719,39.609 76.05,41.236 76.244,43.001 C75.431,42.363 75.636,40.708 74.938,39.955 C73.984,40.233 74.749,42.232 74.503,43.218 C73.36,42.766 73.761,40.77 72.98,39.955 C71.099,41.047 70.002,42.922 67.977,43.871 C68.789,41.928 69.811,40.194 70.805,38.432 C70.482,37.233 67.688,38.503 67.542,37.127 C68.696,37.048 69.839,36.959 70.37,36.257 C69.951,35.443 68.067,36.094 67.324,35.604 C68.654,35.121 70.591,35.245 72.11,34.952" fill="#AC262E"/>
      <path d="M53.619,36.692 C53.764,36.692 53.909,36.692 54.054,36.692 C53.606,35.545 51.784,35.771 50.573,35.387 C52.05,34.857 54.261,35.467 55.794,35.604 C55.794,36.112 55.794,36.62 55.794,37.127 C55.114,37.171 54.197,36.98 53.836,37.345 C53.854,38.125 55.259,37.517 55.577,37.997 C55.437,39.09 54.194,39.08 54.054,40.173 C55.2,40.159 55.208,39.007 56.229,38.867 C56.952,39.428 55.708,40.664 56.665,40.826 C57.008,40.371 57.116,39.681 57.1,38.867 C57.535,38.867 57.97,38.867 58.405,38.867 C58.879,40.261 58.577,43.29 58.405,44.089 C57.926,43.262 58.105,41.778 57.752,40.826 C56.37,41.038 57.435,43.699 56.229,44.089 C56,42.94 56.238,41.324 55.577,40.608 C53.638,41.424 52.223,42.764 50.356,43.653 C51.217,41.614 52.814,40.31 53.836,38.432 C53.265,37.409 50.938,38.14 50.573,36.909 C50.864,36.909 51.154,36.909 51.443,36.909 C52.105,36.773 53.317,37.188 53.619,36.692" fill="#AC262E"/>
      <path d="M45.353,43.436 C44.407,42.445 44.917,40.027 44.7,38.867 C42.858,38.983 42.333,40.415 40.784,40.826 C41.419,39.213 42.846,38.392 44.047,37.345 C42.094,36.917 40.507,38.734 39.479,39.955 C40.12,37.767 42.937,35.872 46.223,35.604 C46.116,36.291 46.615,36.372 46.44,37.127 C45.725,37.427 44.581,37.298 44.265,37.997 C44.968,38.805 46.07,37.342 46.658,37.997 C46.417,38.916 45.718,39.378 45.57,40.391 C46.932,40.447 46.275,38.485 47.745,38.65 C47.709,39.411 47.803,40.042 48.181,40.391 C48.674,40.159 48.264,39.023 48.398,38.432 C48.979,38.432 49.558,38.432 50.138,38.432 C50.138,40.1 50.138,41.768 50.138,43.436 C49.206,42.99 50.04,40.779 49.051,40.391 C48.57,40.417 48.959,41.313 48.833,41.696 C48.201,41.861 49.03,43.488 48.398,43.653 C48.132,42.468 47.927,41.224 47.31,40.391 C46.312,41.074 45.375,42.829 46.223,44.089 C45.897,44.742 45.833,43.343 45.353,43.436" fill="#AC262E"/>
      <path d="M67.324,40.391 C67.306,41.642 67.277,42.903 67.542,43.871 C66.609,43.353 67.169,41.343 66.237,40.826 C65.297,41.192 66.161,43.361 65.584,44.089 C64.748,43.474 64.989,41.783 64.496,40.826 C62.374,41.604 61.048,43.178 59.275,44.306 C59.331,42.402 61.543,40.774 62.32,38.867 C61.711,38.026 59.861,38.426 59.057,37.78 C59.752,37.169 61.409,37.52 62.103,36.909 C61.825,35.809 59.553,36.704 59.275,35.604 C59.42,35.604 59.565,35.604 59.71,35.604 C60.015,35.965 61.798,35.965 62.103,35.604 C62.623,35.737 63.682,35.331 63.844,35.822 C63.844,36.329 63.844,36.837 63.844,37.345 C63.137,37.233 61.559,37.361 62.32,37.997 C62.828,37.997 63.336,37.997 63.844,37.997 C64.016,38.75 63.602,38.915 63.408,39.303 C63.035,39.582 62.553,39.752 62.538,40.391 C63.282,40.743 63.935,39.394 64.496,38.867 C64.672,38.909 64.713,39.086 64.931,39.085 C64.957,39.711 64.813,40.509 65.149,40.826 C65.416,40.73 65.596,40.547 65.584,40.173 C65.584,39.738 65.584,39.303 65.584,38.867 C66.091,38.867 66.599,38.867 67.107,38.867 C67.236,39.318 66.837,40.297 67.324,40.391" fill="#AC262E"/>
      <path d="M59.71,35.604 C60.508,35.604 61.305,35.604 62.103,35.604 C61.798,35.965 60.015,35.965 59.71,35.604" fill="#E08132"/>
      <path d="M65.366,35.604 C65.873,35.604 66.381,35.604 66.889,35.604 C66.889,36.112 66.889,36.62 66.889,37.127 C65.773,37.316 64.971,37.82 64.496,38.65 C64.067,37.779 65.837,37.241 65.366,35.604" fill="#E08132"/>
      <path d="M35.781,36.909 C36.227,36.549 38.163,36.549 38.609,36.909 C37.666,36.909 36.724,36.909 35.781,36.909" fill="#EDD38D"/>
      <path d="M51.443,36.909 C51.745,36.413 52.958,36.828 53.619,36.692 C53.317,37.188 52.105,36.773 51.443,36.909" fill="#E08132"/>
      <path d="M123.015,46.699 C122.47,43.628 121.023,38.513 124.103,37.127 C123.715,38.168 125.969,38.775 126.061,39.738 C126.116,40.33 124.832,41.586 124.755,42.348 C124.494,44.939 126.083,47.196 125.625,49.527 C124.857,53.439 119.691,54.666 119.969,59.098 C116.217,55.399 122.763,52.701 123.015,48.874 C123.375,48.64 123.375,46.933 123.015,46.699" fill="#E08132"/>
      <path d="M130.629,41.913 C127.901,43.964 130.223,48.755 129.758,52.355 C129.227,56.477 125.804,57.605 125.408,61.709 C124.104,60.547 122.417,59.769 120.622,59.098 C121.167,54.195 126.17,53.207 126.496,48.439 C126.666,45.943 124.344,42.124 126.496,40.173 C127.82,40.806 128.767,41.817 130.629,41.913" fill="#AC262E"/>
      <path d="M38.826,40.608 C39.371,40.788 39.68,41.204 40.349,41.261 C39.532,42.387 40.08,44.128 40.566,45.176 C39.608,44.612 39.507,43.19 37.956,43.218 C38.07,42.172 38.452,41.394 38.826,40.608" fill="#E08132"/>
      <path d="M45.353,44.089 C44.575,43.996 44.192,43.509 43.177,43.653 C43.605,44.675 45.196,44.535 46.223,44.959 C45.367,45.278 43.809,44.828 42.742,45.394 C43.725,47.021 45.173,48.183 46.658,49.309 C44.668,49.629 42.718,48.029 41.001,47.351 C40.01,48.371 40.762,49.998 40.349,51.05 C39.49,50.241 39.707,48.357 38.826,47.569 C38.115,48.121 38.442,49.907 38.609,51.267 C37.534,50.215 37.741,46.801 37.739,45.394 C38.246,45.394 38.753,45.394 39.261,45.394 C39.133,46.32 39.418,46.833 39.479,47.569 C40.713,47.52 39.693,46.508 39.914,45.611 C41.374,45.384 41.167,46.824 42.307,46.916 C42.863,45.991 40.808,45.811 41.001,44.523 C41.843,44.408 42.063,44.912 42.959,44.741 C42.991,43.839 41.88,44.08 41.219,43.871 C41.147,43.074 41.461,42.662 41.654,42.131 C42.988,42.464 43.801,43.32 45.135,43.653 C45.118,43.959 45.767,43.902 45.353,44.089" fill="#AC262E"/>
      <path d="M133.239,51.702 C132.61,56.73 128.959,59.894 126.496,62.362 C125.178,59.887 127.604,58.695 128.671,57.141 C129.723,55.609 130.602,53.38 130.629,51.05 C130.665,47.905 128.601,43.679 131.716,42.348 C132.079,42.348 132.442,42.348 132.804,42.348 C133.179,42.709 135.039,42.709 135.415,42.348 C135.632,42.348 135.85,42.348 136.067,42.348 C136.136,45.028 133.618,45.12 133.457,47.569 C132.953,48.516 133.381,50.395 133.239,51.702" fill="#E08132"/>
      <path d="M132.804,42.348 C133.674,42.348 134.544,42.348 135.415,42.348 C135.039,42.709 133.179,42.709 132.804,42.348" fill="#AC262E"/>
      <path d="M123.015,46.699 C123.375,46.933 123.375,48.64 123.015,48.874 C123.015,48.149 123.015,47.424 123.015,46.699" fill="#AC262E"/>
      <path d="M133.457,47.569 C133.314,48.877 133.743,50.756 133.239,51.702 C133.381,50.395 132.953,48.516 133.457,47.569" fill="#AC262E"/>
      <path d="M37.739,54.095 C38.1,55.043 38.1,57.498 37.739,58.446 C37.739,56.996 37.739,55.545 37.739,54.095" fill="#E08132"/>
      <path d="M116.924,60.621 C117.37,60.26 119.306,60.261 119.752,60.621 C118.809,60.621 117.866,60.621 116.924,60.621" fill="#E08132"/>
      <path d="M111.92,64.537 C112.28,64.842 112.28,66.626 111.92,66.93 C111.92,66.133 111.92,65.335 111.92,64.537" fill="#E08132"/>
      <path d="M9.458,80.418 C10.256,80.418 11.053,80.418 11.851,80.418 C11.546,80.779 9.763,80.779 9.458,80.418" fill="#E08132"/>
      <path d="M85.598,85.639 C85.902,85.278 87.686,85.278 87.991,85.639 C87.193,85.639 86.395,85.639 85.598,85.639" fill="#EDD38D"/>
      <path d="M139.113,88.467 C139.513,88.602 139.498,91.292 138.895,90.425 C139.389,90.193 138.978,89.057 139.113,88.467" fill="#EDD38D"/>
      <path d="M127.583,62.797 C128.217,61.981 128.942,61.256 129.758,60.621 C129.125,61.438 128.399,62.163 127.583,62.797" fill="#EDD38D"/>
      <path d="M128.018,10.805 C126.741,9.756 126.74,10.743 125.625,11.24 C124.654,11.673 123.319,11.371 123.45,12.11 C125.161,11.511 126.742,12.273 127.801,12.98 C128.815,11.866 129.061,11.661 128.018,10.805 z M114.966,4.713 C114.427,5.916 112.733,5.962 112.138,7.106 C114.08,5.978 115.805,7.239 116.924,8.194 C117.308,7.998 117.559,7.669 118.011,7.541 C117.533,6.062 116.395,5.243 114.966,4.713 z M104.523,6.236 C104.219,6.584 103.774,6.792 103.218,6.889 C103.491,8.055 103.795,8.855 103.436,10.152 C104.21,9.404 104.589,8.26 105.394,7.541 C105.079,7.132 105.074,6.411 104.523,6.236 z M137.155,17.983 C136.836,15.91 135.66,14.693 134.327,13.633 C133.581,14.554 132.118,14.76 131.281,15.59 C133.082,15.263 135.166,16.081 135.415,17.983 C125.718,17.83 120.754,26.409 123.667,36.039 C118.745,39.044 123.697,44.835 122.362,49.527 C121.46,52.694 116.077,54.665 118.664,58.881 C117.473,59.114 115.512,59.582 114.313,59.098 C113.803,54.91 118.402,51.665 117.794,46.481 C117.618,44.985 116.743,43.727 116.924,42.131 C117.178,39.887 119.574,38.204 119.969,36.257 C120.469,33.79 119.119,31.797 119.316,29.513 C119.568,26.603 123.795,22.447 120.839,21.029 C119.725,20.548 118.812,19.866 117.576,19.506 C117.055,19.593 117.697,18.516 116.924,18.854 C116.708,20.447 117.45,22.15 117.141,23.64 C116.789,25.333 115.399,26.412 115.184,27.773 C114.878,29.696 115.969,31.354 115.836,33.864 C115.718,36.083 113.234,37.767 112.79,39.955 C112.25,42.619 114.482,45.608 114.096,48.874 C113.607,52.994 108.982,56.479 112.79,59.533 C109.696,59.656 108.101,58.277 106.046,57.358 C108.675,55.677 110.289,53.91 110.615,51.05 C110.979,47.852 108.737,44.812 109.092,41.478 C109.326,39.275 112.133,36.077 112.355,33.211 C112.738,28.264 107.531,22.152 112.355,19.941 C112.294,19.437 111.774,19.441 111.485,19.724 C111.765,18.795 110.461,17.752 109.962,16.896 C109.22,15.032 105.768,17.887 105.394,19.941 C104.508,24.806 108.31,28.809 107.787,33.429 C107.408,36.772 105.071,39.005 105.611,43.871 C106.143,48.655 109.162,53.854 104.741,56.488 C102.628,56.245 100.705,53.919 100.825,50.832 C100.897,48.988 103.193,46.246 103.653,42.783 C104.217,38.545 100.981,34.155 102.13,30.383 C102.591,28.874 103.645,27.794 104.088,26.467 C104.566,25.039 105.006,23.454 104.958,21.682 C104.913,19.979 102.818,12.798 102.565,15.59 C102.017,15.105 101.594,16.066 100.825,16.025 C100.646,15.41 101.132,15.462 101.043,14.938 C101.426,14.885 101.539,14.564 101.478,14.068 C99.538,14.23 98.398,15.193 96.475,15.373 C94.095,9.07 99.38,8.877 103.871,6.236 C108.458,3.538 115.934,1.806 119.534,7.324 C119.818,7.837 119.626,8.827 119.969,9.282 C120.772,8.672 122.454,6.721 125.408,7.759 C126.723,8.221 128.357,11.252 130.411,12.327 C133.62,14.007 139.408,13.72 137.155,17.983" fill="#AC262E"/>
      <path d="M101.043,14.938 C101.132,15.462 100.646,15.41 100.825,16.025 C101.594,16.066 102.017,15.105 102.565,15.59 C103.33,18.011 104.279,19.541 104.306,21.899 C104.361,26.726 100.631,28.423 101.26,33.864 C101.603,36.822 103.142,38.98 103,41.696 C102.806,45.462 98.153,50.533 101.26,54.748 C99.801,54.177 98.247,52.56 98.215,50.18 C98.189,48.261 99.866,45.925 100.173,43.218 C100.671,38.829 97.831,34.024 97.998,30.819 C98.254,25.866 104.875,20.452 99.085,16.678 C98.377,17.45 99.526,17.684 99.52,18.418 C97.324,19.63 92.78,18.494 91.471,20.594 C92.564,23.779 97.001,23.62 98.433,26.467 C98.44,27.418 97.831,27.752 97.78,28.643 C95.847,25 90.703,23.889 88.426,21.029 C85.882,17.834 90.227,17.563 93.864,16.896 C96.839,16.35 99.058,15.735 101.043,14.938" fill="#E08132"/>
      <path d="M112.573,58.011 C113.017,58.075 112.999,58.6 113.443,58.663 C113.572,58.213 113.174,57.235 113.661,57.141 C113.661,57.721 113.661,58.301 113.661,58.881 C113.022,58.867 112.853,58.384 112.573,58.011" fill="#AC262E"/>
      <path d="M135.415,17.983 C135.166,16.081 133.082,15.263 131.281,15.59 C132.118,14.76 133.581,14.554 134.327,13.633 C135.66,14.693 136.836,15.91 137.155,17.983 C136.575,17.983 135.995,17.983 135.415,17.983" fill="#E08132"/>
      <path d="M105.394,7.541 C104.589,8.26 104.21,9.404 103.436,10.152 C103.795,8.855 103.491,8.055 103.218,6.889 C103.774,6.792 104.219,6.584 104.523,6.236 C105.074,6.411 105.079,7.132 105.394,7.541" fill="#E08132"/>
      <path d="M118.011,7.541 C117.559,7.669 117.308,7.998 116.924,8.194 C115.805,7.239 114.08,5.978 112.138,7.106 C112.733,5.962 114.427,5.916 114.966,4.713 C116.395,5.243 117.533,6.062 118.011,7.541" fill="#E08132"/>
      <path d="M111.485,19.724 C106.869,22.15 111.73,27.757 111.703,32.559 C111.685,35.682 108.845,38.188 108.439,40.826 C107.93,44.141 110.061,47.124 109.962,50.18 C109.876,52.848 108.621,54.5 106.481,56.271 C106.665,55.265 107.89,53.562 108.004,51.92 C108.214,48.908 105.888,45.134 106.264,40.826 C106.546,37.594 108.948,35.149 108.439,30.819 C107.911,26.317 102.569,17.708 109.962,16.896 C110.461,17.752 111.765,18.795 111.485,19.724" fill="#E08132"/>
      <path d="M146.484,34.16 C146.41,34.137 146.321,34.114 146.21,34.088 C146.012,34.043 145.184,34.036 145.204,33.646 C144.812,41.304 131.315,43.47 126.496,38.432 C124.27,36.106 123.89,32.5 124.103,29.731 C124.3,27.151 124.761,24.721 126.388,22.627 C129.411,18.734 136.179,18.032 140.482,19.851 C142.372,20.651 144.37,22.423 145.377,24.229 C147.147,27.401 149.923,23.952 152.403,25.908 C153.647,26.889 154.205,27.994 154.479,29.541 C154.605,30.249 154.513,30.841 154.49,31.549 C154.433,31.561 154.376,31.513 154.326,31.524 C154.193,32.558 153.883,33.183 153.474,34.133 C153.257,34.635 153.217,35.232 153.14,35.77 C153.115,35.938 153.12,37.568 152.596,37.129 C152.445,37.003 152.354,36.848 152.193,36.709 C151.73,36.311 151.209,35.968 150.684,35.66 C150.451,35.524 150.228,35.353 149.966,35.281 C149.673,35.2 149.342,35.199 149.041,35.168 C148.386,35.1 147.75,34.985 147.199,34.601 C146.841,34.352 146.794,34.257 146.484,34.16" fill="#F0C757"/>
    </g>
    <g clip-path="url(#Clip_1)">
      <path d="M88.426,29.295 C88.426,29.368 88.426,29.441 88.426,29.513 C89.194,29.76 89.782,30.187 90.818,30.165 C90.818,30.456 90.818,30.746 90.818,31.036 C89.856,30.766 89.198,30.191 88.208,29.949 C88.689,29.635 87.934,29.417 88.426,29.295" fill="#AC262E"/>
      <path d="M121.057,72.586 C118.07,75.668 122.453,81.244 120.622,85.204 C118.702,87.272 112.409,84.968 111.703,88.249 C113.176,88.115 114.183,89.101 115.836,88.902 C117.599,88.689 118.749,87.162 120.622,87.379 C121.894,87.527 122.836,88.675 124.103,88.684 C126.271,88.701 127.644,87.26 129.976,87.597 C132.027,87.892 133.777,88.253 136.067,88.249 C136.188,86.142 133.68,86.212 132.586,86.509 C134.692,83.864 136.041,87.846 138.243,87.814 C137.83,83.281 131.202,86.087 128.018,85.639 C122.874,84.915 124.489,78.703 124.755,73.022 C123.551,73.656 121.929,73.407 121.057,72.586 z M97.78,72.586 C97.344,73.238 96.563,73.546 95.387,73.456 C93.662,77.28 96.134,84.311 92.776,86.291 C90.149,87.841 82.909,84.335 83.205,89.12 C84.626,89.197 84.945,86.922 86.25,86.726 C86.738,86.654 87.817,86.713 88.208,87.597 C87.704,87.906 86.507,86.943 85.598,87.597 C85.585,88.309 84.979,88.428 85.163,89.337 C87.038,88.643 88.925,89.839 90.818,89.555 C93.291,89.183 94.3,88.033 96.257,88.249 C97.424,88.378 98.562,89.413 100.173,89.555 C102.782,89.783 105.412,87.451 108.004,88.902 C108.084,85.286 102.921,87.285 100.825,87.161 C94.123,86.766 98.275,79.345 100.173,74.979 C98.728,74.828 98.299,73.663 97.78,72.586 z M63.191,86.291 C61.138,85.638 56.728,81.913 57.97,78.46 C60.182,72.311 71.118,72.473 69.5,61.709 C66.658,61.458 63.578,61.362 61.015,61.927 C60.72,65.837 58.709,68.032 56.012,69.54 C55.963,73.602 48.362,75.764 49.268,80.2 C49.607,81.863 53.041,83.377 54.271,84.986 C55.196,86.194 56.119,88.891 57.97,89.772 C60.068,90.771 63.673,90.121 66.672,89.99 C68.623,89.904 70.338,90.141 71.893,89.99 C72.196,87.801 69.074,89.037 68.194,88.032 C70.479,87.157 72.546,88.297 72.98,89.99 C74.464,83.793 66.718,87.413 63.191,86.291 z M132.804,42.348 C132.442,42.348 132.079,42.348 131.716,42.348 C128.601,43.679 130.665,47.905 130.629,51.05 C130.602,53.38 129.723,55.609 128.671,57.141 C127.604,58.695 125.178,59.887 126.496,62.362 C128.959,59.894 132.61,56.73 133.239,51.702 C133.743,50.756 133.314,48.877 133.457,47.569 C133.618,45.12 136.136,45.028 136.067,42.348 C135.85,42.348 135.632,42.348 135.415,42.348 C134.544,42.348 133.674,42.348 132.804,42.348 z M126.496,40.173 C124.344,42.124 126.666,45.943 126.496,48.439 C126.17,53.207 121.167,54.195 120.622,59.098 C122.417,59.769 124.104,60.547 125.408,61.709 C125.804,57.605 129.227,56.477 129.758,52.355 C130.223,48.755 127.901,43.964 130.629,41.913 C128.767,41.817 127.82,40.806 126.496,40.173 z M123.015,48.874 C122.763,52.701 116.217,55.399 119.969,59.098 C119.691,54.666 124.857,53.439 125.625,49.527 C126.083,47.196 124.494,44.939 124.755,42.348 C124.832,41.586 126.116,40.33 126.061,39.738 C125.969,38.775 123.715,38.168 124.103,37.127 C121.023,38.513 122.47,43.628 123.015,46.699 C123.015,47.424 123.015,48.149 123.015,48.874 z M96.475,34.952 C96.847,39.389 93.663,43.061 93.646,46.481 C93.626,51.154 95.719,54.366 99.738,54.966 C99.09,53.821 97.714,52.551 97.562,50.615 C97.339,47.775 99.539,45.116 99.52,41.913 C99.5,38.523 97.729,35.486 97.345,32.341 C97.183,31.021 97.607,29.909 96.692,28.643 C96.382,28.591 96.325,28.285 96.04,28.207 C94.773,30.491 96.322,33.139 96.475,34.952 z M91.906,32.994 C92.03,34.024 92.513,34.752 92.559,35.604 C92.742,38.983 90.707,40.389 90.383,43.218 C90.136,45.378 90.921,47.129 91.688,48.657 C92.239,49.75 93.021,51.213 93.864,51.05 C90.64,45.5 95.88,40.766 95.822,35.822 C95.789,33.032 93.772,30.043 95.387,27.555 C94.706,27.004 94.147,26.329 93.429,25.815 C92.534,27.667 91.506,29.654 91.906,32.994 z M91.253,28.207 C91.295,27.228 92.521,26.293 91.906,25.38 C91.535,26.604 90.333,26.997 89.513,27.773 C89.27,27.819 89.175,28.014 89.078,28.207 C88.648,28.358 88.498,28.788 88.426,29.295 C87.934,29.417 88.689,29.635 88.208,29.949 C88.361,31.245 89.733,31.324 90.818,31.689 C90.818,31.471 90.818,31.253 90.818,31.036 C90.818,30.746 90.818,30.456 90.818,30.165 C90.818,29.949 90.818,29.731 90.818,29.513 C91.307,29.422 90.825,28.359 91.253,28.207 z M89.296,22.987 C88.68,25.044 85.452,25.668 84.945,27.991 C84.509,29.986 86.203,31.711 86.033,33.864 C85.912,35.386 84.575,36.552 84.51,37.997 C84.382,40.829 86.994,42.616 86.468,45.394 C87.682,43.361 85.854,41.293 86.25,38.867 C86.412,37.88 87.531,36.926 87.773,35.822 C88.274,33.533 87.036,31.045 87.338,29.078 C87.709,26.66 91.113,26.477 91.471,24.292 C90.765,23.838 90.053,23.389 89.296,22.987 z M152.371,36.751 C152.313,36.668 152.712,35.586 152.756,35.453 C152.975,34.793 151.538,33.499 150.209,33.076 C146.832,32.002 146.494,31.872 146.595,30.568 C147.147,31.63 150.791,32.218 152.217,33.297 C152.841,33.768 153.058,33.974 153.167,34.207 C153.186,33.998 153.196,34.157 153.244,33.952 C153.598,32.425 153.835,31.372 153.823,29.795 C153.815,28.834 153.613,27.827 152.881,27.149 C152.282,26.594 151.458,26.338 150.667,26.206 C149.814,26.063 148.939,26.062 148.08,26.153 C147.853,26.177 145.415,26.59 145.429,26.649 C144.263,21.775 141.568,19.834 136.938,19.288 C129.264,18.386 124.563,23.73 124.103,29.731 C123.89,32.5 124.27,36.106 126.496,38.432 C131.315,43.47 144.812,41.304 145.204,33.646 C145.404,34.026 145.884,34.126 146.509,34.082 C149.071,33.366 150.896,34.63 152.371,36.751 z M100.173,19.071 C98.374,19.449 94.83,19.964 92.341,20.376 C93.432,23.346 97.454,23.385 99.085,25.815 C99.962,24.229 101.37,21.337 100.173,19.071 z M77.549,24.945 C75.117,23.035 72.641,20.925 70.152,18.854 C65.13,14.675 60.256,9.343 54.489,7.324 C48.165,5.109 41.895,8.554 35.346,8.847 C38.743,16.147 50.199,7.114 55.794,12.327 C50.576,11.783 45.838,11.389 41.437,12.98 C43.897,21.802 55.603,12.055 61.015,17.113 C56.023,16.444 51.988,17.525 47.31,17.766 C48.405,20.542 50.645,22.151 53.619,22.116 C56.823,22.079 60.609,19.535 64.061,20.159 C65.43,20.406 66.837,21.416 67.759,22.334 C63.168,20.854 58.532,21.959 54.054,22.769 C54.43,24.646 56.571,26.727 58.622,27.12 C62.342,27.834 64.441,25.465 67.542,25.38 C70.169,25.307 71.973,26.025 74.286,27.12 C69.338,26.573 64.405,27.012 60.363,27.991 C63.099,36.485 76.703,33.366 84.51,31.471 C83.731,28.298 80.115,26.96 77.549,24.945 z M137.155,17.983 C139.408,13.72 133.62,14.007 130.411,12.327 C128.357,11.252 126.723,8.221 125.408,7.759 C122.454,6.721 120.772,8.672 119.969,9.282 C119.626,8.827 119.818,7.837 119.534,7.324 C115.934,1.806 108.458,3.538 103.871,6.236 C99.38,8.877 94.095,9.07 96.475,15.373 C98.398,15.193 99.538,14.23 101.478,14.068 C101.539,14.564 101.426,14.885 101.043,14.938 C99.058,15.735 96.839,16.35 93.864,16.896 C90.227,17.563 85.882,17.834 88.426,21.029 C90.703,23.889 95.847,25 97.78,28.643 C97.831,27.752 98.44,27.418 98.433,26.467 C97.001,23.62 92.564,23.779 91.471,20.594 C92.78,18.494 97.324,19.63 99.52,18.418 C99.526,17.684 98.377,17.45 99.085,16.678 C104.875,20.452 98.254,25.866 97.998,30.819 C97.831,34.024 100.671,38.829 100.173,43.218 C99.866,45.925 98.189,48.261 98.215,50.18 C98.247,52.56 99.801,54.177 101.26,54.748 C98.153,50.533 102.806,45.462 103,41.696 C103.142,38.98 101.603,36.822 101.26,33.864 C100.631,28.423 104.361,26.726 104.306,21.899 C104.279,19.541 103.33,18.011 102.565,15.59 C102.818,12.798 104.913,19.979 104.958,21.682 C105.006,23.454 104.566,25.039 104.088,26.467 C103.645,27.794 102.591,28.874 102.13,30.383 C100.981,34.155 104.217,38.545 103.653,42.783 C103.193,46.246 100.897,48.988 100.825,50.832 C100.705,53.919 102.628,56.245 104.741,56.488 C109.162,53.854 106.143,48.655 105.611,43.871 C105.071,39.005 107.408,36.772 107.787,33.429 C108.31,28.809 104.508,24.806 105.394,19.941 C105.768,17.887 109.22,15.032 109.962,16.896 C102.569,17.708 107.911,26.317 108.439,30.819 C108.948,35.149 106.546,37.594 106.264,40.826 C105.888,45.134 108.214,48.908 108.004,51.92 C107.89,53.562 106.665,55.265 106.481,56.271 C108.621,54.5 109.876,52.848 109.962,50.18 C110.061,47.124 107.93,44.141 108.439,40.826 C108.845,38.188 111.685,35.682 111.703,32.559 C111.73,27.757 106.869,22.15 111.485,19.724 C111.774,19.441 112.294,19.437 112.355,19.941 C107.531,22.152 112.738,28.264 112.355,33.211 C112.133,36.077 109.326,39.275 109.092,41.478 C108.737,44.812 110.979,47.852 110.615,51.05 C110.289,53.91 108.675,55.677 106.046,57.358 C108.101,58.277 109.696,59.656 112.79,59.533 C108.982,56.479 113.607,52.994 114.096,48.874 C114.482,45.608 112.25,42.619 112.79,39.955 C113.234,37.767 115.718,36.083 115.836,33.864 C115.969,31.354 114.878,29.696 115.184,27.773 C115.399,26.412 116.789,25.333 117.141,23.64 C117.45,22.15 116.708,20.447 116.924,18.854 C117.697,18.516 117.055,19.593 117.576,19.506 C119.333,22.808 115.998,25.566 115.836,28.861 C115.75,30.609 116.741,32.596 116.489,34.517 C116.183,36.839 113.687,38.611 113.443,40.826 C113.112,43.824 115.214,46.18 114.749,49.309 C114.274,52.495 110.875,54.473 112.573,58.011 C112.853,58.384 113.022,58.867 113.661,58.881 C113.661,58.301 113.661,57.721 113.661,57.141 C114.122,53.953 117.285,51.485 117.141,47.351 C117.068,45.262 115.92,43.566 116.271,41.478 C116.636,39.302 119.044,37.605 119.316,35.604 C119.614,33.42 118.296,31.405 118.664,28.861 C119.107,25.792 122.202,23.699 120.839,21.029 C123.795,22.447 119.568,26.603 119.316,29.513 C119.119,31.797 120.469,33.79 119.969,36.257 C119.574,38.204 117.178,39.887 116.924,42.131 C116.743,43.727 117.618,44.985 117.794,46.481 C118.402,51.665 113.803,54.91 114.313,59.098 C115.512,59.582 117.473,59.114 118.664,58.881 C116.077,54.665 121.46,52.694 122.362,49.527 C123.697,44.835 118.745,39.044 123.667,36.039 C120.754,26.409 125.718,17.83 135.415,17.983 C135.995,17.983 136.575,17.983 137.155,17.983 z M55.794,2.538 C46.717,2.598 38.088,3.105 29.689,3.843 C32.565,10.168 43.603,5.496 49.486,5.366 C57.384,5.192 63.701,11.499 68.629,15.59 C74.052,20.092 78.604,24.567 84.075,27.773 C84.074,27.555 84.251,27.514 84.293,27.337 C84.495,26.742 84.96,26.41 85.163,25.815 C85.406,25.769 85.501,25.574 85.598,25.38 C85.841,25.334 85.936,25.138 86.033,24.945 C86.346,24.823 86.564,24.605 86.685,24.292 C87.069,24.095 87.359,23.805 87.556,23.422 C87.628,23.422 87.7,23.422 87.773,23.422 C89.22,21.58 86.352,20.981 86.903,18.636 C87.558,15.852 92.098,16.665 95.169,15.808 C94.603,14.11 94.277,11.959 94.952,10.152 C89.826,6.818 84.682,2.753 76.244,2.321 C70.658,2.034 64.485,2.532 57.97,2.321 C57.309,2.457 56.096,2.042 55.794,2.538 z M37.739,58.446 C37.25,61.539 36.92,63.662 34.693,64.972 C32.671,66.161 29.529,65.249 27.732,67.148 C30.525,73.262 22.972,76.858 22.946,80.636 C22.934,82.365 24.677,84.159 25.339,85.639 C25.96,87.031 26.578,89.782 28.167,90.425 C31.825,91.906 35.639,88.934 39.914,90.642 C40.583,88.016 37.388,89.253 36.433,88.249 C38.658,87.332 40.494,88.682 41.001,90.207 C41.577,83.987 33.73,88.305 30.56,86.074 C29.218,85.129 28.982,82.995 29.037,81.506 C29.299,74.299 36.866,71.993 42.959,71.064 C50.714,69.88 59.179,70.169 60.145,62.362 C60.552,59.073 59.289,59.013 59.928,55.836 C60.907,56.525 60.609,58.49 61.015,59.751 C64.593,58.828 61.338,48.043 66.672,48.874 C65.914,50.408 64.683,50.177 64.061,51.92 C63.355,53.898 64.313,56.5 63.626,58.446 C63.149,59.794 61.942,60.144 61.233,61.057 C70.381,59.286 81.34,64.861 87.991,59.969 C89.466,58.884 90.786,57.044 92.559,56.923 C94.493,56.792 96.187,57.889 96.475,59.316 C97.387,63.85 90.885,67.454 92.776,70.846 C94.743,70.055 95.47,64.985 97.345,64.102 C97.474,66.164 92.682,72.17 96.04,72.586 C98.861,72.936 98.922,65.267 101.478,64.755 C100.884,67.859 98.961,69.635 98.868,73.239 C99.853,74.446 101.621,74.477 102.565,73.239 C102.468,69.733 103.832,67.689 105.176,65.625 C105.393,68.827 103.955,71.492 103.653,73.456 C104.639,75.085 106.715,74.53 107.134,74.327 C110.43,72.731 107.834,58.982 111.92,64.537 C111.92,65.335 111.92,66.133 111.92,66.93 C111.99,68.963 111.555,71.501 112.79,72.368 C113.802,72.786 115.528,72.66 116.054,71.934 C115.864,69.698 114.896,67.042 115.836,64.972 C116.856,66.87 117.548,69.701 117.359,72.152 C117.932,72.948 119.876,73.076 120.404,72.152 C119.569,70.52 118.869,67.597 119.534,65.19 C120.415,67.065 121.499,68.737 121.274,71.716 C122.04,72.457 123.747,72.971 124.538,71.934 C123.926,70.078 122.341,68.04 123.232,65.408 C124.986,66.928 124.411,71.901 127.366,71.498 C128.043,68.388 123.602,66.812 125.19,63.449 C123.7,62.184 122.476,60.653 119.752,60.621 C119.306,60.261 117.37,60.26 116.924,60.621 C115.108,60.356 113.456,61.112 111.05,60.839 C108.062,60.501 105.535,58.02 102.565,56.923 C99.725,55.874 97.088,55.982 94.952,54.313 C91.081,51.29 87.655,44.989 90.383,39.738 C90.954,38.712 91.441,37.604 91.471,36.039 C91.5,35.503 91.504,34.991 91.253,34.734 C91.263,34.435 91.151,34.257 91.036,34.082 C91.036,33.864 91.036,33.646 91.036,33.429 C90.323,33.416 90.205,32.81 89.296,32.994 C88.437,32.861 89.04,34.188 88.861,34.734 C88.861,34.879 88.861,35.024 88.861,35.169 C88.46,35.639 88.627,36.675 88.208,37.127 C88.208,37.199 88.208,37.272 88.208,37.345 C87.706,38.148 87.054,38.801 87.121,40.173 C89.005,43.625 86.599,48.113 84.075,48.439 C86.385,45.514 84.768,41.792 83.64,38.867 C83.279,38.143 83.588,37.373 83.857,36.692 C83.923,35.452 85.036,35.26 84.945,33.864 C85.101,33.273 83.919,34.02 84.075,33.429 C84.571,33.49 84.893,33.377 84.945,32.994 C80.232,32.994 76.698,34.174 72.328,34.517 C71.666,34.653 70.454,34.238 70.152,34.734 C69.5,34.734 68.847,34.734 68.194,34.734 C67.462,34.871 66.174,34.454 65.802,34.952 C63.046,34.952 60.291,34.952 57.535,34.952 C57.163,34.454 55.874,34.871 55.142,34.734 C54.271,34.734 53.401,34.734 52.531,34.734 C52.229,34.238 51.017,34.653 50.356,34.517 C47.207,34.403 44.633,34.91 42.742,35.604 C41.14,36.192 40.11,37.471 38.826,37.78 C36.721,38.286 34.593,37.71 32.953,38.432 C19.397,44.4 26.095,75.163 12.068,78.242 C7.638,79.215 2.826,76.475 2.932,71.934 C5.861,76.297 9.693,69.173 5.76,68.018 C2.694,67.117 0.779,70.001 0.756,72.152 C0.711,76.445 5.609,80.052 9.458,80.418 C9.763,80.779 11.546,80.779 11.851,80.418 C20.386,79.304 23.083,69.463 25.121,61.492 C27.337,52.821 28.766,43.241 37.303,41.913 C36.657,46.017 37.579,50.106 37.739,54.095 C37.739,55.545 37.739,56.996 37.739,58.446 z M56.012,1.015 C58.042,1.015 60.073,1.015 62.103,1.015 C66.526,1.015 70.95,1.015 75.373,1.015 C84.891,0.924 89.889,5.353 95.605,9.064 C97.042,7.032 100.23,6.946 102.783,5.583 C105.15,4.321 106.539,2.376 110.397,2.321 C111.195,2.321 111.993,2.321 112.79,2.321 C116.559,2.686 119.199,4.178 120.622,6.889 C125.796,3.766 128.227,9.542 130.846,11.022 C134.055,12.835 140.052,12.266 138.895,18.201 C142.374,19.654 144.793,20.844 145.958,24.61 C148.982,24.358 151.618,24.644 153.788,26.168 C156.971,28.402 152.782,37.887 152.749,39.074 C151.739,37.847 150.412,34.017 146.074,35.387 C144.545,39.006 141.989,41.599 137.373,42.131 C137.243,44.684 135.44,45.564 134.327,47.134 C135.336,53.652 132.672,57.412 129.758,60.621 C128.942,61.256 128.217,61.981 127.583,62.797 C127.292,62.94 127.178,63.262 127.148,63.667 C126.507,64.113 127.354,66.049 126.713,66.495 C126.443,65.823 126.176,65.146 125.625,64.755 C125.941,67.549 129.424,69.031 128.018,72.152 C127.292,72.636 126.352,72.636 125.625,72.152 C125.983,76.319 123.187,83.725 127.801,84.551 C128.247,84.912 130.183,84.912 130.629,84.551 C134.78,83.991 139.275,84.089 139.113,88.467 C138.978,89.057 139.389,90.193 138.895,90.425 C138.597,89.491 138.24,88.615 137.155,88.467 C136.482,88.447 136.506,89.124 136.502,89.772 C136.179,89.588 136.188,89.072 136.067,88.684 C133.452,89.832 131.25,88.344 129.106,88.249 C127.109,88.161 125.438,89.68 123.667,89.555 C122.57,89.477 121.542,88.349 120.404,88.249 C117.768,88.017 115.067,91.167 112.138,89.12 C111.319,89.171 111.29,90.012 111.05,90.642 C108.666,84.844 116.551,85.954 119.969,84.551 C120.936,80.789 118.492,77.506 119.316,73.892 C118.396,73.506 117.052,73.546 116.706,72.586 C111.292,76.274 110.504,68.936 110.832,64.102 C108.668,68.128 111.357,75.805 105.394,75.414 C104.126,75.331 103.507,74.129 103,74.109 C101.262,74.04 95.714,83.521 98.868,85.856 C101.417,87.745 106.594,84.339 108.439,87.161 C109.152,88.25 108.76,88.549 109.092,91.077 C108.43,91.528 107.937,89.68 106.917,89.337 C105.368,88.815 103.382,90.59 100.39,90.425 C98.31,90.31 95.925,88.912 94.299,89.12 C92.912,89.296 91.744,90.301 90.818,90.425 C88.688,90.71 87.247,89.837 85.598,89.772 C84.986,89.741 84.97,90.304 84.945,90.86 C84.633,90.592 84.533,90.112 84.51,89.555 C83.122,89.617 82.661,90.606 82.335,91.73 C81.513,88.659 82.577,85.592 85.598,85.639 C86.395,85.639 87.193,85.639 87.991,85.639 C89.46,85.658 91.507,86.284 92.559,85.421 C94.404,82.408 93.449,76.594 94.734,73.022 C94.541,72.562 94.072,72.378 94.081,71.716 C93.489,71.495 92.537,72.213 91.688,71.498 C90.962,69.156 92.102,67.424 93.211,65.408 C94.271,63.482 98.032,57.833 92.994,57.793 C90.286,57.772 87.713,62.478 82.77,63.014 C78.237,63.507 75.156,62.271 70.805,61.927 C70.106,64.954 70.046,67.987 68.412,70.194 C65.794,73.728 58.628,75.489 58.622,79.983 C58.619,82.475 62.064,85.247 64.278,85.639 C66.837,86.092 71.646,83.985 73.415,86.509 C74.387,87.896 73.768,89.335 73.851,91.512 C73.446,91.873 72.229,89.79 72.328,91.948 C72.242,90.655 70.726,90.793 69.282,90.86 C68.263,91 66.677,90.575 66.019,91.077 C62.929,90.786 59.385,91.936 56.882,90.207 C55.49,89.246 54.384,86.639 53.619,85.639 C52.244,83.842 48.811,82.341 48.398,80.636 C47.149,75.472 53.907,74.192 54.924,69.976 C45.961,72.532 30.28,71.054 29.907,81.506 C29.588,90.444 43.405,80.972 41.872,91.295 C41.903,92.225 39.997,89.979 40.349,92.165 C40.025,91.981 40.034,91.465 39.914,91.077 C34.936,90.269 30.33,92.983 27.079,90.86 C25.571,89.875 25.143,87.331 24.469,85.856 C23.751,84.287 22.137,82.522 22.076,80.853 C21.92,76.602 29.611,73.179 26.862,67.148 C27.988,64.074 32.807,65.619 34.911,63.885 C39.302,60.264 35.337,50.044 36.433,43.001 C28.972,45.32 27.996,53.902 26.209,61.057 C24.34,68.537 22.062,76.232 16.637,79.766 C11.056,83.399 2.233,80.295 0.321,74.544 C-0.833,71.074 1.139,65.873 5.978,67.148 C9.462,68.066 9.079,75.212 4.237,74.109 C5.454,76.664 9.618,78.475 13.156,76.937 C25.793,71.447 18.762,38.885 35.781,36.909 C36.724,36.909 37.666,36.909 38.609,36.909 C42.435,33.16 50.17,33.556 57.535,33.864 C59.494,34.37 62.392,33.937 64.714,34.082 C65.003,34.082 65.294,34.082 65.584,34.082 C63.005,32.672 60.392,31.297 59.492,28.207 C55.954,27.759 53.984,25.74 52.749,22.987 C49.27,22.696 47.507,20.687 46.223,18.201 C42.956,17.77 41.305,15.722 40.131,13.198 C36.968,12.735 35.272,10.805 34.041,8.411 C30.826,7.783 28.624,6.141 27.949,2.973 C35.07,1.537 43.749,1.66 51.878,1.233 C53.187,1.09 55.065,1.519 56.012,1.015" fill="#010000"/>
    </g>
    <g>
      <path d="M88.208,37.345 C88.208,37.417 88.208,37.49 88.208,37.562 C89.161,38.216 89.157,36.053 90.383,36.257 C90.451,36.915 90.142,37.949 90.818,37.997 C91.374,37.755 90.731,36.315 91.253,36.039 C91.326,36.039 91.398,36.039 91.471,36.039 C91.441,37.604 90.954,38.712 90.383,39.738 C90.33,39.066 90.163,38.508 89.948,37.997 C88.694,38.41 88.115,39.499 87.121,40.173 C87.054,38.801 87.706,38.148 88.208,37.345" fill="#AC262E"/>
      <path d="M88.861,35.169 C88.897,35.423 89.205,35.406 89.513,35.387 C89.288,36.176 88.834,36.737 88.208,37.127 C88.627,36.675 88.46,35.639 88.861,35.169" fill="#AC262E"/>
      <path d="M37.956,43.218 C39.507,43.19 39.608,44.612 40.566,45.176 C40.08,44.128 39.532,42.387 40.349,41.261 C39.68,41.204 39.371,40.788 38.826,40.608 C38.452,41.394 38.07,42.172 37.956,43.218 z M64.496,38.65 C64.971,37.82 65.773,37.316 66.889,37.127 C66.889,36.62 66.889,36.112 66.889,35.604 C66.381,35.604 65.873,35.604 65.366,35.604 C65.837,37.241 64.067,37.779 64.496,38.65 z M59.71,35.604 C59.565,35.604 59.42,35.604 59.275,35.604 C59.553,36.704 61.825,35.809 62.103,36.909 C61.409,37.52 59.752,37.169 59.057,37.78 C59.861,38.426 61.711,38.026 62.32,38.867 C61.543,40.774 59.331,42.402 59.275,44.306 C61.048,43.178 62.374,41.604 64.496,40.826 C64.989,41.783 64.748,43.474 65.584,44.089 C66.161,43.361 65.297,41.192 66.237,40.826 C67.169,41.343 66.609,43.353 67.542,43.871 C67.277,42.903 67.306,41.642 67.324,40.391 C67.298,39.763 67.443,38.966 67.107,38.65 C66.599,38.65 66.091,38.65 65.584,38.65 C65.38,38.834 65.119,40.036 65.584,40.173 C65.596,40.547 65.416,40.73 65.149,40.826 C64.813,40.509 64.957,39.711 64.931,39.085 C64.713,39.086 64.672,38.909 64.496,38.867 C63.729,39.57 62.033,41.107 63.408,39.303 C63.602,38.915 64.016,38.75 63.844,37.997 C63.336,37.997 62.828,37.997 62.32,37.997 C62.883,37.467 65.023,37.372 63.844,35.822 C63.682,35.331 62.623,35.737 62.103,35.604 C61.305,35.604 60.508,35.604 59.71,35.604 z M56.229,38.432 C56.935,37.978 57.316,37.198 58.622,37.345 C58.622,36.765 58.622,36.184 58.622,35.604 C58.187,35.604 57.752,35.604 57.317,35.604 C57.361,36.814 56.06,37.821 56.229,38.432 z M48.833,41.696 C48.959,41.313 48.57,40.417 49.051,40.391 C50.04,40.779 49.206,42.99 50.138,43.436 C50.138,41.768 50.138,40.1 50.138,38.432 C49.558,38.432 48.979,38.432 48.398,38.432 C48.264,39.023 48.674,40.159 48.181,40.391 C47.803,40.042 47.709,39.411 47.745,38.65 C46.275,38.485 46.932,40.447 45.57,40.391 C45.718,39.378 46.417,38.916 46.658,37.997 C46.07,37.342 44.968,38.805 44.265,37.997 C44.581,37.298 45.725,37.427 46.44,37.127 C46.615,36.372 46.116,36.291 46.223,35.604 C42.937,35.872 40.12,37.767 39.479,39.955 C40.507,38.734 42.094,36.917 44.047,37.345 C42.846,38.392 41.419,39.213 40.784,40.826 C42.333,40.415 42.858,38.983 44.7,38.867 C44.917,40.027 44.407,42.445 45.353,43.436 C45.34,43.569 45.32,43.694 45.135,43.653 C43.801,43.32 42.988,42.464 41.654,42.131 C41.461,42.662 41.147,43.074 41.219,43.871 C41.88,44.08 42.991,43.839 42.959,44.741 C42.063,44.912 41.843,44.408 41.001,44.523 C40.808,45.811 42.863,45.991 42.307,46.916 C41.167,46.824 41.374,45.384 39.914,45.611 C39.693,46.508 40.713,47.52 39.479,47.569 C39.418,46.833 39.133,46.32 39.261,45.394 C38.753,45.394 38.246,45.394 37.739,45.394 C37.741,46.801 37.534,50.215 38.609,51.267 C38.442,49.907 38.115,48.121 38.826,47.569 C39.707,48.357 39.49,50.241 40.349,51.05 C40.762,49.998 40.01,48.371 41.001,47.351 C42.718,48.029 44.668,49.629 46.658,49.309 C45.173,48.183 43.725,47.021 42.742,45.394 C43.809,44.828 45.367,45.278 46.223,44.959 C45.196,44.535 43.605,44.675 43.177,43.653 C44.192,43.509 44.575,43.996 45.353,44.089 C45.537,44.411 46.053,44.403 46.44,44.523 C46.391,44.355 46.434,44.095 46.223,44.089 C45.375,42.829 46.312,41.074 47.31,40.391 C47.927,41.224 48.132,42.468 48.398,43.653 C48.963,44.274 48.839,42.366 48.833,41.696 z M47.31,38.215 C47.841,37.295 48.917,36.921 50.138,36.692 C50.138,36.184 50.138,35.677 50.138,35.169 C49.486,35.169 48.833,35.169 48.181,35.169 C48.597,36.751 46.963,37.426 47.31,38.215 z M67.324,35.604 C68.067,36.094 69.951,35.443 70.37,36.257 C69.839,36.959 68.696,37.048 67.542,37.127 C67.688,38.503 70.482,37.233 70.805,38.432 C69.811,40.194 68.789,41.928 67.977,43.871 C70.002,42.922 71.099,41.047 72.98,39.955 C73.761,40.77 73.36,42.766 74.503,43.218 C74.749,42.232 73.984,40.233 74.938,39.955 C75.636,40.708 75.431,42.363 76.244,43.001 C76.05,41.236 75.719,39.609 75.591,37.78 C75.08,37.849 74.774,38.123 74.068,37.997 C73.933,38.588 74.344,39.724 73.851,39.955 C73.174,39.907 73.482,38.872 73.415,38.215 C72.13,38.023 72.036,40.163 71.24,39.738 C71.281,38.618 72.426,38.603 72.328,37.345 C71.454,37.08 70.736,37.921 70.587,37.127 C70.636,36.451 71.67,36.759 72.328,36.692 C72.196,36.171 72.015,35.699 72.11,34.952 C70.591,35.245 68.654,35.121 67.324,35.604 z M51.443,36.909 C51.154,36.909 50.864,36.909 50.573,36.909 C50.938,38.14 53.265,37.409 53.836,38.432 C52.814,40.31 51.217,41.614 50.356,43.653 C52.223,42.764 53.638,41.424 55.577,40.608 C56.238,41.324 56,42.94 56.229,44.089 C57.435,43.699 56.37,41.038 57.752,40.826 C58.105,41.778 57.926,43.262 58.405,44.089 C58.577,43.29 58.879,40.261 58.405,38.867 C57.97,38.867 57.535,38.867 57.1,38.867 C57.116,39.681 57.008,40.371 56.665,40.826 C55.708,40.664 56.952,39.428 56.229,38.867 C55.208,39.007 55.2,40.159 54.054,40.173 C54.194,39.08 55.437,39.09 55.577,37.997 C55.259,37.517 53.854,38.125 53.836,37.345 C54.197,36.98 55.114,37.171 55.794,37.127 C55.794,36.62 55.794,36.112 55.794,35.604 C54.261,35.467 52.05,34.857 50.573,35.387 C51.784,35.771 53.606,35.545 54.054,36.692 C53.909,36.692 53.764,36.692 53.619,36.692 C52.958,36.828 51.745,36.413 51.443,36.909 z M72.98,37.78 C73.471,36.965 74.184,36.372 75.373,36.257 C75.242,35.736 75.061,35.264 75.156,34.517 C74.645,34.586 74.339,34.86 73.633,34.734 C74.037,36.232 72.703,37.132 72.98,37.78 z M82.117,33.646 C82.542,35.165 81.033,35.89 81.464,36.692 C82.077,35.999 82.47,35.088 83.857,35.169 C84.011,34.362 83.485,34.236 83.64,33.429 C82.953,33.322 82.872,33.821 82.117,33.646 z M87.121,40.173 C88.115,39.499 88.694,38.41 89.948,37.997 C90.163,38.508 90.33,39.066 90.383,39.738 C87.655,44.989 91.081,51.29 94.952,54.313 C97.088,55.982 99.725,55.874 102.565,56.923 C105.535,58.02 108.062,60.501 111.05,60.839 C113.456,61.112 115.108,60.356 116.924,60.621 C117.866,60.621 118.809,60.621 119.752,60.621 C122.476,60.653 123.7,62.184 125.19,63.449 C123.602,66.812 128.043,68.388 127.366,71.498 C124.411,71.901 124.986,66.928 123.232,65.408 C122.341,68.04 123.926,70.078 124.538,71.934 C123.747,72.971 122.04,72.457 121.274,71.716 C121.499,68.737 120.415,67.065 119.534,65.19 C118.869,67.597 119.569,70.52 120.404,72.152 C119.876,73.076 117.932,72.948 117.359,72.152 C117.548,69.701 116.856,66.87 115.836,64.972 C114.896,67.042 115.864,69.698 116.054,71.934 C115.528,72.66 113.802,72.786 112.79,72.368 C111.555,71.501 111.99,68.963 111.92,66.93 C112.28,66.626 112.28,64.842 111.92,64.537 C107.834,58.982 110.43,72.731 107.134,74.327 C106.715,74.53 104.639,75.085 103.653,73.456 C103.955,71.492 105.393,68.827 105.176,65.625 C103.832,67.689 102.468,69.733 102.565,73.239 C101.621,74.477 99.853,74.446 98.868,73.239 C98.961,69.635 100.884,67.859 101.478,64.755 C98.922,65.267 98.861,72.936 96.04,72.586 C92.682,72.17 97.474,66.164 97.345,64.102 C95.47,64.985 94.743,70.055 92.776,70.846 C90.885,67.454 97.387,63.85 96.475,59.316 C96.187,57.889 94.493,56.792 92.559,56.923 C90.786,57.044 89.466,58.884 87.991,59.969 C81.34,64.861 70.381,59.286 61.233,61.057 C61.942,60.144 63.149,59.794 63.626,58.446 C64.313,56.5 63.355,53.898 64.061,51.92 C64.683,50.177 65.914,50.408 66.672,48.874 C61.338,48.043 64.593,58.828 61.015,59.751 C60.609,58.49 60.907,56.525 59.928,55.836 C59.289,59.013 60.552,59.073 60.145,62.362 C59.179,70.169 50.714,69.88 42.959,71.064 C36.866,71.993 29.299,74.299 29.037,81.506 C28.982,82.995 29.218,85.129 30.56,86.074 C33.73,88.305 41.577,83.987 41.001,90.207 C40.494,88.682 38.658,87.332 36.433,88.249 C37.388,89.253 40.583,88.016 39.914,90.642 C35.639,88.934 31.825,91.906 28.167,90.425 C26.578,89.782 25.96,87.031 25.339,85.639 C24.677,84.159 22.934,82.365 22.946,80.636 C22.972,76.858 30.525,73.262 27.732,67.148 C29.529,65.249 32.671,66.161 34.693,64.972 C36.92,63.662 37.25,61.539 37.739,58.446 C38.1,57.498 38.1,55.043 37.739,54.095 C37.579,50.106 36.657,46.017 37.303,41.913 C28.766,43.241 27.337,52.821 25.121,61.492 C23.083,69.463 20.386,79.304 11.851,80.418 C11.053,80.418 10.256,80.418 9.458,80.418 C5.609,80.052 0.711,76.445 0.756,72.152 C0.779,70.001 2.694,67.117 5.76,68.018 C9.693,69.173 5.861,76.297 2.932,71.934 C2.826,76.475 7.638,79.215 12.068,78.242 C26.095,75.163 19.397,44.4 32.953,38.432 C34.593,37.71 36.721,38.286 38.826,37.78 C40.11,37.471 41.14,36.192 42.742,35.604 C44.633,34.91 47.207,34.403 50.356,34.517 C50.657,35.012 51.87,34.598 52.531,34.734 C53.401,34.734 54.271,34.734 55.142,34.734 C55.514,35.232 56.802,34.814 57.535,34.952 C60.291,34.952 63.046,34.952 65.802,34.952 C66.534,34.814 67.822,35.232 68.194,34.734 C68.847,34.734 69.5,34.734 70.152,34.734 C70.813,34.598 72.026,35.012 72.328,34.517 C76.698,34.174 80.232,32.994 84.945,32.994 C84.893,33.377 84.571,33.49 84.075,33.429 C83.919,34.02 85.101,33.273 84.945,33.864 C85.036,35.26 83.923,35.452 83.857,36.692 C83.192,36.534 83.217,37.067 82.552,36.909 C82.417,37.5 82.828,38.636 82.335,38.867 C81.831,38.645 81.884,37.867 81.899,37.127 C80.614,36.935 80.52,39.075 79.724,38.65 C79.789,37.554 80.822,37.428 80.812,36.257 C79.89,35.973 79.088,36.92 78.854,36.039 C79.331,35.791 79.743,35.478 80.594,35.604 C80.594,35.024 80.594,34.444 80.594,33.864 C78.882,34.11 76.941,34.126 75.591,34.734 C75.892,35.23 77.105,34.815 77.766,34.952 C78.082,35.071 78.891,34.698 78.854,35.169 C78.354,36.193 76.248,35.609 75.808,36.692 C77.05,36.683 78.19,36.775 79.071,37.127 C78.872,39.467 76.723,41.012 76.896,43.001 C78.558,41.762 79.625,39.928 81.464,38.867 C82.189,39.738 81.982,41.54 82.987,42.131 C83.159,41.082 82.505,38.25 83.64,38.867 C84.768,41.792 86.385,45.514 84.075,48.439 C86.599,48.113 89.005,43.625 87.121,40.173" fill="#F0C757"/>
      <path d="M91.471,36.039 C91.398,36.039 91.326,36.039 91.253,36.039 C90.731,36.315 91.374,37.755 90.818,37.997 C90.142,37.949 90.451,36.915 90.383,36.257 C89.157,36.053 89.161,38.216 88.208,37.562 C88.208,37.49 88.208,37.417 88.208,37.345 C88.208,37.272 88.208,37.199 88.208,37.127 C88.834,36.737 89.288,36.176 89.513,35.387 C89.205,35.406 88.897,35.423 88.861,35.169 C88.861,35.024 88.861,34.879 88.861,34.734 C89.976,34.766 89.301,33.655 89.296,32.994 C90.205,32.81 90.323,33.416 91.036,33.429 C91.036,33.646 91.036,33.864 91.036,34.082 C90.963,34.082 90.891,34.082 90.818,34.082 C90.909,34.837 89.577,35.288 90.166,35.822 C90.354,35.285 90.973,35.178 91.253,34.734 C91.504,34.991 91.5,35.503 91.471,36.039" fill="#F0C757"/>
      <path d="M73.633,34.734 C74.339,34.86 74.645,34.586 75.156,34.517 C75.061,35.264 75.242,35.736 75.373,36.257 C74.184,36.372 73.471,36.965 72.98,37.78 C72.703,37.132 74.037,36.232 73.633,34.734" fill="#E08132"/>
      <path d="M48.181,35.169 C48.833,35.169 49.486,35.169 50.138,35.169 C50.138,35.677 50.138,36.184 50.138,36.692 C48.917,36.921 47.841,37.295 47.31,38.215 C46.963,37.426 48.597,36.751 48.181,35.169" fill="#E08132"/>
      <path d="M45.135,43.653 C45.32,43.694 45.34,43.569 45.353,43.436 C45.833,43.343 45.897,44.742 46.223,44.089 C46.434,44.095 46.391,44.355 46.44,44.523 C46.053,44.403 45.537,44.411 45.353,44.089 C45.767,43.902 45.118,43.959 45.135,43.653" fill="#E08132"/>
      <path d="M48.833,41.696 C48.839,42.366 48.963,44.274 48.398,43.653 C49.03,43.488 48.201,41.861 48.833,41.696" fill="#E08132"/>
      <path d="M57.317,35.604 C57.752,35.604 58.187,35.604 58.622,35.604 C58.622,36.184 58.622,36.765 58.622,37.345 C57.316,37.198 56.935,37.978 56.229,38.432 C56.06,37.821 57.361,36.814 57.317,35.604" fill="#E08132"/>
      <path d="M65.584,40.173 C65.119,40.036 65.38,38.834 65.584,38.65 C66.091,38.65 66.599,38.65 67.107,38.65 C67.443,38.966 67.298,39.763 67.324,40.391 C66.837,40.297 67.236,39.318 67.107,38.867 C66.599,38.867 66.091,38.867 65.584,38.867 C65.584,39.303 65.584,39.738 65.584,40.173" fill="#E08132"/>
      <path d="M63.408,39.303 C62.033,41.107 63.729,39.57 64.496,38.867 C63.935,39.394 63.282,40.743 62.538,40.391 C62.553,39.752 63.035,39.582 63.408,39.303" fill="#E08132"/>
    </g>
    <g>
      <path d="M62.32,37.997 C61.559,37.361 63.137,37.233 63.844,37.345 C63.844,36.837 63.844,36.329 63.844,35.822 C65.023,37.372 62.883,37.467 62.32,37.997" fill="#E08132"/>
      <path d="M51.878,1.233 C52.825,0.729 54.704,1.158 56.012,1.015 C55.065,1.519 53.187,1.09 51.878,1.233" fill="#EDD38D"/>
    </g>
    <g>
      <path d="M127.801,12.98 C126.742,12.273 125.161,11.511 123.45,12.11 C123.319,11.371 124.654,11.673 125.625,11.24 C126.74,10.743 126.741,9.756 128.018,10.805 C129.061,11.661 128.815,11.866 127.801,12.98" fill="#E08132"/>
      <path d="M136.806,26.413 C136.693,27.1 136.485,27.692 136.806,28.319 C137.326,29.055 139.244,29.027 140.236,28.699 C140.473,27.823 141.017,27.237 140.618,26.223 C139.516,25.558 137.7,25.563 136.806,26.413 z M136.774,24.507 C138.885,24.026 140.81,24.928 141.157,26.032 C142.938,31.684 133.391,31.467 134.678,26.413 C134.774,26.033 135.455,24.808 136.774,24.507" fill="#010000"/>
      <path d="M124.755,73.022 C124.489,78.703 122.874,84.915 128.018,85.639 C131.202,86.087 137.83,83.281 138.243,87.814 C136.041,87.846 134.692,83.864 132.586,86.509 C133.68,86.212 136.188,86.142 136.067,88.249 C133.777,88.253 132.027,87.892 129.976,87.597 C127.644,87.26 126.271,88.701 124.103,88.684 C122.836,88.675 121.894,87.527 120.622,87.379 C118.749,87.162 117.599,88.689 115.836,88.902 C114.183,89.101 113.176,88.115 111.703,88.249 C112.409,84.968 118.702,87.272 120.622,85.204 C122.453,81.244 118.07,75.668 121.057,72.586 C121.929,73.407 123.551,73.656 124.755,73.022" fill="#EDD38D"/>
      <path d="M100.173,74.979 C98.275,79.345 94.123,86.766 100.825,87.161 C102.921,87.285 108.084,85.286 108.004,88.902 C105.412,87.451 102.782,89.783 100.173,89.555 C98.562,89.413 97.424,88.378 96.257,88.249 C94.3,88.033 93.291,89.183 90.818,89.555 C88.925,89.839 87.038,88.643 85.163,89.337 C84.979,88.428 85.585,88.309 85.598,87.597 C86.507,86.943 87.704,87.906 88.208,87.597 C87.817,86.713 86.738,86.654 86.25,86.726 C84.945,86.922 84.626,89.197 83.205,89.12 C82.909,84.335 90.149,87.841 92.776,86.291 C96.134,84.311 93.662,77.28 95.387,73.456 C96.563,73.546 97.344,73.238 97.78,72.586 C98.299,73.663 98.728,74.828 100.173,74.979" fill="#EDD38D"/>
      <path d="M72.98,89.99 C72.546,88.297 70.479,87.157 68.194,88.032 C69.074,89.037 72.196,87.801 71.893,89.99 C70.338,90.141 68.623,89.904 66.672,89.99 C63.673,90.121 60.068,90.771 57.97,89.772 C56.119,88.891 55.196,86.194 54.271,84.986 C53.041,83.377 49.607,81.863 49.268,80.2 C48.362,75.764 55.963,73.602 56.012,69.54 C58.709,68.032 60.72,65.837 61.015,61.927 C63.578,61.362 66.658,61.458 69.5,61.709 C71.118,72.473 60.182,72.311 57.97,78.46 C56.728,81.913 61.138,85.638 63.191,86.291 C66.718,87.413 74.464,83.793 72.98,89.99" fill="#E08132"/>
      <path d="M84.51,31.471 C76.703,33.366 63.099,36.485 60.363,27.991 C64.405,27.012 69.338,26.573 74.286,27.12 C71.973,26.025 70.169,25.307 67.542,25.38 C64.441,25.465 62.342,27.834 58.622,27.12 C56.571,26.727 54.43,24.646 54.054,22.769 C58.532,21.959 63.168,20.854 67.759,22.334 C66.837,21.416 65.43,20.406 64.061,20.159 C60.609,19.535 56.823,22.079 53.619,22.116 C50.645,22.151 48.405,20.542 47.31,17.766 C51.988,17.525 56.023,16.444 61.015,17.113 C55.603,12.055 43.897,21.802 41.437,12.98 C45.838,11.389 50.576,11.783 55.794,12.327 C50.199,7.114 38.743,16.147 35.346,8.847 C41.895,8.554 48.165,5.109 54.489,7.324 C60.256,9.343 65.13,14.675 70.152,18.854 C72.641,20.925 75.117,23.035 77.549,24.945 C80.115,26.96 83.731,28.298 84.51,31.471" fill="#EDD38D"/>
      <path d="M134.678,26.413 C133.391,31.467 142.938,31.684 141.157,26.032 C140.81,24.928 138.885,24.026 136.774,24.507 C135.455,24.808 134.774,26.033 134.678,26.413 z M137.346,22.411 C140.717,22.26 142.597,23.646 142.873,26.413 C143.579,33.492 130.124,35.255 131.819,26.413 C132.242,24.208 134.208,22.551 137.346,22.411" fill="#EDD38D"/>
      <path d="M57.535,33.864 C59.856,34.008 62.754,33.576 64.714,34.082 C62.392,33.937 59.494,34.37 57.535,33.864" fill="#EDD38D"/>
      <path d="M127.148,63.667 C126.997,64.466 127.532,67.087 126.713,66.495 C127.354,66.049 126.507,64.113 127.148,63.667" fill="#EDD38D"/>
      <path d="M127.801,84.551 C128.743,84.551 129.686,84.551 130.629,84.551 C130.183,84.912 128.247,84.912 127.801,84.551" fill="#EDD38D"/>
      <path d="M66.019,91.077 C66.677,90.575 68.263,91 69.282,90.86 C68.624,91.362 67.038,90.937 66.019,91.077" fill="#EDD38D"/>
      <path d="M131.819,26.413 C130.124,35.255 143.579,33.492 142.873,26.413 C142.597,23.646 140.717,22.26 137.346,22.411 C134.208,22.551 132.242,24.208 131.819,26.413 z M136.774,21.649 C141.655,21.17 145.054,24.677 143.254,29.272 C141.977,32.533 135.876,35.305 132.391,31.559 C128.975,27.886 131.975,22.119 136.774,21.649" fill="#010000"/>
    </g>
  </g>
</svg>
