<?xml version="1.0" encoding="UTF-8"?>
<svg width="160px" height="100px" viewBox="0 0 160 100" version="1.1" xmlns="http://www.w3.org/2000/svg" xmlns:xlink="http://www.w3.org/1999/xlink">
    <!-- Generator: Sketch 49 (51002) - http://www.bohemiancoding.com/sketch -->
    <title>Logo Icon</title>
    <desc>Created with Sketch.</desc>
    <defs></defs>
    <g id="Logo-Icon" stroke="none" stroke-width="1" fill="none" fill-rule="evenodd">
        <g id="Gripsholmsskolans-icon" transform="translate(3.000000, 4.000000)" fill-rule="nonzero">
            <g id="Group" transform="translate(9.000000, 2.000000)">
                <path d="M101.397,0.321 C101.702,-0.04 103.486,-0.04 103.79,0.321 C102.993,0.321 102.195,0.321 101.397,0.321" id="Shape" fill="#EDD38D"></path>
                <path d="M46.794,0.538 C47.096,0.042 48.309,0.457 48.97,0.321 C48.668,0.816 47.456,0.402 46.794,0.538" id="Shape" fill="#AC262E"></path>
                <path d="M68.766,16.418 C67.912,15.823 67.081,15.202 65.938,14.896 C66.237,16.119 67.539,16.341 67.679,17.724 C66.356,17.523 65.773,16.583 64.633,16.201 C65.703,17.596 67.018,18.747 68.549,19.682 C68.684,19.092 69.457,19.141 69.419,18.376 C69.057,17.868 68.204,17.851 68.331,16.854 C69.27,16.858 69.132,17.937 70.071,17.941 C70.744,17.526 69.69,15.385 70.724,15.33 C70.556,16.369 71.064,16.731 70.941,17.724 C72.117,18.001 71.868,16.035 72.899,16.854 C72.597,17.493 71.837,17.677 71.812,18.594 C72.582,18.476 72.347,19.365 73.117,19.246 C74.234,17.97 75.325,16.669 76.38,15.33 C75.049,15.667 74.738,17.024 73.335,17.288 C73.512,15.87 74.686,15.449 75.075,14.243 C73.929,13.949 73.351,15.96 71.812,15.983 C71.076,14.182 71.273,11.446 70.071,10.11 C69.579,12.155 69.881,14.996 68.766,16.418 Z M62.24,10.762 C61.404,10.22 60.609,9.638 59.412,9.457 C59.692,10.699 61.089,10.826 61.37,12.068 C60.442,12.412 59.486,11.106 58.324,10.98 C59.343,12.209 60.665,13.135 62.022,14.025 C62.158,13.436 62.931,13.484 62.893,12.72 C62.69,12.141 61.318,12.011 62.022,11.198 C62.622,11.438 63.164,12.508 63.763,12.068 C63.981,11.344 63.281,9.701 64.198,9.675 C64.127,10.689 64.368,11.39 64.633,12.068 C65.482,11.975 65.23,10.78 66.373,10.98 C66.369,11.919 65.29,11.782 65.286,12.72 C65.669,12.917 65.959,13.207 66.156,13.59 C67.779,12.676 68.796,11.155 69.854,9.675 C68.656,9.97 67.967,11.79 66.808,11.415 C67.174,10.186 68.182,9.599 68.549,8.369 C67.129,8.691 66.821,10.122 65.286,10.327 C64.651,8.206 64.335,5.767 63.11,4.236 C62.584,5.31 63.564,8.982 62.24,10.762 Z M50.057,3.148 C53.135,3.117 55.217,4.079 55.714,6.629 C55.062,6.921 54.248,7.048 54.191,7.934 C55.915,7.611 54.772,9.065 55.278,9.675 C56.457,9.911 56.252,8.763 56.584,8.152 C56.205,7.951 55.416,8.159 55.496,7.499 C55.966,7.009 56.238,7.68 57.019,7.499 C57.19,6.24 56.195,6.148 56.366,4.889 C57.22,5.196 57.184,6.392 57.672,7.064 C58.651,7.029 58.112,5.474 59.194,5.541 C59.411,6.628 58.519,6.606 58.542,7.499 C59.169,7.597 59.222,8.269 60.064,8.152 C60.516,6.499 62.594,5.318 62.457,3.801 C61.678,4.515 60.808,6.154 59.847,5.976 C59.994,4.673 60.732,3.962 60.935,2.713 C59.317,2.836 59.53,4.789 58.107,5.106 C56.887,2.909 52.506,0.92 50.057,3.148 Z M48.97,0.321 C55.485,0.532 61.658,0.034 67.244,0.321 C75.682,0.753 80.826,4.818 85.952,8.152 C85.277,9.959 85.603,12.11 86.169,13.808 C83.098,14.665 78.558,13.852 77.903,16.636 C77.352,18.981 80.22,19.58 78.773,21.422 C78.7,21.422 78.628,21.422 78.556,21.422 C77.707,19.733 77.65,17.251 76.598,15.766 C76.152,17.569 76.087,19.752 75.945,21.857 C74.976,22.11 73.765,20.893 72.682,20.552 C72.178,21.677 75.087,22.298 74.422,23.597 C73.365,23.132 72.452,22.522 71.377,22.074 C72.394,23.45 73.927,24.31 75.293,25.337 C75.251,25.514 75.074,25.555 75.075,25.773 C69.604,22.567 65.052,18.092 59.629,13.59 C54.701,9.499 48.384,3.192 40.486,3.366 C34.603,3.496 23.565,8.168 20.689,1.843 C29.088,1.105 37.717,0.598 46.794,0.538 C47.456,0.402 48.668,0.816 48.97,0.321 Z" id="Shape" fill="#E08132"></path>
                <path d="M58.107,5.106 C59.53,4.789 59.317,2.836 60.935,2.713 C60.732,3.962 59.994,4.673 59.847,5.976 C60.808,6.154 61.678,4.515 62.457,3.801 C62.594,5.318 60.516,6.499 60.064,8.152 C59.222,8.269 59.169,7.597 58.542,7.499 C58.519,6.606 59.411,6.628 59.194,5.541 C58.112,5.474 58.651,7.029 57.672,7.064 C57.184,6.392 57.22,5.196 56.366,4.889 C56.195,6.148 57.19,6.24 57.019,7.499 C56.238,7.68 55.966,7.009 55.496,7.499 C55.416,8.159 56.205,7.951 56.584,8.152 C56.252,8.763 56.457,9.911 55.278,9.675 C54.772,9.065 55.915,7.611 54.191,7.934 C54.248,7.048 55.062,6.921 55.714,6.629 C55.217,4.079 53.135,3.117 50.057,3.148 C52.506,0.92 56.887,2.909 58.107,5.106" id="Shape" fill="#AC262E"></path>
                <path d="M63.11,4.236 C64.335,5.767 64.651,8.206 65.286,10.327 C66.821,10.122 67.129,8.691 68.549,8.369 C68.182,9.599 67.174,10.186 66.808,11.415 C67.967,11.79 68.656,9.97 69.854,9.675 C68.796,11.155 67.779,12.676 66.156,13.59 C65.959,13.207 65.669,12.917 65.286,12.72 C65.29,11.782 66.369,11.919 66.373,10.98 C65.23,10.78 65.482,11.975 64.633,12.068 C64.368,11.39 64.127,10.689 64.198,9.675 C63.281,9.701 63.981,11.344 63.763,12.068 C63.164,12.508 62.622,11.438 62.022,11.198 C61.318,12.011 62.69,12.141 62.893,12.72 C62.931,13.484 62.158,13.436 62.022,14.025 C60.665,13.135 59.343,12.209 58.324,10.98 C59.486,11.106 60.442,12.412 61.37,12.068 C61.089,10.826 59.692,10.699 59.412,9.457 C60.609,9.638 61.404,10.22 62.24,10.762 C63.564,8.982 62.584,5.31 63.11,4.236" id="Shape" fill="#AC262E"></path>
                <path d="M70.071,10.11 C71.273,11.446 71.076,14.182 71.812,15.983 C73.351,15.96 73.929,13.949 75.075,14.243 C74.686,15.449 73.512,15.87 73.335,17.288 C74.738,17.024 75.049,15.667 76.38,15.33 C75.325,16.669 74.234,17.97 73.117,19.246 C72.347,19.365 72.582,18.476 71.812,18.594 C71.837,17.677 72.597,17.493 72.899,16.854 C71.868,16.035 72.117,18.001 70.941,17.724 C71.064,16.731 70.556,16.369 70.724,15.33 C69.69,15.385 70.744,17.526 70.071,17.941 C69.132,17.937 69.27,16.858 68.331,16.854 C68.204,17.851 69.057,17.868 69.419,18.376 C69.457,19.141 68.684,19.092 68.549,19.682 C67.018,18.747 65.703,17.596 64.633,16.201 C65.773,16.583 66.356,17.523 67.679,17.724 C67.539,16.341 66.237,16.119 65.938,14.896 C67.081,15.202 67.912,15.823 68.766,16.418 C69.881,14.996 69.579,12.155 70.071,10.11" id="Shape" fill="#AC262E"></path>
                <path d="M78.556,21.422 C78.359,21.805 78.069,22.095 77.685,22.292 C77.323,22.002 77.612,21.059 77.25,20.769 C76.478,20.907 77.314,21.991 77.033,22.945 C76.936,23.138 76.841,23.334 76.598,23.38 C76.079,23.17 75.639,22.227 75.075,22.727 C75.164,23.364 75.819,23.433 76.163,23.815 C75.96,24.41 75.495,24.742 75.293,25.337 C73.927,24.31 72.394,23.45 71.377,22.074 C72.452,22.522 73.365,23.132 74.422,23.597 C75.087,22.298 72.178,21.677 72.682,20.552 C73.765,20.893 74.976,22.11 75.945,21.857 C76.087,19.752 76.152,17.569 76.598,15.766 C77.65,17.251 77.707,19.733 78.556,21.422" id="Shape" fill="#AC262E"></path>
                <path d="M90.085,23.815 C88.454,21.385 84.432,21.346 83.341,18.376 C85.83,17.964 89.374,17.449 91.173,17.071 C92.37,19.337 90.962,22.229 90.085,23.815" id="Shape" fill="#AC262E"></path>
                <path d="M108.576,17.506 C109.812,17.866 110.725,18.548 111.839,19.029 C113.202,21.699 110.107,23.792 109.664,26.861 C109.296,29.405 110.614,31.42 110.316,33.604 C110.044,35.605 107.636,37.302 107.271,39.478 C106.92,41.566 108.068,43.262 108.141,45.351 C108.285,49.485 105.122,51.953 104.661,55.141 C104.174,55.235 104.572,56.213 104.443,56.663 C103.999,56.6 104.017,56.075 103.573,56.011 C101.875,52.473 105.274,50.495 105.749,47.309 C106.214,44.18 104.112,41.824 104.443,38.826 C104.687,36.611 107.183,34.839 107.489,32.517 C107.741,30.596 106.75,28.609 106.836,26.861 C106.998,23.566 110.333,20.808 108.576,17.506" id="Shape" fill="#E08132"></path>
                <path d="M77.685,22.292 C77.564,22.605 77.346,22.823 77.033,22.945 C77.314,21.991 76.478,20.907 77.25,20.769 C77.612,21.059 77.323,22.002 77.685,22.292" id="Shape" fill="#E08132"></path>
                <path d="M82.471,22.292 C82.113,24.477 78.709,24.66 78.338,27.078 C78.036,29.045 79.274,31.533 78.773,33.822 C78.531,34.926 77.412,35.88 77.25,36.867 C76.854,39.293 78.682,41.361 77.468,43.394 C77.994,40.616 75.382,38.829 75.51,35.997 C75.575,34.552 76.912,33.386 77.033,31.864 C77.203,29.711 75.509,27.986 75.945,25.991 C76.452,23.668 79.68,23.044 80.296,20.987 C81.053,21.389 81.765,21.838 82.471,22.292" id="Shape" fill="#E08132"></path>
                <path d="M76.598,23.38 C76.501,23.574 76.406,23.769 76.163,23.815 C75.819,23.433 75.164,23.364 75.075,22.727 C75.639,22.227 76.079,23.17 76.598,23.38" id="Shape" fill="#E08132"></path>
                <path d="M80.513,25.773 C81.333,24.997 82.535,24.604 82.906,23.38 C83.521,24.293 82.295,25.228 82.253,26.207 C81.547,26.19 80.915,26.095 80.513,25.773" id="Shape" fill="#E08132"></path>
                <path d="M84.429,23.815 C85.147,24.329 85.706,25.004 86.387,25.555 C84.772,28.043 86.789,31.032 86.822,33.822 C86.88,38.766 81.64,43.5 84.864,49.05 C84.021,49.213 83.239,47.75 82.688,46.657 C81.921,45.129 81.136,43.378 81.383,41.218 C81.707,38.389 83.742,36.983 83.559,33.604 C83.513,32.752 83.03,32.024 82.906,30.994 C82.506,27.654 83.534,25.667 84.429,23.815" id="Shape" fill="#E08132"></path>
                <path d="M80.513,25.773 C80.915,26.095 81.547,26.19 82.253,26.207 C81.825,26.359 82.307,27.422 81.818,27.513 C81.422,26.894 80.623,26.678 80.078,26.207 C80.175,26.014 80.27,25.819 80.513,25.773" id="Shape" fill="#AC262E"></path>
                <path d="M80.078,26.207 C80.623,26.678 81.422,26.894 81.818,27.513 C81.818,27.731 81.818,27.949 81.818,28.165 C80.782,28.187 80.194,27.76 79.426,27.513 C79.426,27.441 79.426,27.368 79.426,27.295 C79.498,26.788 79.648,26.358 80.078,26.207" id="Shape" fill="#E08132"></path>
                <path d="M87.04,26.207 C87.325,26.285 87.382,26.591 87.692,26.643 C88.607,27.909 88.183,29.021 88.345,30.341 C88.729,33.486 90.5,36.523 90.52,39.913 C90.539,43.116 88.339,45.775 88.562,48.615 C88.714,50.551 90.09,51.821 90.738,52.966 C86.719,52.366 84.626,49.154 84.646,44.481 C84.663,41.061 87.847,37.389 87.475,32.952 C87.322,31.139 85.773,28.491 87.04,26.207" id="Shape" fill="#AC262E"></path>
                <path d="M128.59,25.62 C129.099,26.915 128.405,27.664 128.104,28.784 C126.836,29.201 124.386,29.236 123.723,28.297 C123.313,27.495 123.579,26.741 123.723,25.864 C124.865,24.778 127.183,24.772 128.59,25.62" id="Shape" fill="#E08132"></path>
                <path d="M79.208,27.949 C80.198,28.191 80.856,28.766 81.818,29.036 C81.818,29.253 81.818,29.471 81.818,29.689 C80.733,29.324 79.361,29.245 79.208,27.949" id="Shape" fill="#E08132"></path>
                <path d="M80.296,30.994 C80.301,31.655 80.976,32.766 79.861,32.734 C80.04,32.188 79.437,30.861 80.296,30.994" id="Shape" fill="#AC262E"></path>
                <path d="M74.64,31.429 C74.485,32.236 75.011,32.362 74.857,33.169 C73.47,33.088 73.077,33.999 72.464,34.692 C72.033,33.89 73.542,33.165 73.117,31.646 C73.872,31.821 73.953,31.322 74.64,31.429" id="Shape" fill="#E08132"></path>
                <path d="M66.591,32.734 C67.941,32.126 69.882,32.11 71.594,31.864 C71.594,32.444 71.594,33.024 71.594,33.604 C70.743,33.478 70.331,33.791 69.854,34.039 C70.088,34.92 70.89,33.973 71.812,34.257 C71.822,35.428 70.789,35.554 70.724,36.65 C71.52,37.075 71.614,34.935 72.899,35.127 C72.884,35.867 72.831,36.645 73.335,36.867 C73.828,36.636 73.417,35.5 73.552,34.909 C74.217,35.067 74.192,34.534 74.857,34.692 C74.588,35.373 74.279,36.143 74.64,36.867 C73.505,36.25 74.159,39.082 73.987,40.131 C72.982,39.54 73.189,37.738 72.464,36.867 C70.625,37.928 69.558,39.762 67.896,41.001 C67.723,39.012 69.872,37.467 70.071,35.127 C69.19,34.775 68.05,34.683 66.808,34.692 C67.248,33.609 69.354,34.193 69.854,33.169 C69.891,32.698 69.082,33.071 68.766,32.952 C68.465,32.455 67.252,32.87 66.591,32.734" id="Shape" fill="#AC262E"></path>
                <path d="M82.036,32.082 C82.151,32.257 82.263,32.435 82.253,32.734 C81.973,33.178 81.354,33.285 81.166,33.822 C80.577,33.288 81.909,32.837 81.818,32.082 C81.891,32.082 81.963,32.082 82.036,32.082" id="Shape" fill="#E08132"></path>
                <path d="M41.356,32.517 C42.017,32.653 43.229,32.238 43.531,32.734 C42.87,32.598 41.657,33.012 41.356,32.517" id="Shape" fill="#E08132"></path>
                <path d="M61.152,32.734 C61.454,32.238 62.666,32.653 63.328,32.517 C63.026,33.012 61.813,32.598 61.152,32.734" id="Shape" fill="#E08132"></path>
                <path d="M46.142,32.734 C46.874,32.871 48.163,32.454 48.535,32.952 C47.802,32.814 46.514,33.232 46.142,32.734" id="Shape" fill="#E08132"></path>
                <path d="M56.802,32.952 C57.174,32.454 58.462,32.871 59.194,32.734 C58.822,33.232 57.534,32.814 56.802,32.952" id="Shape" fill="#E08132"></path>
                <path d="M66.591,32.734 C67.252,32.87 68.465,32.455 68.766,32.952 C68.105,32.815 66.892,33.23 66.591,32.734" id="Shape" fill="#E08132"></path>
                <path d="M63.11,32.952 C63.015,33.699 63.196,34.171 63.328,34.692 C62.67,34.759 61.636,34.451 61.587,35.127 C61.736,35.921 62.454,35.08 63.328,35.345 C63.426,36.603 62.281,36.618 62.24,37.738 C63.036,38.163 63.13,36.023 64.415,36.215 C64.482,36.872 64.174,37.907 64.851,37.955 C65.344,37.724 64.933,36.588 65.068,35.997 C65.774,36.123 66.08,35.849 66.591,35.78 C66.719,37.609 67.05,39.236 67.244,41.001 C66.431,40.363 66.636,38.708 65.938,37.955 C64.984,38.233 65.749,40.232 65.503,41.218 C64.36,40.766 64.761,38.77 63.98,37.955 C62.099,39.047 61.002,40.922 58.977,41.871 C59.789,39.928 60.811,38.194 61.805,36.432 C61.482,35.233 58.688,36.503 58.542,35.127 C59.696,35.048 60.839,34.959 61.37,34.257 C60.951,33.443 59.067,34.094 58.324,33.604 C59.654,33.121 61.591,33.245 63.11,32.952" id="Shape" fill="#AC262E"></path>
                <path d="M44.619,34.692 C44.764,34.692 44.909,34.692 45.054,34.692 C44.606,33.545 42.784,33.771 41.573,33.387 C43.05,32.857 45.261,33.467 46.794,33.604 C46.794,34.112 46.794,34.62 46.794,35.127 C46.114,35.171 45.197,34.98 44.836,35.345 C44.854,36.125 46.259,35.517 46.577,35.997 C46.437,37.09 45.194,37.08 45.054,38.173 C46.2,38.159 46.208,37.007 47.229,36.867 C47.952,37.428 46.708,38.664 47.665,38.826 C48.008,38.371 48.116,37.681 48.1,36.867 C48.535,36.867 48.97,36.867 49.405,36.867 C49.879,38.261 49.577,41.29 49.405,42.089 C48.926,41.262 49.105,39.778 48.752,38.826 C47.37,39.038 48.435,41.699 47.229,42.089 C47,40.94 47.238,39.324 46.577,38.608 C44.638,39.424 43.223,40.764 41.356,41.653 C42.217,39.614 43.814,38.31 44.836,36.432 C44.265,35.409 41.938,36.14 41.573,34.909 C41.864,34.909 42.154,34.909 42.443,34.909 C43.105,34.773 44.317,35.188 44.619,34.692" id="Shape" fill="#AC262E"></path>
                <path d="M36.353,41.436 C35.407,40.445 35.917,38.027 35.7,36.867 C33.858,36.983 33.333,38.415 31.784,38.826 C32.419,37.213 33.846,36.392 35.047,35.345 C33.094,34.917 31.507,36.734 30.479,37.955 C31.12,35.767 33.937,33.872 37.223,33.604 C37.116,34.291 37.615,34.372 37.44,35.127 C36.725,35.427 35.581,35.298 35.265,35.997 C35.968,36.805 37.07,35.342 37.658,35.997 C37.417,36.916 36.718,37.378 36.57,38.391 C37.932,38.447 37.275,36.485 38.745,36.65 C38.709,37.411 38.803,38.042 39.181,38.391 C39.674,38.159 39.264,37.023 39.398,36.432 C39.979,36.432 40.558,36.432 41.138,36.432 C41.138,38.1 41.138,39.768 41.138,41.436 C40.206,40.99 41.04,38.779 40.051,38.391 C39.57,38.417 39.959,39.313 39.833,39.696 C39.201,39.861 40.03,41.488 39.398,41.653 C39.132,40.468 38.927,39.224 38.31,38.391 C37.312,39.074 36.375,40.829 37.223,42.089 C36.897,42.742 36.833,41.343 36.353,41.436" id="Shape" fill="#AC262E"></path>
                <path d="M58.324,38.391 C58.306,39.642 58.277,40.903 58.542,41.871 C57.609,41.353 58.169,39.343 57.237,38.826 C56.297,39.192 57.161,41.361 56.584,42.089 C55.748,41.474 55.989,39.783 55.496,38.826 C53.374,39.604 52.048,41.178 50.275,42.306 C50.331,40.402 52.543,38.774 53.32,36.867 C52.711,36.026 50.861,36.426 50.057,35.78 C50.752,35.169 52.409,35.52 53.103,34.909 C52.825,33.809 50.553,34.704 50.275,33.604 C50.42,33.604 50.565,33.604 50.71,33.604 C51.015,33.965 52.798,33.965 53.103,33.604 C53.623,33.737 54.682,33.331 54.844,33.822 C54.844,34.329 54.844,34.837 54.844,35.345 C54.137,35.233 52.559,35.361 53.32,35.997 C53.828,35.997 54.336,35.997 54.844,35.997 C55.016,36.75 54.602,36.915 54.408,37.303 C54.035,37.582 53.553,37.752 53.538,38.391 C54.282,38.743 54.935,37.394 55.496,36.867 C55.672,36.909 55.713,37.086 55.931,37.085 C55.957,37.711 55.813,38.509 56.149,38.826 C56.416,38.73 56.596,38.547 56.584,38.173 C56.584,37.738 56.584,37.303 56.584,36.867 C57.091,36.867 57.599,36.867 58.107,36.867 C58.236,37.318 57.837,38.297 58.324,38.391" id="Shape" fill="#AC262E"></path>
                <path d="M50.71,33.604 C51.508,33.604 52.305,33.604 53.103,33.604 C52.798,33.965 51.015,33.965 50.71,33.604" id="Shape" fill="#E08132"></path>
                <path d="M56.366,33.604 C56.873,33.604 57.381,33.604 57.889,33.604 C57.889,34.112 57.889,34.62 57.889,35.127 C56.773,35.316 55.971,35.82 55.496,36.65 C55.067,35.779 56.837,35.241 56.366,33.604" id="Shape" fill="#E08132"></path>
                <path d="M26.781,34.909 C27.227,34.549 29.163,34.549 29.609,34.909 C28.666,34.909 27.724,34.909 26.781,34.909" id="Shape" fill="#EDD38D"></path>
                <path d="M42.443,34.909 C42.745,34.413 43.958,34.828 44.619,34.692 C44.317,35.188 43.105,34.773 42.443,34.909" id="Shape" fill="#E08132"></path>
                <path d="M114.015,44.699 C113.47,41.628 112.023,36.513 115.103,35.127 C114.715,36.168 116.969,36.775 117.061,37.738 C117.116,38.33 115.832,39.586 115.755,40.348 C115.494,42.939 117.083,45.196 116.625,47.527 C115.857,51.439 110.691,52.666 110.969,57.098 C107.217,53.399 113.763,50.701 114.015,46.874 C114.375,46.64 114.375,44.933 114.015,44.699" id="Shape" fill="#E08132"></path>
                <path d="M121.629,39.913 C118.901,41.964 121.223,46.755 120.758,50.355 C120.227,54.477 116.804,55.605 116.408,59.709 C115.104,58.547 113.417,57.769 111.622,57.098 C112.167,52.195 117.17,51.207 117.496,46.439 C117.666,43.943 115.344,40.124 117.496,38.173 C118.82,38.806 119.767,39.817 121.629,39.913" id="Shape" fill="#AC262E"></path>
                <path d="M29.826,38.608 C30.371,38.788 30.68,39.204 31.349,39.261 C30.532,40.387 31.08,42.128 31.566,43.176 C30.608,42.612 30.507,41.19 28.956,41.218 C29.07,40.172 29.452,39.394 29.826,38.608" id="Shape" fill="#E08132"></path>
                <path d="M36.353,42.089 C35.575,41.996 35.192,41.509 34.177,41.653 C34.605,42.675 36.196,42.535 37.223,42.959 C36.367,43.278 34.809,42.828 33.742,43.394 C34.725,45.021 36.173,46.183 37.658,47.309 C35.668,47.629 33.718,46.029 32.001,45.351 C31.01,46.371 31.762,47.998 31.349,49.05 C30.49,48.241 30.707,46.357 29.826,45.569 C29.115,46.121 29.442,47.907 29.609,49.267 C28.534,48.215 28.741,44.801 28.739,43.394 C29.246,43.394 29.753,43.394 30.261,43.394 C30.133,44.32 30.418,44.833 30.479,45.569 C31.713,45.52 30.693,44.508 30.914,43.611 C32.374,43.384 32.167,44.824 33.307,44.916 C33.863,43.991 31.808,43.811 32.001,42.523 C32.843,42.408 33.063,42.912 33.959,42.741 C33.991,41.839 32.88,42.08 32.219,41.871 C32.147,41.074 32.461,40.662 32.654,40.131 C33.988,40.464 34.801,41.32 36.135,41.653 C36.118,41.959 36.767,41.902 36.353,42.089" id="Shape" fill="#AC262E"></path>
                <path d="M124.239,49.702 C123.61,54.73 119.959,57.894 117.496,60.362 C116.178,57.887 118.604,56.695 119.671,55.141 C120.723,53.609 121.602,51.38 121.629,49.05 C121.665,45.905 119.601,41.679 122.716,40.348 C123.079,40.348 123.442,40.348 123.804,40.348 C124.179,40.709 126.039,40.709 126.415,40.348 C126.632,40.348 126.85,40.348 127.067,40.348 C127.136,43.028 124.618,43.12 124.457,45.569 C123.953,46.516 124.381,48.395 124.239,49.702" id="Shape" fill="#E08132"></path>
                <path d="M123.804,40.348 C124.674,40.348 125.544,40.348 126.415,40.348 C126.039,40.709 124.179,40.709 123.804,40.348" id="Shape" fill="#AC262E"></path>
                <path d="M114.015,44.699 C114.375,44.933 114.375,46.64 114.015,46.874 C114.015,46.149 114.015,45.424 114.015,44.699" id="Shape" fill="#AC262E"></path>
                <path d="M124.457,45.569 C124.314,46.877 124.743,48.756 124.239,49.702 C124.381,48.395 123.953,46.516 124.457,45.569" id="Shape" fill="#AC262E"></path>
                <path d="M28.739,52.095 C29.1,53.043 29.1,55.498 28.739,56.446 C28.739,54.996 28.739,53.545 28.739,52.095" id="Shape" fill="#E08132"></path>
                <path d="M107.924,58.621 C108.37,58.26 110.306,58.261 110.752,58.621 C109.809,58.621 108.866,58.621 107.924,58.621" id="Shape" fill="#E08132"></path>
                <path d="M102.92,62.537 C103.28,62.842 103.28,64.626 102.92,64.93 C102.92,64.133 102.92,63.335 102.92,62.537" id="Shape" fill="#E08132"></path>
                <path d="M0.458,78.418 C1.256,78.418 2.053,78.418 2.851,78.418 C2.546,78.779 0.763,78.779 0.458,78.418" id="Shape" fill="#E08132"></path>
                <path d="M76.598,83.639 C76.902,83.278 78.686,83.278 78.991,83.639 C78.193,83.639 77.395,83.639 76.598,83.639" id="Shape" fill="#EDD38D"></path>
                <path d="M130.113,86.467 C130.513,86.602 130.498,89.292 129.895,88.425 C130.389,88.193 129.978,87.057 130.113,86.467" id="Shape" fill="#EDD38D"></path>
                <path d="M118.583,60.797 C119.217,59.981 119.942,59.256 120.758,58.621 C120.125,59.438 119.399,60.163 118.583,60.797" id="Shape" fill="#EDD38D"></path>
                <path d="M119.018,8.805 C117.741,7.756 117.74,8.743 116.625,9.24 C115.654,9.673 114.319,9.371 114.45,10.11 C116.161,9.511 117.742,10.273 118.801,10.98 C119.815,9.866 120.061,9.661 119.018,8.805 Z M105.966,2.713 C105.427,3.916 103.733,3.962 103.138,5.106 C105.08,3.978 106.805,5.239 107.924,6.194 C108.308,5.998 108.559,5.669 109.011,5.541 C108.533,4.062 107.395,3.243 105.966,2.713 Z M95.523,4.236 C95.219,4.584 94.774,4.792 94.218,4.889 C94.491,6.055 94.795,6.855 94.436,8.152 C95.21,7.404 95.589,6.26 96.394,5.541 C96.079,5.132 96.074,4.411 95.523,4.236 Z M128.155,15.983 C127.836,13.91 126.66,12.693 125.327,11.633 C124.581,12.554 123.118,12.76 122.281,13.59 C124.082,13.263 126.166,14.081 126.415,15.983 C116.718,15.83 111.754,24.409 114.667,34.039 C109.745,37.044 114.697,42.835 113.362,47.527 C112.46,50.694 107.077,52.665 109.664,56.881 C108.473,57.114 106.512,57.582 105.313,57.098 C104.803,52.91 109.402,49.665 108.794,44.481 C108.618,42.985 107.743,41.727 107.924,40.131 C108.178,37.887 110.574,36.204 110.969,34.257 C111.469,31.79 110.119,29.797 110.316,27.513 C110.568,24.603 114.795,20.447 111.839,19.029 C110.725,18.548 109.812,17.866 108.576,17.506 C108.055,17.593 108.697,16.516 107.924,16.854 C107.708,18.447 108.45,20.15 108.141,21.64 C107.789,23.333 106.399,24.412 106.184,25.773 C105.878,27.696 106.969,29.354 106.836,31.864 C106.718,34.083 104.234,35.767 103.79,37.955 C103.25,40.619 105.482,43.608 105.096,46.874 C104.607,50.994 99.982,54.479 103.79,57.533 C100.696,57.656 99.101,56.277 97.046,55.358 C99.675,53.677 101.289,51.91 101.615,49.05 C101.979,45.852 99.737,42.812 100.092,39.478 C100.326,37.275 103.133,34.077 103.355,31.211 C103.738,26.264 98.531,20.152 103.355,17.941 C103.294,17.437 102.774,17.441 102.485,17.724 C102.765,16.795 101.461,15.752 100.962,14.896 C100.22,13.032 96.768,15.887 96.394,17.941 C95.508,22.806 99.31,26.809 98.787,31.429 C98.408,34.772 96.071,37.005 96.611,41.871 C97.143,46.655 100.162,51.854 95.741,54.488 C93.628,54.245 91.705,51.919 91.825,48.832 C91.897,46.988 94.193,44.246 94.653,40.783 C95.217,36.545 91.981,32.155 93.13,28.383 C93.591,26.874 94.645,25.794 95.088,24.467 C95.566,23.039 96.006,21.454 95.958,19.682 C95.913,17.979 93.818,10.798 93.565,13.59 C93.017,13.105 92.594,14.066 91.825,14.025 C91.646,13.41 92.132,13.462 92.043,12.938 C92.426,12.885 92.539,12.564 92.478,12.068 C90.538,12.23 89.398,13.193 87.475,13.373 C85.095,7.07 90.38,6.877 94.871,4.236 C99.458,1.538 106.934,-0.194 110.534,5.324 C110.818,5.837 110.626,6.827 110.969,7.282 C111.772,6.672 113.454,4.721 116.408,5.759 C117.723,6.221 119.357,9.252 121.411,10.327 C124.62,12.007 130.408,11.72 128.155,15.983 Z" id="Shape" fill="#AC262E"></path>
                <path d="M92.043,12.938 C92.132,13.462 91.646,13.41 91.825,14.025 C92.594,14.066 93.017,13.105 93.565,13.59 C94.33,16.011 95.279,17.541 95.306,19.899 C95.361,24.726 91.631,26.423 92.26,31.864 C92.603,34.822 94.142,36.98 94,39.696 C93.806,43.462 89.153,48.533 92.26,52.748 C90.801,52.177 89.247,50.56 89.215,48.18 C89.189,46.261 90.866,43.925 91.173,41.218 C91.671,36.829 88.831,32.024 88.998,28.819 C89.254,23.866 95.875,18.452 90.085,14.678 C89.377,15.45 90.526,15.684 90.52,16.418 C88.324,17.63 83.78,16.494 82.471,18.594 C83.564,21.779 88.001,21.62 89.433,24.467 C89.44,25.418 88.831,25.752 88.78,26.643 C86.847,23 81.703,21.889 79.426,19.029 C76.882,15.834 81.227,15.563 84.864,14.896 C87.839,14.35 90.058,13.735 92.043,12.938" id="Shape" fill="#E08132"></path>
                <path d="M103.573,56.011 C104.017,56.075 103.999,56.6 104.443,56.663 C104.572,56.213 104.174,55.235 104.661,55.141 C104.661,55.721 104.661,56.301 104.661,56.881 C104.022,56.867 103.853,56.384 103.573,56.011" id="Shape" fill="#AC262E"></path>
                <path d="M126.415,15.983 C126.166,14.081 124.082,13.263 122.281,13.59 C123.118,12.76 124.581,12.554 125.327,11.633 C126.66,12.693 127.836,13.91 128.155,15.983 C127.575,15.983 126.995,15.983 126.415,15.983" id="Shape" fill="#E08132"></path>
                <path d="M96.394,5.541 C95.589,6.26 95.21,7.404 94.436,8.152 C94.795,6.855 94.491,6.055 94.218,4.889 C94.774,4.792 95.219,4.584 95.523,4.236 C96.074,4.411 96.079,5.132 96.394,5.541" id="Shape" fill="#E08132"></path>
                <path d="M109.011,5.541 C108.559,5.669 108.308,5.998 107.924,6.194 C106.805,5.239 105.08,3.978 103.138,5.106 C103.733,3.962 105.427,3.916 105.966,2.713 C107.395,3.243 108.533,4.062 109.011,5.541" id="Shape" fill="#E08132"></path>
                <path d="M102.485,17.724 C97.869,20.15 102.73,25.757 102.703,30.559 C102.685,33.682 99.845,36.188 99.439,38.826 C98.93,42.141 101.061,45.124 100.962,48.18 C100.876,50.848 99.621,52.5 97.481,54.271 C97.665,53.265 98.89,51.562 99.004,49.92 C99.214,46.908 96.888,43.134 97.264,38.826 C97.546,35.594 99.948,33.149 99.439,28.819 C98.911,24.317 93.569,15.708 100.962,14.896 C101.461,15.752 102.765,16.795 102.485,17.724" id="Shape" fill="#E08132"></path>
                <path d="M137.484,32.16 C137.41,32.137 137.321,32.114 137.21,32.088 C137.012,32.043 136.184,32.036 136.204,31.646 C135.812,39.304 122.315,41.47 117.496,36.432 C115.27,34.106 114.89,30.5 115.103,27.731 C115.3,25.151 115.761,22.721 117.388,20.627 C120.411,16.734 127.179,16.032 131.482,17.851 C133.372,18.651 135.37,20.423 136.377,22.229 C138.147,25.401 140.923,21.952 143.403,23.908 C144.647,24.889 145.205,25.994 145.479,27.541 C145.605,28.249 145.513,28.841 145.49,29.549 C145.433,29.561 145.376,29.513 145.326,29.524 C145.193,30.558 144.883,31.183 144.474,32.133 C144.257,32.635 144.217,33.232 144.14,33.77 C144.115,33.938 144.12,35.568 143.596,35.129 C143.445,35.003 143.354,34.848 143.193,34.709 C142.73,34.311 142.209,33.968 141.684,33.66 C141.451,33.524 141.228,33.353 140.966,33.281 C140.673,33.2 140.342,33.199 140.041,33.168 C139.386,33.1 138.75,32.985 138.199,32.601 C137.841,32.352 137.794,32.257 137.484,32.16" id="Shape" fill="#F0C757"></path>
            </g>
            <g id="Clipped" transform="translate(0.000000, 1.000000)">
                <g id="Group">
                    <path d="M88.426,28.295 C88.426,28.368 88.426,28.441 88.426,28.513 C89.194,28.76 89.782,29.187 90.818,29.165 C90.818,29.456 90.818,29.746 90.818,30.036 C89.856,29.766 89.198,29.191 88.208,28.949 C88.689,28.635 87.934,28.417 88.426,28.295" id="Shape" fill="#AC262E"></path>
                    <path d="M121.057,71.586 C118.07,74.668 122.453,80.244 120.622,84.204 C118.702,86.272 112.409,83.968 111.703,87.249 C113.176,87.115 114.183,88.101 115.836,87.902 C117.599,87.689 118.749,86.162 120.622,86.379 C121.894,86.527 122.836,87.675 124.103,87.684 C126.271,87.701 127.644,86.26 129.976,86.597 C132.027,86.892 133.777,87.253 136.067,87.249 C136.188,85.142 133.68,85.212 132.586,85.509 C134.692,82.864 136.041,86.846 138.243,86.814 C137.83,82.281 131.202,85.087 128.018,84.639 C122.874,83.915 124.489,77.703 124.755,72.022 C123.551,72.656 121.929,72.407 121.057,71.586 Z M97.78,71.586 C97.344,72.238 96.563,72.546 95.387,72.456 C93.662,76.28 96.134,83.311 92.776,85.291 C90.149,86.841 82.909,83.335 83.205,88.12 C84.626,88.197 84.945,85.922 86.25,85.726 C86.738,85.654 87.817,85.713 88.208,86.597 C87.704,86.906 86.507,85.943 85.598,86.597 C85.585,87.309 84.979,87.428 85.163,88.337 C87.038,87.643 88.925,88.839 90.818,88.555 C93.291,88.183 94.3,87.033 96.257,87.249 C97.424,87.378 98.562,88.413 100.173,88.555 C102.782,88.783 105.412,86.451 108.004,87.902 C108.084,84.286 102.921,86.285 100.825,86.161 C94.123,85.766 98.275,78.345 100.173,73.979 C98.728,73.828 98.299,72.663 97.78,71.586 Z M63.191,85.291 C61.138,84.638 56.728,80.913 57.97,77.46 C60.182,71.311 71.118,71.473 69.5,60.709 C66.658,60.458 63.578,60.362 61.015,60.927 C60.72,64.837 58.709,67.032 56.012,68.54 C55.963,72.602 48.362,74.764 49.268,79.2 C49.607,80.863 53.041,82.377 54.271,83.986 C55.196,85.194 56.119,87.891 57.97,88.772 C60.068,89.771 63.673,89.121 66.672,88.99 C68.623,88.904 70.338,89.141 71.893,88.99 C72.196,86.801 69.074,88.037 68.194,87.032 C70.479,86.157 72.546,87.297 72.98,88.99 C74.464,82.793 66.718,86.413 63.191,85.291 Z M132.804,41.348 C132.442,41.348 132.079,41.348 131.716,41.348 C128.601,42.679 130.665,46.905 130.629,50.05 C130.602,52.38 129.723,54.609 128.671,56.141 C127.604,57.695 125.178,58.887 126.496,61.362 C128.959,58.894 132.61,55.73 133.239,50.702 C133.743,49.756 133.314,47.877 133.457,46.569 C133.618,44.12 136.136,44.028 136.067,41.348 C135.85,41.348 135.632,41.348 135.415,41.348 C134.544,41.348 133.674,41.348 132.804,41.348 Z M126.496,39.173 C124.344,41.124 126.666,44.943 126.496,47.439 C126.17,52.207 121.167,53.195 120.622,58.098 C122.417,58.769 124.104,59.547 125.408,60.709 C125.804,56.605 129.227,55.477 129.758,51.355 C130.223,47.755 127.901,42.964 130.629,40.913 C128.767,40.817 127.82,39.806 126.496,39.173 Z M123.015,47.874 C122.763,51.701 116.217,54.399 119.969,58.098 C119.691,53.666 124.857,52.439 125.625,48.527 C126.083,46.196 124.494,43.939 124.755,41.348 C124.832,40.586 126.116,39.33 126.061,38.738 C125.969,37.775 123.715,37.168 124.103,36.127 C121.023,37.513 122.47,42.628 123.015,45.699 C123.015,46.424 123.015,47.149 123.015,47.874 Z M96.475,33.952 C96.847,38.389 93.663,42.061 93.646,45.481 C93.626,50.154 95.719,53.366 99.738,53.966 C99.09,52.821 97.714,51.551 97.562,49.615 C97.339,46.775 99.539,44.116 99.52,40.913 C99.5,37.523 97.729,34.486 97.345,31.341 C97.183,30.021 97.607,28.909 96.692,27.643 C96.382,27.591 96.325,27.285 96.04,27.207 C94.773,29.491 96.322,32.139 96.475,33.952 Z M91.906,31.994 C92.03,33.024 92.513,33.752 92.559,34.604 C92.742,37.983 90.707,39.389 90.383,42.218 C90.136,44.378 90.921,46.129 91.688,47.657 C92.239,48.75 93.021,50.213 93.864,50.05 C90.64,44.5 95.88,39.766 95.822,34.822 C95.789,32.032 93.772,29.043 95.387,26.555 C94.706,26.004 94.147,25.329 93.429,24.815 C92.534,26.667 91.506,28.654 91.906,31.994 Z M91.253,27.207 C91.295,26.228 92.521,25.293 91.906,24.38 C91.535,25.604 90.333,25.997 89.513,26.773 C89.27,26.819 89.175,27.014 89.078,27.207 C88.648,27.358 88.498,27.788 88.426,28.295 C87.934,28.417 88.689,28.635 88.208,28.949 C88.361,30.245 89.733,30.324 90.818,30.689 C90.818,30.471 90.818,30.253 90.818,30.036 C90.818,29.746 90.818,29.456 90.818,29.165 C90.818,28.949 90.818,28.731 90.818,28.513 C91.307,28.422 90.825,27.359 91.253,27.207 Z M89.296,21.987 C88.68,24.044 85.452,24.668 84.945,26.991 C84.509,28.986 86.203,30.711 86.033,32.864 C85.912,34.386 84.575,35.552 84.51,36.997 C84.382,39.829 86.994,41.616 86.468,44.394 C87.682,42.361 85.854,40.293 86.25,37.867 C86.412,36.88 87.531,35.926 87.773,34.822 C88.274,32.533 87.036,30.045 87.338,28.078 C87.709,25.66 91.113,25.477 91.471,23.292 C90.765,22.838 90.053,22.389 89.296,21.987 Z M152.371,35.751 C152.313,35.668 152.712,34.586 152.756,34.453 C152.975,33.793 151.538,32.499 150.209,32.076 C146.832,31.002 146.494,30.872 146.595,29.568 C147.147,30.63 150.791,31.218 152.217,32.297 C152.841,32.768 153.058,32.974 153.167,33.207 C153.186,32.998 153.196,33.157 153.244,32.952 C153.598,31.425 153.835,30.372 153.823,28.795 C153.815,27.834 153.613,26.827 152.881,26.149 C152.282,25.594 151.458,25.338 150.667,25.206 C149.814,25.063 148.939,25.062 148.08,25.153 C147.853,25.177 145.415,25.59 145.429,25.649 C144.263,20.775 141.568,18.834 136.938,18.288 C129.264,17.386 124.563,22.73 124.103,28.731 C123.89,31.5 124.27,35.106 126.496,37.432 C131.315,42.47 144.812,40.304 145.204,32.646 C145.404,33.026 145.884,33.126 146.509,33.082 C149.071,32.366 150.896,33.63 152.371,35.751 Z M100.173,18.071 C98.374,18.449 94.83,18.964 92.341,19.376 C93.432,22.346 97.454,22.385 99.085,24.815 C99.962,23.229 101.37,20.337 100.173,18.071 Z M77.549,23.945 C75.117,22.035 72.641,19.925 70.152,17.854 C65.13,13.675 60.256,8.343 54.489,6.324 C48.165,4.109 41.895,7.554 35.346,7.847 C38.743,15.147 50.199,6.114 55.794,11.327 C50.576,10.783 45.838,10.389 41.437,11.98 C43.897,20.802 55.603,11.055 61.015,16.113 C56.023,15.444 51.988,16.525 47.31,16.766 C48.405,19.542 50.645,21.151 53.619,21.116 C56.823,21.079 60.609,18.535 64.061,19.159 C65.43,19.406 66.837,20.416 67.759,21.334 C63.168,19.854 58.532,20.959 54.054,21.769 C54.43,23.646 56.571,25.727 58.622,26.12 C62.342,26.834 64.441,24.465 67.542,24.38 C70.169,24.307 71.973,25.025 74.286,26.12 C69.338,25.573 64.405,26.012 60.363,26.991 C63.099,35.485 76.703,32.366 84.51,30.471 C83.731,27.298 80.115,25.96 77.549,23.945 Z M137.155,16.983 C139.408,12.72 133.62,13.007 130.411,11.327 C128.357,10.252 126.723,7.221 125.408,6.759 C122.454,5.721 120.772,7.672 119.969,8.282 C119.626,7.827 119.818,6.837 119.534,6.324 C115.934,0.806 108.458,2.538 103.871,5.236 C99.38,7.877 94.095,8.07 96.475,14.373 C98.398,14.193 99.538,13.23 101.478,13.068 C101.539,13.564 101.426,13.885 101.043,13.938 C99.058,14.735 96.839,15.35 93.864,15.896 C90.227,16.563 85.882,16.834 88.426,20.029 C90.703,22.889 95.847,24 97.78,27.643 C97.831,26.752 98.44,26.418 98.433,25.467 C97.001,22.62 92.564,22.779 91.471,19.594 C92.78,17.494 97.324,18.63 99.52,17.418 C99.526,16.684 98.377,16.45 99.085,15.678 C104.875,19.452 98.254,24.866 97.998,29.819 C97.831,33.024 100.671,37.829 100.173,42.218 C99.866,44.925 98.189,47.261 98.215,49.18 C98.247,51.56 99.801,53.177 101.26,53.748 C98.153,49.533 102.806,44.462 103,40.696 C103.142,37.98 101.603,35.822 101.26,32.864 C100.631,27.423 104.361,25.726 104.306,20.899 C104.279,18.541 103.33,17.011 102.565,14.59 C102.818,11.798 104.913,18.979 104.958,20.682 C105.006,22.454 104.566,24.039 104.088,25.467 C103.645,26.794 102.591,27.874 102.13,29.383 C100.981,33.155 104.217,37.545 103.653,41.783 C103.193,45.246 100.897,47.988 100.825,49.832 C100.705,52.919 102.628,55.245 104.741,55.488 C109.162,52.854 106.143,47.655 105.611,42.871 C105.071,38.005 107.408,35.772 107.787,32.429 C108.31,27.809 104.508,23.806 105.394,18.941 C105.768,16.887 109.22,14.032 109.962,15.896 C102.569,16.708 107.911,25.317 108.439,29.819 C108.948,34.149 106.546,36.594 106.264,39.826 C105.888,44.134 108.214,47.908 108.004,50.92 C107.89,52.562 106.665,54.265 106.481,55.271 C108.621,53.5 109.876,51.848 109.962,49.18 C110.061,46.124 107.93,43.141 108.439,39.826 C108.845,37.188 111.685,34.682 111.703,31.559 C111.73,26.757 106.869,21.15 111.485,18.724 C111.774,18.441 112.294,18.437 112.355,18.941 C107.531,21.152 112.738,27.264 112.355,32.211 C112.133,35.077 109.326,38.275 109.092,40.478 C108.737,43.812 110.979,46.852 110.615,50.05 C110.289,52.91 108.675,54.677 106.046,56.358 C108.101,57.277 109.696,58.656 112.79,58.533 C108.982,55.479 113.607,51.994 114.096,47.874 C114.482,44.608 112.25,41.619 112.79,38.955 C113.234,36.767 115.718,35.083 115.836,32.864 C115.969,30.354 114.878,28.696 115.184,26.773 C115.399,25.412 116.789,24.333 117.141,22.64 C117.45,21.15 116.708,19.447 116.924,17.854 C117.697,17.516 117.055,18.593 117.576,18.506 C119.333,21.808 115.998,24.566 115.836,27.861 C115.75,29.609 116.741,31.596 116.489,33.517 C116.183,35.839 113.687,37.611 113.443,39.826 C113.112,42.824 115.214,45.18 114.749,48.309 C114.274,51.495 110.875,53.473 112.573,57.011 C112.853,57.384 113.022,57.867 113.661,57.881 C113.661,57.301 113.661,56.721 113.661,56.141 C114.122,52.953 117.285,50.485 117.141,46.351 C117.068,44.262 115.92,42.566 116.271,40.478 C116.636,38.302 119.044,36.605 119.316,34.604 C119.614,32.42 118.296,30.405 118.664,27.861 C119.107,24.792 122.202,22.699 120.839,20.029 C123.795,21.447 119.568,25.603 119.316,28.513 C119.119,30.797 120.469,32.79 119.969,35.257 C119.574,37.204 117.178,38.887 116.924,41.131 C116.743,42.727 117.618,43.985 117.794,45.481 C118.402,50.665 113.803,53.91 114.313,58.098 C115.512,58.582 117.473,58.114 118.664,57.881 C116.077,53.665 121.46,51.694 122.362,48.527 C123.697,43.835 118.745,38.044 123.667,35.039 C120.754,25.409 125.718,16.83 135.415,16.983 C135.995,16.983 136.575,16.983 137.155,16.983 Z M55.794,1.538 C46.717,1.598 38.088,2.105 29.689,2.843 C32.565,9.168 43.603,4.496 49.486,4.366 C57.384,4.192 63.701,10.499 68.629,14.59 C74.052,19.092 78.604,23.567 84.075,26.773 C84.074,26.555 84.251,26.514 84.293,26.337 C84.495,25.742 84.96,25.41 85.163,24.815 C85.406,24.769 85.501,24.574 85.598,24.38 C85.841,24.334 85.936,24.138 86.033,23.945 C86.346,23.823 86.564,23.605 86.685,23.292 C87.069,23.095 87.359,22.805 87.556,22.422 C87.628,22.422 87.7,22.422 87.773,22.422 C89.22,20.58 86.352,19.981 86.903,17.636 C87.558,14.852 92.098,15.665 95.169,14.808 C94.603,13.11 94.277,10.959 94.952,9.152 C89.826,5.818 84.682,1.753 76.244,1.321 C70.658,1.034 64.485,1.532 57.97,1.321 C57.309,1.457 56.096,1.042 55.794,1.538 Z M37.739,57.446 C37.25,60.539 36.92,62.662 34.693,63.972 C32.671,65.161 29.529,64.249 27.732,66.148 C30.525,72.262 22.972,75.858 22.946,79.636 C22.934,81.365 24.677,83.159 25.339,84.639 C25.96,86.031 26.578,88.782 28.167,89.425 C31.825,90.906 35.639,87.934 39.914,89.642 C40.583,87.016 37.388,88.253 36.433,87.249 C38.658,86.332 40.494,87.682 41.001,89.207 C41.577,82.987 33.73,87.305 30.56,85.074 C29.218,84.129 28.982,81.995 29.037,80.506 C29.299,73.299 36.866,70.993 42.959,70.064 C50.714,68.88 59.179,69.169 60.145,61.362 C60.552,58.073 59.289,58.013 59.928,54.836 C60.907,55.525 60.609,57.49 61.015,58.751 C64.593,57.828 61.338,47.043 66.672,47.874 C65.914,49.408 64.683,49.177 64.061,50.92 C63.355,52.898 64.313,55.5 63.626,57.446 C63.149,58.794 61.942,59.144 61.233,60.057 C70.381,58.286 81.34,63.861 87.991,58.969 C89.466,57.884 90.786,56.044 92.559,55.923 C94.493,55.792 96.187,56.889 96.475,58.316 C97.387,62.85 90.885,66.454 92.776,69.846 C94.743,69.055 95.47,63.985 97.345,63.102 C97.474,65.164 92.682,71.17 96.04,71.586 C98.861,71.936 98.922,64.267 101.478,63.755 C100.884,66.859 98.961,68.635 98.868,72.239 C99.853,73.446 101.621,73.477 102.565,72.239 C102.468,68.733 103.832,66.689 105.176,64.625 C105.393,67.827 103.955,70.492 103.653,72.456 C104.639,74.085 106.715,73.53 107.134,73.327 C110.43,71.731 107.834,57.982 111.92,63.537 C111.92,64.335 111.92,65.133 111.92,65.93 C111.99,67.963 111.555,70.501 112.79,71.368 C113.802,71.786 115.528,71.66 116.054,70.934 C115.864,68.698 114.896,66.042 115.836,63.972 C116.856,65.87 117.548,68.701 117.359,71.152 C117.932,71.948 119.876,72.076 120.404,71.152 C119.569,69.52 118.869,66.597 119.534,64.19 C120.415,66.065 121.499,67.737 121.274,70.716 C122.04,71.457 123.747,71.971 124.538,70.934 C123.926,69.078 122.341,67.04 123.232,64.408 C124.986,65.928 124.411,70.901 127.366,70.498 C128.043,67.388 123.602,65.812 125.19,62.449 C123.7,61.184 122.476,59.653 119.752,59.621 C119.306,59.261 117.37,59.26 116.924,59.621 C115.108,59.356 113.456,60.112 111.05,59.839 C108.062,59.501 105.535,57.02 102.565,55.923 C99.725,54.874 97.088,54.982 94.952,53.313 C91.081,50.29 87.655,43.989 90.383,38.738 C90.954,37.712 91.441,36.604 91.471,35.039 C91.5,34.503 91.504,33.991 91.253,33.734 C91.263,33.435 91.151,33.257 91.036,33.082 C91.036,32.864 91.036,32.646 91.036,32.429 C90.323,32.416 90.205,31.81 89.296,31.994 C88.437,31.861 89.04,33.188 88.861,33.734 C88.861,33.879 88.861,34.024 88.861,34.169 C88.46,34.639 88.627,35.675 88.208,36.127 C88.208,36.199 88.208,36.272 88.208,36.345 C87.706,37.148 87.054,37.801 87.121,39.173 C89.005,42.625 86.599,47.113 84.075,47.439 C86.385,44.514 84.768,40.792 83.64,37.867 C83.279,37.143 83.588,36.373 83.857,35.692 C83.923,34.452 85.036,34.26 84.945,32.864 C85.101,32.273 83.919,33.02 84.075,32.429 C84.571,32.49 84.893,32.377 84.945,31.994 C80.232,31.994 76.698,33.174 72.328,33.517 C71.666,33.653 70.454,33.238 70.152,33.734 C69.5,33.734 68.847,33.734 68.194,33.734 C67.462,33.871 66.174,33.454 65.802,33.952 C63.046,33.952 60.291,33.952 57.535,33.952 C57.163,33.454 55.874,33.871 55.142,33.734 C54.271,33.734 53.401,33.734 52.531,33.734 C52.229,33.238 51.017,33.653 50.356,33.517 C47.207,33.403 44.633,33.91 42.742,34.604 C41.14,35.192 40.11,36.471 38.826,36.78 C36.721,37.286 34.593,36.71 32.953,37.432 C19.397,43.4 26.095,74.163 12.068,77.242 C7.638,78.215 2.826,75.475 2.932,70.934 C5.861,75.297 9.693,68.173 5.76,67.018 C2.694,66.117 0.779,69.001 0.756,71.152 C0.711,75.445 5.609,79.052 9.458,79.418 C9.763,79.779 11.546,79.779 11.851,79.418 C20.386,78.304 23.083,68.463 25.121,60.492 C27.337,51.821 28.766,42.241 37.303,40.913 C36.657,45.017 37.579,49.106 37.739,53.095 C37.739,54.545 37.739,55.996 37.739,57.446 Z M56.012,0.015 C58.042,0.015 60.073,0.015 62.103,0.015 C66.526,0.015 70.95,0.015 75.373,0.015 C84.891,-0.076 89.889,4.353 95.605,8.064 C97.042,6.032 100.23,5.946 102.783,4.583 C105.15,3.321 106.539,1.376 110.397,1.321 C111.195,1.321 111.993,1.321 112.79,1.321 C116.559,1.686 119.199,3.178 120.622,5.889 C125.796,2.766 128.227,8.542 130.846,10.022 C134.055,11.835 140.052,11.266 138.895,17.201 C142.374,18.654 144.793,19.844 145.958,23.61 C148.982,23.358 151.618,23.644 153.788,25.168 C156.971,27.402 152.782,36.887 152.749,38.074 C151.739,36.847 150.412,33.017 146.074,34.387 C144.545,38.006 141.989,40.599 137.373,41.131 C137.243,43.684 135.44,44.564 134.327,46.134 C135.336,52.652 132.672,56.412 129.758,59.621 C128.942,60.256 128.217,60.981 127.583,61.797 C127.292,61.94 127.178,62.262 127.148,62.667 C126.507,63.113 127.354,65.049 126.713,65.495 C126.443,64.823 126.176,64.146 125.625,63.755 C125.941,66.549 129.424,68.031 128.018,71.152 C127.292,71.636 126.352,71.636 125.625,71.152 C125.983,75.319 123.187,82.725 127.801,83.551 C128.247,83.912 130.183,83.912 130.629,83.551 C134.78,82.991 139.275,83.089 139.113,87.467 C138.978,88.057 139.389,89.193 138.895,89.425 C138.597,88.491 138.24,87.615 137.155,87.467 C136.482,87.447 136.506,88.124 136.502,88.772 C136.179,88.588 136.188,88.072 136.067,87.684 C133.452,88.832 131.25,87.344 129.106,87.249 C127.109,87.161 125.438,88.68 123.667,88.555 C122.57,88.477 121.542,87.349 120.404,87.249 C117.768,87.017 115.067,90.167 112.138,88.12 C111.319,88.171 111.29,89.012 111.05,89.642 C108.666,83.844 116.551,84.954 119.969,83.551 C120.936,79.789 118.492,76.506 119.316,72.892 C118.396,72.506 117.052,72.546 116.706,71.586 C111.292,75.274 110.504,67.936 110.832,63.102 C108.668,67.128 111.357,74.805 105.394,74.414 C104.126,74.331 103.507,73.129 103,73.109 C101.262,73.04 95.714,82.521 98.868,84.856 C101.417,86.745 106.594,83.339 108.439,86.161 C109.152,87.25 108.76,87.549 109.092,90.077 C108.43,90.528 107.937,88.68 106.917,88.337 C105.368,87.815 103.382,89.59 100.39,89.425 C98.31,89.31 95.925,87.912 94.299,88.12 C92.912,88.296 91.744,89.301 90.818,89.425 C88.688,89.71 87.247,88.837 85.598,88.772 C84.986,88.741 84.97,89.304 84.945,89.86 C84.633,89.592 84.533,89.112 84.51,88.555 C83.122,88.617 82.661,89.606 82.335,90.73 C81.513,87.659 82.577,84.592 85.598,84.639 C86.395,84.639 87.193,84.639 87.991,84.639 C89.46,84.658 91.507,85.284 92.559,84.421 C94.404,81.408 93.449,75.594 94.734,72.022 C94.541,71.562 94.072,71.378 94.081,70.716 C93.489,70.495 92.537,71.213 91.688,70.498 C90.962,68.156 92.102,66.424 93.211,64.408 C94.271,62.482 98.032,56.833 92.994,56.793 C90.286,56.772 87.713,61.478 82.77,62.014 C78.237,62.507 75.156,61.271 70.805,60.927 C70.106,63.954 70.046,66.987 68.412,69.194 C65.794,72.728 58.628,74.489 58.622,78.983 C58.619,81.475 62.064,84.247 64.278,84.639 C66.837,85.092 71.646,82.985 73.415,85.509 C74.387,86.896 73.768,88.335 73.851,90.512 C73.446,90.873 72.229,88.79 72.328,90.948 C72.242,89.655 70.726,89.793 69.282,89.86 C68.263,90 66.677,89.575 66.019,90.077 C62.929,89.786 59.385,90.936 56.882,89.207 C55.49,88.246 54.384,85.639 53.619,84.639 C52.244,82.842 48.811,81.341 48.398,79.636 C47.149,74.472 53.907,73.192 54.924,68.976 C45.961,71.532 30.28,70.054 29.907,80.506 C29.588,89.444 43.405,79.972 41.872,90.295 C41.903,91.225 39.997,88.979 40.349,91.165 C40.025,90.981 40.034,90.465 39.914,90.077 C34.936,89.269 30.33,91.983 27.079,89.86 C25.571,88.875 25.143,86.331 24.469,84.856 C23.751,83.287 22.137,81.522 22.076,79.853 C21.92,75.602 29.611,72.179 26.862,66.148 C27.988,63.074 32.807,64.619 34.911,62.885 C39.302,59.264 35.337,49.044 36.433,42.001 C28.972,44.32 27.996,52.902 26.209,60.057 C24.34,67.537 22.062,75.232 16.637,78.766 C11.056,82.399 2.233,79.295 0.321,73.544 C-0.833,70.074 1.139,64.873 5.978,66.148 C9.462,67.066 9.079,74.212 4.237,73.109 C5.454,75.664 9.618,77.475 13.156,75.937 C25.793,70.447 18.762,37.885 35.781,35.909 C36.724,35.909 37.666,35.909 38.609,35.909 C42.435,32.16 50.17,32.556 57.535,32.864 C59.494,33.37 62.392,32.937 64.714,33.082 C65.003,33.082 65.294,33.082 65.584,33.082 C63.005,31.672 60.392,30.297 59.492,27.207 C55.954,26.759 53.984,24.74 52.749,21.987 C49.27,21.696 47.507,19.687 46.223,17.201 C42.956,16.77 41.305,14.722 40.131,12.198 C36.968,11.735 35.272,9.805 34.041,7.411 C30.826,6.783 28.624,5.141 27.949,1.973 C35.07,0.537 43.749,0.66 51.878,0.233 C53.187,0.09 55.065,0.519 56.012,0.015 Z" id="Shape" fill="#010000"></path>
                </g>
            </g>
            <g id="Group" transform="translate(0.000000, 32.000000)">
                <path d="M88.208,5.345 C88.208,5.417 88.208,5.49 88.208,5.562 C89.161,6.216 89.157,4.053 90.383,4.257 C90.451,4.915 90.142,5.949 90.818,5.997 C91.374,5.755 90.731,4.315 91.253,4.039 C91.326,4.039 91.398,4.039 91.471,4.039 C91.441,5.604 90.954,6.712 90.383,7.738 C90.33,7.066 90.163,6.508 89.948,5.997 C88.694,6.41 88.115,7.499 87.121,8.173 C87.054,6.801 87.706,6.148 88.208,5.345" id="Shape" fill="#AC262E"></path>
                <path d="M88.861,3.169 C88.897,3.423 89.205,3.406 89.513,3.387 C89.288,4.176 88.834,4.737 88.208,5.127 C88.627,4.675 88.46,3.639 88.861,3.169" id="Shape" fill="#AC262E"></path>
                <path d="M37.956,11.218 C39.507,11.19 39.608,12.612 40.566,13.176 C40.08,12.128 39.532,10.387 40.349,9.261 C39.68,9.204 39.371,8.788 38.826,8.608 C38.452,9.394 38.07,10.172 37.956,11.218 Z M64.496,6.65 C64.971,5.82 65.773,5.316 66.889,5.127 C66.889,4.62 66.889,4.112 66.889,3.604 C66.381,3.604 65.873,3.604 65.366,3.604 C65.837,5.241 64.067,5.779 64.496,6.65 Z M59.71,3.604 C59.565,3.604 59.42,3.604 59.275,3.604 C59.553,4.704 61.825,3.809 62.103,4.909 C61.409,5.52 59.752,5.169 59.057,5.78 C59.861,6.426 61.711,6.026 62.32,6.867 C61.543,8.774 59.331,10.402 59.275,12.306 C61.048,11.178 62.374,9.604 64.496,8.826 C64.989,9.783 64.748,11.474 65.584,12.089 C66.161,11.361 65.297,9.192 66.237,8.826 C67.169,9.343 66.609,11.353 67.542,11.871 C67.277,10.903 67.306,9.642 67.324,8.391 C67.298,7.763 67.443,6.966 67.107,6.65 C66.599,6.65 66.091,6.65 65.584,6.65 C65.38,6.834 65.119,8.036 65.584,8.173 C65.596,8.547 65.416,8.73 65.149,8.826 C64.813,8.509 64.957,7.711 64.931,7.085 C64.713,7.086 64.672,6.909 64.496,6.867 C63.729,7.57 62.033,9.107 63.408,7.303 C63.602,6.915 64.016,6.75 63.844,5.997 C63.336,5.997 62.828,5.997 62.32,5.997 C62.883,5.467 65.023,5.372 63.844,3.822 C63.682,3.331 62.623,3.737 62.103,3.604 C61.305,3.604 60.508,3.604 59.71,3.604 Z M56.229,6.432 C56.935,5.978 57.316,5.198 58.622,5.345 C58.622,4.765 58.622,4.184 58.622,3.604 C58.187,3.604 57.752,3.604 57.317,3.604 C57.361,4.814 56.06,5.821 56.229,6.432 Z M48.833,9.696 C48.959,9.313 48.57,8.417 49.051,8.391 C50.04,8.779 49.206,10.99 50.138,11.436 C50.138,9.768 50.138,8.1 50.138,6.432 C49.558,6.432 48.979,6.432 48.398,6.432 C48.264,7.023 48.674,8.159 48.181,8.391 C47.803,8.042 47.709,7.411 47.745,6.65 C46.275,6.485 46.932,8.447 45.57,8.391 C45.718,7.378 46.417,6.916 46.658,5.997 C46.07,5.342 44.968,6.805 44.265,5.997 C44.581,5.298 45.725,5.427 46.44,5.127 C46.615,4.372 46.116,4.291 46.223,3.604 C42.937,3.872 40.12,5.767 39.479,7.955 C40.507,6.734 42.094,4.917 44.047,5.345 C42.846,6.392 41.419,7.213 40.784,8.826 C42.333,8.415 42.858,6.983 44.7,6.867 C44.917,8.027 44.407,10.445 45.353,11.436 C45.34,11.569 45.32,11.694 45.135,11.653 C43.801,11.32 42.988,10.464 41.654,10.131 C41.461,10.662 41.147,11.074 41.219,11.871 C41.88,12.08 42.991,11.839 42.959,12.741 C42.063,12.912 41.843,12.408 41.001,12.523 C40.808,13.811 42.863,13.991 42.307,14.916 C41.167,14.824 41.374,13.384 39.914,13.611 C39.693,14.508 40.713,15.52 39.479,15.569 C39.418,14.833 39.133,14.32 39.261,13.394 C38.753,13.394 38.246,13.394 37.739,13.394 C37.741,14.801 37.534,18.215 38.609,19.267 C38.442,17.907 38.115,16.121 38.826,15.569 C39.707,16.357 39.49,18.241 40.349,19.05 C40.762,17.998 40.01,16.371 41.001,15.351 C42.718,16.029 44.668,17.629 46.658,17.309 C45.173,16.183 43.725,15.021 42.742,13.394 C43.809,12.828 45.367,13.278 46.223,12.959 C45.196,12.535 43.605,12.675 43.177,11.653 C44.192,11.509 44.575,11.996 45.353,12.089 C45.537,12.411 46.053,12.403 46.44,12.523 C46.391,12.355 46.434,12.095 46.223,12.089 C45.375,10.829 46.312,9.074 47.31,8.391 C47.927,9.224 48.132,10.468 48.398,11.653 C48.963,12.274 48.839,10.366 48.833,9.696 Z M47.31,6.215 C47.841,5.295 48.917,4.921 50.138,4.692 C50.138,4.184 50.138,3.677 50.138,3.169 C49.486,3.169 48.833,3.169 48.181,3.169 C48.597,4.751 46.963,5.426 47.31,6.215 Z M67.324,3.604 C68.067,4.094 69.951,3.443 70.37,4.257 C69.839,4.959 68.696,5.048 67.542,5.127 C67.688,6.503 70.482,5.233 70.805,6.432 C69.811,8.194 68.789,9.928 67.977,11.871 C70.002,10.922 71.099,9.047 72.98,7.955 C73.761,8.77 73.36,10.766 74.503,11.218 C74.749,10.232 73.984,8.233 74.938,7.955 C75.636,8.708 75.431,10.363 76.244,11.001 C76.05,9.236 75.719,7.609 75.591,5.78 C75.08,5.849 74.774,6.123 74.068,5.997 C73.933,6.588 74.344,7.724 73.851,7.955 C73.174,7.907 73.482,6.872 73.415,6.215 C72.13,6.023 72.036,8.163 71.24,7.738 C71.281,6.618 72.426,6.603 72.328,5.345 C71.454,5.08 70.736,5.921 70.587,5.127 C70.636,4.451 71.67,4.759 72.328,4.692 C72.196,4.171 72.015,3.699 72.11,2.952 C70.591,3.245 68.654,3.121 67.324,3.604 Z M51.443,4.909 C51.154,4.909 50.864,4.909 50.573,4.909 C50.938,6.14 53.265,5.409 53.836,6.432 C52.814,8.31 51.217,9.614 50.356,11.653 C52.223,10.764 53.638,9.424 55.577,8.608 C56.238,9.324 56,10.94 56.229,12.089 C57.435,11.699 56.37,9.038 57.752,8.826 C58.105,9.778 57.926,11.262 58.405,12.089 C58.577,11.29 58.879,8.261 58.405,6.867 C57.97,6.867 57.535,6.867 57.1,6.867 C57.116,7.681 57.008,8.371 56.665,8.826 C55.708,8.664 56.952,7.428 56.229,6.867 C55.208,7.007 55.2,8.159 54.054,8.173 C54.194,7.08 55.437,7.09 55.577,5.997 C55.259,5.517 53.854,6.125 53.836,5.345 C54.197,4.98 55.114,5.171 55.794,5.127 C55.794,4.62 55.794,4.112 55.794,3.604 C54.261,3.467 52.05,2.857 50.573,3.387 C51.784,3.771 53.606,3.545 54.054,4.692 C53.909,4.692 53.764,4.692 53.619,4.692 C52.958,4.828 51.745,4.413 51.443,4.909 Z M72.98,5.78 C73.471,4.965 74.184,4.372 75.373,4.257 C75.242,3.736 75.061,3.264 75.156,2.517 C74.645,2.586 74.339,2.86 73.633,2.734 C74.037,4.232 72.703,5.132 72.98,5.78 Z M82.117,1.646 C82.542,3.165 81.033,3.89 81.464,4.692 C82.077,3.999 82.47,3.088 83.857,3.169 C84.011,2.362 83.485,2.236 83.64,1.429 C82.953,1.322 82.872,1.821 82.117,1.646 Z M87.121,8.173 C88.115,7.499 88.694,6.41 89.948,5.997 C90.163,6.508 90.33,7.066 90.383,7.738 C87.655,12.989 91.081,19.29 94.952,22.313 C97.088,23.982 99.725,23.874 102.565,24.923 C105.535,26.02 108.062,28.501 111.05,28.839 C113.456,29.112 115.108,28.356 116.924,28.621 C117.866,28.621 118.809,28.621 119.752,28.621 C122.476,28.653 123.7,30.184 125.19,31.449 C123.602,34.812 128.043,36.388 127.366,39.498 C124.411,39.901 124.986,34.928 123.232,33.408 C122.341,36.04 123.926,38.078 124.538,39.934 C123.747,40.971 122.04,40.457 121.274,39.716 C121.499,36.737 120.415,35.065 119.534,33.19 C118.869,35.597 119.569,38.52 120.404,40.152 C119.876,41.076 117.932,40.948 117.359,40.152 C117.548,37.701 116.856,34.87 115.836,32.972 C114.896,35.042 115.864,37.698 116.054,39.934 C115.528,40.66 113.802,40.786 112.79,40.368 C111.555,39.501 111.99,36.963 111.92,34.93 C112.28,34.626 112.28,32.842 111.92,32.537 C107.834,26.982 110.43,40.731 107.134,42.327 C106.715,42.53 104.639,43.085 103.653,41.456 C103.955,39.492 105.393,36.827 105.176,33.625 C103.832,35.689 102.468,37.733 102.565,41.239 C101.621,42.477 99.853,42.446 98.868,41.239 C98.961,37.635 100.884,35.859 101.478,32.755 C98.922,33.267 98.861,40.936 96.04,40.586 C92.682,40.17 97.474,34.164 97.345,32.102 C95.47,32.985 94.743,38.055 92.776,38.846 C90.885,35.454 97.387,31.85 96.475,27.316 C96.187,25.889 94.493,24.792 92.559,24.923 C90.786,25.044 89.466,26.884 87.991,27.969 C81.34,32.861 70.381,27.286 61.233,29.057 C61.942,28.144 63.149,27.794 63.626,26.446 C64.313,24.5 63.355,21.898 64.061,19.92 C64.683,18.177 65.914,18.408 66.672,16.874 C61.338,16.043 64.593,26.828 61.015,27.751 C60.609,26.49 60.907,24.525 59.928,23.836 C59.289,27.013 60.552,27.073 60.145,30.362 C59.179,38.169 50.714,37.88 42.959,39.064 C36.866,39.993 29.299,42.299 29.037,49.506 C28.982,50.995 29.218,53.129 30.56,54.074 C33.73,56.305 41.577,51.987 41.001,58.207 C40.494,56.682 38.658,55.332 36.433,56.249 C37.388,57.253 40.583,56.016 39.914,58.642 C35.639,56.934 31.825,59.906 28.167,58.425 C26.578,57.782 25.96,55.031 25.339,53.639 C24.677,52.159 22.934,50.365 22.946,48.636 C22.972,44.858 30.525,41.262 27.732,35.148 C29.529,33.249 32.671,34.161 34.693,32.972 C36.92,31.662 37.25,29.539 37.739,26.446 C38.1,25.498 38.1,23.043 37.739,22.095 C37.579,18.106 36.657,14.017 37.303,9.913 C28.766,11.241 27.337,20.821 25.121,29.492 C23.083,37.463 20.386,47.304 11.851,48.418 C11.053,48.418 10.256,48.418 9.458,48.418 C5.609,48.052 0.711,44.445 0.756,40.152 C0.779,38.001 2.694,35.117 5.76,36.018 C9.693,37.173 5.861,44.297 2.932,39.934 C2.826,44.475 7.638,47.215 12.068,46.242 C26.095,43.163 19.397,12.4 32.953,6.432 C34.593,5.71 36.721,6.286 38.826,5.78 C40.11,5.471 41.14,4.192 42.742,3.604 C44.633,2.91 47.207,2.403 50.356,2.517 C50.657,3.012 51.87,2.598 52.531,2.734 C53.401,2.734 54.271,2.734 55.142,2.734 C55.514,3.232 56.802,2.814 57.535,2.952 C60.291,2.952 63.046,2.952 65.802,2.952 C66.534,2.814 67.822,3.232 68.194,2.734 C68.847,2.734 69.5,2.734 70.152,2.734 C70.813,2.598 72.026,3.012 72.328,2.517 C76.698,2.174 80.232,0.994 84.945,0.994 C84.893,1.377 84.571,1.49 84.075,1.429 C83.919,2.02 85.101,1.273 84.945,1.864 C85.036,3.26 83.923,3.452 83.857,4.692 C83.192,4.534 83.217,5.067 82.552,4.909 C82.417,5.5 82.828,6.636 82.335,6.867 C81.831,6.645 81.884,5.867 81.899,5.127 C80.614,4.935 80.52,7.075 79.724,6.65 C79.789,5.554 80.822,5.428 80.812,4.257 C79.89,3.973 79.088,4.92 78.854,4.039 C79.331,3.791 79.743,3.478 80.594,3.604 C80.594,3.024 80.594,2.444 80.594,1.864 C78.882,2.11 76.941,2.126 75.591,2.734 C75.892,3.23 77.105,2.815 77.766,2.952 C78.082,3.071 78.891,2.698 78.854,3.169 C78.354,4.193 76.248,3.609 75.808,4.692 C77.05,4.683 78.19,4.775 79.071,5.127 C78.872,7.467 76.723,9.012 76.896,11.001 C78.558,9.762 79.625,7.928 81.464,6.867 C82.189,7.738 81.982,9.54 82.987,10.131 C83.159,9.082 82.505,6.25 83.64,6.867 C84.768,9.792 86.385,13.514 84.075,16.439 C86.599,16.113 89.005,11.625 87.121,8.173 Z" id="Shape" fill="#F0C757"></path>
                <path d="M91.471,4.039 C91.398,4.039 91.326,4.039 91.253,4.039 C90.731,4.315 91.374,5.755 90.818,5.997 C90.142,5.949 90.451,4.915 90.383,4.257 C89.157,4.053 89.161,6.216 88.208,5.562 C88.208,5.49 88.208,5.417 88.208,5.345 C88.208,5.272 88.208,5.199 88.208,5.127 C88.834,4.737 89.288,4.176 89.513,3.387 C89.205,3.406 88.897,3.423 88.861,3.169 C88.861,3.024 88.861,2.879 88.861,2.734 C89.976,2.766 89.301,1.655 89.296,0.994 C90.205,0.81 90.323,1.416 91.036,1.429 C91.036,1.646 91.036,1.864 91.036,2.082 C90.963,2.082 90.891,2.082 90.818,2.082 C90.909,2.837 89.577,3.288 90.166,3.822 C90.354,3.285 90.973,3.178 91.253,2.734 C91.504,2.991 91.5,3.503 91.471,4.039" id="Shape" fill="#F0C757"></path>
                <path d="M73.633,2.734 C74.339,2.86 74.645,2.586 75.156,2.517 C75.061,3.264 75.242,3.736 75.373,4.257 C74.184,4.372 73.471,4.965 72.98,5.78 C72.703,5.132 74.037,4.232 73.633,2.734" id="Shape" fill="#E08132"></path>
                <path d="M48.181,3.169 C48.833,3.169 49.486,3.169 50.138,3.169 C50.138,3.677 50.138,4.184 50.138,4.692 C48.917,4.921 47.841,5.295 47.31,6.215 C46.963,5.426 48.597,4.751 48.181,3.169" id="Shape" fill="#E08132"></path>
                <path d="M45.135,11.653 C45.32,11.694 45.34,11.569 45.353,11.436 C45.833,11.343 45.897,12.742 46.223,12.089 C46.434,12.095 46.391,12.355 46.44,12.523 C46.053,12.403 45.537,12.411 45.353,12.089 C45.767,11.902 45.118,11.959 45.135,11.653" id="Shape" fill="#E08132"></path>
                <path d="M48.833,9.696 C48.839,10.366 48.963,12.274 48.398,11.653 C49.03,11.488 48.201,9.861 48.833,9.696" id="Shape" fill="#E08132"></path>
                <path d="M57.317,3.604 C57.752,3.604 58.187,3.604 58.622,3.604 C58.622,4.184 58.622,4.765 58.622,5.345 C57.316,5.198 56.935,5.978 56.229,6.432 C56.06,5.821 57.361,4.814 57.317,3.604" id="Shape" fill="#E08132"></path>
                <path d="M65.584,8.173 C65.119,8.036 65.38,6.834 65.584,6.65 C66.091,6.65 66.599,6.65 67.107,6.65 C67.443,6.966 67.298,7.763 67.324,8.391 C66.837,8.297 67.236,7.318 67.107,6.867 C66.599,6.867 66.091,6.867 65.584,6.867 C65.584,7.303 65.584,7.738 65.584,8.173" id="Shape" fill="#E08132"></path>
                <path d="M63.408,7.303 C62.033,9.107 63.729,7.57 64.496,6.867 C63.935,7.394 63.282,8.743 62.538,8.391 C62.553,7.752 63.035,7.582 63.408,7.303" id="Shape" fill="#E08132"></path>
            </g>
            <g id="Group" transform="translate(51.000000, 0.000000)">
                <path d="M11.32,37.997 C10.559,37.361 12.137,37.233 12.844,37.345 C12.844,36.837 12.844,36.329 12.844,35.822 C14.023,37.372 11.883,37.467 11.32,37.997" id="Shape" fill="#E08132"></path>
                <path d="M0.878,1.233 C1.825,0.729 3.704,1.158 5.012,1.015 C4.065,1.519 2.187,1.09 0.878,1.233" id="Shape" fill="#EDD38D"></path>
            </g>
            <g id="Group" transform="translate(35.000000, 6.000000)">
                <path d="M92.801,6.98 C91.742,6.273 90.161,5.511 88.45,6.11 C88.319,5.371 89.654,5.673 90.625,5.24 C91.74,4.743 91.741,3.756 93.018,4.805 C94.061,5.661 93.815,5.866 92.801,6.98" id="Shape" fill="#E08132"></path>
                <path d="M101.806,20.413 C101.693,21.1 101.485,21.692 101.806,22.319 C102.326,23.055 104.244,23.027 105.236,22.699 C105.473,21.823 106.017,21.237 105.618,20.223 C104.516,19.558 102.7,19.563 101.806,20.413 Z M101.774,18.507 C103.885,18.026 105.81,18.928 106.157,20.032 C107.938,25.684 98.391,25.467 99.678,20.413 C99.774,20.033 100.455,18.808 101.774,18.507 Z" id="Shape" fill="#010000"></path>
                <path d="M89.755,67.022 C89.489,72.703 87.874,78.915 93.018,79.639 C96.202,80.087 102.83,77.281 103.243,81.814 C101.041,81.846 99.692,77.864 97.586,80.509 C98.68,80.212 101.188,80.142 101.067,82.249 C98.777,82.253 97.027,81.892 94.976,81.597 C92.644,81.26 91.271,82.701 89.103,82.684 C87.836,82.675 86.894,81.527 85.622,81.379 C83.749,81.162 82.599,82.689 80.836,82.902 C79.183,83.101 78.176,82.115 76.703,82.249 C77.409,78.968 83.702,81.272 85.622,79.204 C87.453,75.244 83.07,69.668 86.057,66.586 C86.929,67.407 88.551,67.656 89.755,67.022" id="Shape" fill="#EDD38D"></path>
                <path d="M65.173,68.979 C63.275,73.345 59.123,80.766 65.825,81.161 C67.921,81.285 73.084,79.286 73.004,82.902 C70.412,81.451 67.782,83.783 65.173,83.555 C63.562,83.413 62.424,82.378 61.257,82.249 C59.3,82.033 58.291,83.183 55.818,83.555 C53.925,83.839 52.038,82.643 50.163,83.337 C49.979,82.428 50.585,82.309 50.598,81.597 C51.507,80.943 52.704,81.906 53.208,81.597 C52.817,80.713 51.738,80.654 51.25,80.726 C49.945,80.922 49.626,83.197 48.205,83.12 C47.909,78.335 55.149,81.841 57.776,80.291 C61.134,78.311 58.662,71.28 60.387,67.456 C61.563,67.546 62.344,67.238 62.78,66.586 C63.299,67.663 63.728,68.828 65.173,68.979" id="Shape" fill="#EDD38D"></path>
                <path d="M37.98,83.99 C37.546,82.297 35.479,81.157 33.194,82.032 C34.074,83.037 37.196,81.801 36.893,83.99 C35.338,84.141 33.623,83.904 31.672,83.99 C28.673,84.121 25.068,84.771 22.97,83.772 C21.119,82.891 20.196,80.194 19.271,78.986 C18.041,77.377 14.607,75.863 14.268,74.2 C13.362,69.764 20.963,67.602 21.012,63.54 C23.709,62.032 25.72,59.837 26.015,55.927 C28.578,55.362 31.658,55.458 34.5,55.709 C36.118,66.473 25.182,66.311 22.97,72.46 C21.728,75.913 26.138,79.638 28.191,80.291 C31.718,81.413 39.464,77.793 37.98,83.99" id="Shape" fill="#E08132"></path>
                <path d="M49.51,25.471 C41.703,27.366 28.099,30.485 25.363,21.991 C29.405,21.012 34.338,20.573 39.286,21.12 C36.973,20.025 35.169,19.307 32.542,19.38 C29.441,19.465 27.342,21.834 23.622,21.12 C21.571,20.727 19.43,18.646 19.054,16.769 C23.532,15.959 28.168,14.854 32.759,16.334 C31.837,15.416 30.43,14.406 29.061,14.159 C25.609,13.535 21.823,16.079 18.619,16.116 C15.645,16.151 13.405,14.542 12.31,11.766 C16.988,11.525 21.023,10.444 26.015,11.113 C20.603,6.055 8.897,15.802 6.437,6.98 C10.838,5.389 15.576,5.783 20.794,6.327 C15.199,1.114 3.743,10.147 0.346,2.847 C6.895,2.554 13.165,-0.891 19.489,1.324 C25.256,3.343 30.13,8.675 35.152,12.854 C37.641,14.925 40.117,17.035 42.549,18.945 C45.115,20.96 48.731,22.298 49.51,25.471" id="Shape" fill="#EDD38D"></path>
                <path d="M99.678,20.413 C98.391,25.467 107.938,25.684 106.157,20.032 C105.81,18.928 103.885,18.026 101.774,18.507 C100.455,18.808 99.774,20.033 99.678,20.413 Z M102.346,16.411 C105.717,16.26 107.597,17.646 107.873,20.413 C108.579,27.492 95.124,29.255 96.819,20.413 C97.242,18.208 99.208,16.551 102.346,16.411 Z" id="Shape" fill="#EDD38D"></path>
                <path d="M22.535,27.864 C24.856,28.008 27.754,27.576 29.714,28.082 C27.392,27.937 24.494,28.37 22.535,27.864" id="Shape" fill="#EDD38D"></path>
                <path d="M92.148,57.667 C91.997,58.466 92.532,61.087 91.713,60.495 C92.354,60.049 91.507,58.113 92.148,57.667" id="Shape" fill="#EDD38D"></path>
                <path d="M92.801,78.551 C93.743,78.551 94.686,78.551 95.629,78.551 C95.183,78.912 93.247,78.912 92.801,78.551" id="Shape" fill="#EDD38D"></path>
                <path d="M31.019,85.077 C31.677,84.575 33.263,85 34.282,84.86 C33.624,85.362 32.038,84.937 31.019,85.077" id="Shape" fill="#EDD38D"></path>
                <path d="M96.819,20.413 C95.124,29.255 108.579,27.492 107.873,20.413 C107.597,17.646 105.717,16.26 102.346,16.411 C99.208,16.551 97.242,18.208 96.819,20.413 Z M101.774,15.649 C106.655,15.17 110.054,18.677 108.254,23.272 C106.977,26.533 100.876,29.305 97.391,25.559 C93.975,21.886 96.975,16.119 101.774,15.649 Z" id="Shape" fill="#010000"></path>
            </g>
        </g>
    </g>
</svg>