<?xml version="1.0" encoding="UTF-8"?>
<svg width="84px" height="24px" viewBox="0 0 84 24" version="1.1" xmlns="http://www.w3.org/2000/svg" xmlns:xlink="http://www.w3.org/1999/xlink">
    <!-- Generator: Sketch 50.2 (55047) - http://www.bohemiancoding.com/sketch -->
    <title>Inventist-logo</title>
    <desc>Created with Sketch.</desc>
    <defs></defs>
    <g id="MVP" stroke="none" stroke-width="1" fill="none" fill-rule="evenodd" opacity="0.75">
        <g id="Inventist-iPad---Blue" transform="translate(-224.000000, -20.000000)" fill="#000000">
            <g id="Collections">
                <g id="Header-Logo">
                    <g id="Inventist-logo" transform="translate(222.000000, 20.000000)">
                        <g id="Inventist">
                            <path d="M31.2988506,6.13307618 C31.2988506,7.03568436 31.0842933,7.76373879 30.6551724,8.31726133 C30.2260515,8.87078387 29.6341034,9.14754098 28.8793103,9.14754098 C28.4961667,9.14754098 28.1599631,9.08293218 27.8706897,8.95371263 C27.5814162,8.82449309 27.3352501,8.63066667 27.1321839,8.37222758 L27.1321839,11.4329797 L26,11.4329797 L26,2.7656702 L26.8678161,2.7656702 L27.045977,3.57569913 C27.2490432,3.27482974 27.5019142,3.04532384 27.8045977,2.88717454 C28.1072812,2.72902525 28.4597681,2.64995178 28.862069,2.64995178 C29.6321878,2.64995178 30.2308408,2.95756684 30.658046,3.57280617 C31.0852512,4.18804551 31.2988506,5.00095927 31.2988506,6.01157184 L31.2988506,6.13307618 Z M30.1666667,6.01157184 C30.1666667,5.30182866 30.0277792,4.7184208 29.75,4.26133076 C29.4722208,3.80424072 29.0632211,3.57569913 28.5229885,3.57569913 C28.1973164,3.57569913 27.9195414,3.64995104 27.6896552,3.79845709 C27.459769,3.94696313 27.2739471,4.15043265 27.1321839,4.40887175 L27.1321839,7.43490839 C27.2739471,7.69334748 27.459769,7.89488838 27.6896552,8.03953713 C27.9195414,8.18418587 28.2011478,8.25650916 28.5344828,8.25650916 C29.0708839,8.25650916 29.4770101,8.05882551 29.7528736,7.66345227 C30.028737,7.26807903 30.1666667,6.75795877 30.1666667,6.13307618 L30.1666667,6.01157184 Z M32.4252874,5.83799421 C32.4252874,4.91224224 32.674327,4.14947262 33.1724138,3.54966249 C33.6705006,2.94985235 34.346739,2.64995178 35.2011494,2.64995178 C36.0632227,2.64995178 36.7442504,2.94888804 37.2442529,3.54676953 C37.7442554,4.14465101 37.9942529,4.90838494 37.9942529,5.83799421 L37.9942529,5.96528447 C37.9942529,6.89875105 37.7452132,7.66248498 37.2471264,8.25650916 C36.7490397,8.85053335 36.0708855,9.14754098 35.2126437,9.14754098 C34.3544018,9.14754098 33.6752899,8.84956904 33.1752874,8.2536162 C32.6752849,7.65766337 32.4252874,6.89489375 32.4252874,5.96528447 L32.4252874,5.83799421 Z M33.5574713,5.96528447 C33.5574713,6.62874006 33.6963588,7.17646843 33.9741379,7.60848602 C34.2519171,8.04050361 34.6647482,8.25650916 35.2126437,8.25650916 C35.7528763,8.25650916 36.1628339,8.04050361 36.4425287,7.60848602 C36.7222236,7.17646843 36.862069,6.62874006 36.862069,5.96528447 L36.862069,5.83799421 C36.862069,5.18225323 36.7212658,4.63645348 36.4396552,4.20057859 C36.1580446,3.7647037 35.7452134,3.54676953 35.2011494,3.54676953 C34.6609168,3.54676953 34.2519171,3.7647037 33.9741379,4.20057859 C33.6963588,4.63645348 33.5574713,5.18225323 33.5574713,5.83799421 L33.5574713,5.96528447 Z M40.9712644,6.7463838 L41.1034483,7.50433944 L41.137931,7.50433944 L41.2988506,6.7463838 L42.5402299,2.7656702 L43.4482759,2.7656702 L44.6954023,6.7463838 L44.8735632,7.59112825 L44.908046,7.59112825 L45.0747126,6.7463838 L46.0517241,2.7656702 L47.1781609,2.7656702 L45.3735632,9.02603664 L44.4597701,9.02603664 L43.2586207,5.21311475 L43,4.1485053 L42.9655172,4.15429122 L42.7183908,5.21311475 L41.5344828,9.02603664 L40.6206897,9.02603664 L38.816092,2.7656702 L39.9425287,2.7656702 L40.9712644,6.7463838 Z M50.8678161,9.14754098 C50.0019114,9.14754098 49.3132209,8.85728352 48.8017241,8.27675988 C48.2902273,7.69623625 48.0344828,6.94310974 48.0344828,6.01735776 L48.0344828,5.76277724 C48.0344828,4.87174096 48.2978901,4.13018618 48.8247126,3.53809065 C49.3515352,2.94599511 49.9750922,2.64995178 50.6954023,2.64995178 C51.534487,2.64995178 52.1685802,2.90452976 52.5977011,3.41369335 C53.0268221,3.92285693 53.2413793,4.60173153 53.2413793,5.45033751 L53.2413793,6.16200579 L49.2068966,6.16200579 L49.1896552,6.19093539 C49.2011495,6.79267418 49.352489,7.28736547 49.6436782,7.67502411 C49.9348674,8.06268275 50.3429093,8.25650916 50.8678161,8.25650916 C51.2509598,8.25650916 51.5871633,8.20154346 51.8764368,8.09161041 C52.1657103,7.98167737 52.4157078,7.83028062 52.6264368,7.63741562 L53.0689655,8.3780135 C52.8467422,8.59787959 52.5536417,8.78109859 52.1896552,8.92767599 C51.8256687,9.07425338 51.3850601,9.14754098 50.8678161,9.14754098 Z M50.6954023,3.54676953 C50.3160901,3.54676953 49.9923385,3.70780938 49.7241379,4.02989392 C49.4559374,4.35197847 49.291188,4.75602457 49.2298851,5.24204436 L49.2413793,5.27097396 L52.1091954,5.27097396 L52.1091954,5.12054002 C52.1091954,4.67309323 51.9904226,4.29894075 51.7528736,3.99807136 C51.5153245,3.69720197 51.1628376,3.54676953 50.6954023,3.54676953 Z M57.454023,3.77242044 L56.8735632,3.73770492 C56.5747111,3.73770492 56.322798,3.8090639 56.1178161,3.95178399 C55.9128342,4.09450409 55.7547898,4.29508068 55.6436782,4.55351977 L55.6436782,9.02603664 L54.5114943,9.02603664 L54.5114943,2.7656702 L55.5229885,2.7656702 L55.6321839,3.67984571 C55.80843,3.35583252 56.0258608,3.10318316 56.2844828,2.92189007 C56.5431047,2.74059697 56.8409945,2.64995178 57.1781609,2.64995178 C57.2624525,2.64995178 57.3429115,2.65670196 57.4195402,2.67020251 C57.496169,2.68370306 57.5593867,2.69816771 57.6091954,2.71359691 L57.454023,3.77242044 Z M61.1264368,9.14754098 C60.2605321,9.14754098 59.5718416,8.85728352 59.0603448,8.27675988 C58.548848,7.69623625 58.2931034,6.94310974 58.2931034,6.01735776 L58.2931034,5.76277724 C58.2931034,4.87174096 58.5565108,4.13018618 59.0833333,3.53809065 C59.6101559,2.94599511 60.2337129,2.64995178 60.954023,2.64995178 C61.7931076,2.64995178 62.4272009,2.90452976 62.8563218,3.41369335 C63.2854428,3.92285693 63.5,4.60173153 63.5,5.45033751 L63.5,6.16200579 L59.4655172,6.16200579 L59.4482759,6.19093539 C59.4597702,6.79267418 59.6111097,7.28736547 59.9022989,7.67502411 C60.193488,8.06268275 60.6015299,8.25650916 61.1264368,8.25650916 C61.5095805,8.25650916 61.845784,8.20154346 62.1350575,8.09161041 C62.4243309,7.98167737 62.6743284,7.83028062 62.8850575,7.63741562 L63.3275862,8.3780135 C63.1053629,8.59787959 62.8122624,8.78109859 62.4482759,8.92767599 C62.0842894,9.07425338 61.6436807,9.14754098 61.1264368,9.14754098 Z M60.954023,3.54676953 C60.5747107,3.54676953 60.2509592,3.70780938 59.9827586,4.02989392 C59.714558,4.35197847 59.5498087,4.75602457 59.4885057,5.24204436 L59.5,5.27097396 L62.3678161,5.27097396 L62.3678161,5.12054002 C62.3678161,4.67309323 62.2490433,4.29894075 62.0114943,3.99807136 C61.7739452,3.69720197 61.4214583,3.54676953 60.954023,3.54676953 Z M64.5114943,6.01157184 C64.5114943,5.00481657 64.7250936,4.19286712 65.1522989,3.57569913 C65.5795041,2.95853115 66.1781571,2.64995178 66.9482759,2.64995178 C67.3122624,2.64995178 67.6350561,2.71745352 67.9166667,2.85245902 C68.1982773,2.98746451 68.4386963,3.18418386 68.637931,3.44262295 L68.637931,0 L69.7701149,0 L69.7701149,9.02603664 L68.8448276,9.02603664 L68.7126437,8.25650916 C68.5095775,8.54966395 68.2605379,8.77145537 67.9655172,8.92189007 C67.6704966,9.07232476 67.3275882,9.14754098 66.9367816,9.14754098 C66.1781571,9.14754098 65.5842933,8.87078387 65.1551724,8.31726133 C64.7260515,7.76373879 64.5114943,7.03568436 64.5114943,6.13307618 L64.5114943,6.01157184 Z M65.6436782,6.13307618 C65.6436782,6.76567337 65.7720294,7.27193638 66.0287356,7.65188042 C66.2854419,8.03182446 66.6839053,8.22179364 67.2241379,8.22179364 C67.5613044,8.22179364 67.8448264,8.14464879 68.0747126,7.9903568 C68.3045989,7.8360648 68.4923364,7.62005925 68.637931,7.34233365 L68.637931,4.42044359 C68.4923364,4.16200449 68.303641,3.95660635 68.0718391,3.80424301 C67.8400372,3.65187966 67.5613043,3.57569913 67.2356322,3.57569913 C66.6915682,3.57569913 66.2902312,3.80134779 66.0316092,4.25265188 C65.7729872,4.70395597 65.6436782,5.29025676 65.6436782,6.01157184 L65.6436782,6.13307618 Z M79.6954023,6.13307618 C79.6954023,7.03568436 79.4798872,7.76373879 79.0488506,8.31726133 C78.6178139,8.87078387 78.024908,9.14754098 77.2701149,9.14754098 C76.8601512,9.14754098 76.5038329,9.06750321 76.2011494,8.90742527 C75.8984659,8.74734732 75.6475106,8.51109124 75.4482759,8.19864995 L75.3103448,9.02603664 L74.3850575,9.02603664 L74.3850575,0 L75.5172414,0 L75.5172414,3.50626808 C75.7126447,3.22854249 75.9549794,3.01639418 76.2442529,2.86981678 C76.5335264,2.72323938 76.8716456,2.64995178 77.2586207,2.64995178 C78.024908,2.64995178 78.6226032,2.95853115 79.0517241,3.57569913 C79.4808451,4.19286712 79.6954023,5.00481657 79.6954023,6.01157184 L79.6954023,6.13307618 Z M78.5632184,6.01157184 C78.5632184,5.29411406 78.4319936,4.70877758 78.1695402,4.25554484 C77.9070868,3.8023121 77.5076655,3.57569913 76.9712644,3.57569913 C76.6226036,3.57569913 76.3285453,3.66152277 76.0890805,3.83317261 C75.8496157,4.00482246 75.6590045,4.23529267 75.5172414,4.52459016 L75.5172414,7.23818708 C75.662836,7.54677107 75.8534471,7.7878487 76.0890805,7.96142719 C76.3247138,8.13500569 76.6226036,8.22179364 76.9827586,8.22179364 C77.5153283,8.22179364 77.9118761,8.03086015 78.1724138,7.64898746 C78.4329515,7.26711477 78.5632184,6.76181607 78.5632184,6.13307618 L78.5632184,6.01157184 Z M82.9770115,6.70588235 L83.1781609,7.4927676 L83.2126437,7.4927676 L84.7413793,2.7656702 L86,2.7656702 L83.3850575,9.98649952 C83.2279686,10.4069452 83.002875,10.7733832 82.7097701,11.0858245 C82.4166652,11.3982658 82.0210753,11.5544841 81.5229885,11.5544841 C81.431034,11.5544841 81.314177,11.5438767 81.1724138,11.5226615 C81.0306506,11.5014464 80.9214563,11.4811959 80.8448276,11.4619094 L80.9597701,10.5650916 C80.9367815,10.5612343 81.0047885,10.5650916 81.1637931,10.5766635 C81.3227977,10.5882354 81.4233714,10.5940212 81.4655172,10.5940212 C81.7068978,10.5940212 81.9042138,10.4860184 82.0574713,10.2700096 C82.2107287,10.0540008 82.3390799,9.81485184 82.4425287,9.55255545 L82.7126437,8.89874638 L80.4022989,2.7656702 L81.6666667,2.7656702 L82.9770115,6.70588235 Z M27.6666667,23.8379942 L26.1494253,23.8379942 L26.1494253,12.6055931 L27.6666667,12.6055931 L27.6666667,23.8379942 Z M31.5747126,15.490839 L31.6819923,16.7328833 C31.9578558,16.2905796 32.303957,15.9472851 32.7203065,15.7029894 C33.136656,15.4586937 33.6104699,15.3365477 34.1417625,15.3365477 C35.0357644,15.3365477 35.7279669,15.6001259 36.2183908,16.1272903 C36.7088147,16.6544546 36.954023,17.4683327 36.954023,18.5689489 L36.954023,23.8379942 L35.4444444,23.8379942 L35.4444444,18.5998071 C35.4444444,17.8643486 35.3001292,17.3423352 35.0114943,17.0337512 C34.7228593,16.7251672 34.2822507,16.5708775 33.6896552,16.5708775 C33.2554257,16.5708775 32.8710106,16.6763088 32.5363985,16.8871745 C32.2017863,17.0980403 31.9348669,17.3860477 31.7356322,17.7512054 L31.7356322,23.8379942 L30.2260536,23.8379942 L30.2260536,15.490839 L31.5747126,15.490839 Z M41.9118774,21.3770492 L42.0421456,21.9633558 L42.0881226,21.9633558 L42.2337165,21.3770492 L44.1417625,15.490839 L45.6819923,15.490839 L42.6321839,23.8379942 L41.4904215,23.8379942 L38.4022989,15.490839 L39.9501916,15.490839 L41.9118774,21.3770492 Z M50.4789272,24 C49.3243876,24 48.4061337,23.61299 47.7241379,22.8389585 C47.0421422,22.064927 46.7011494,21.0607583 46.7011494,19.8264224 L46.7011494,19.4869817 C46.7011494,18.2989333 47.0523592,17.3101936 47.7547893,16.5207329 C48.4572193,15.7312722 49.2886287,15.3365477 50.2490421,15.3365477 C51.3678217,15.3365477 52.2132794,15.675985 52.7854406,16.3548698 C53.3576018,17.0337546 53.6436782,17.9389207 53.6436782,19.0703954 L53.6436782,20.0192864 L48.2643678,20.0192864 L48.2413793,20.0578592 C48.2567051,20.8601776 48.458491,21.519766 48.8467433,22.0366442 C49.2349956,22.5535224 49.7790514,22.8119576 50.4789272,22.8119576 C50.9897854,22.8119576 51.4380568,22.73867 51.8237548,22.5920926 C52.2094528,22.4455152 52.5427828,22.2436528 52.8237548,21.9864995 L53.4137931,22.9739634 C53.1174953,23.2671181 52.7266946,23.5114101 52.2413793,23.7068467 C51.756064,23.9022832 51.1685858,24 50.4789272,24 Z M50.2490421,16.5323047 C49.7432925,16.5323047 49.3116238,16.7470245 48.954023,17.1764706 C48.5964222,17.6059166 48.3767565,18.1446448 48.2950192,18.7926712 L48.3103448,18.831244 L52.1340996,18.831244 L52.1340996,18.6306654 C52.1340996,18.0340697 51.9757359,17.5351997 51.6590038,17.1340405 C51.3422717,16.7328813 50.8722892,16.5323047 50.2490421,16.5323047 Z M56.6858238,15.490839 L56.7931034,16.7328833 C57.0689669,16.2905796 57.4150682,15.9472851 57.8314176,15.7029894 C58.2477671,15.4586937 58.721581,15.3365477 59.2528736,15.3365477 C60.1468755,15.3365477 60.839078,15.6001259 61.3295019,16.1272903 C61.8199258,16.6544546 62.0651341,17.4683327 62.0651341,18.5689489 L62.0651341,23.8379942 L60.5555556,23.8379942 L60.5555556,18.5998071 C60.5555556,17.8643486 60.4112403,17.3423352 60.1226054,17.0337512 C59.8339705,16.7251672 59.3933618,16.5708775 58.8007663,16.5708775 C58.3665368,16.5708775 57.9821217,16.6763088 57.6475096,16.8871745 C57.3128974,17.0980403 57.045978,17.3860477 56.8467433,17.7512054 L56.8467433,23.8379942 L55.3371648,23.8379942 L55.3371648,15.490839 L56.6858238,15.490839 Z M66.2490421,13.4773385 L66.2490421,15.490839 L67.8199234,15.490839 L67.8199234,16.6171649 L66.2490421,16.6171649 L66.2490421,21.6856316 C66.2490421,22.0765047 66.3295011,22.3516546 66.4904215,22.5110897 C66.6513418,22.6705247 66.8646219,22.7502411 67.1302682,22.7502411 C67.2171141,22.7502411 67.3128986,22.7399551 67.4176245,22.7193828 C67.5223505,22.6988106 67.6155807,22.6730956 67.697318,22.6422372 L67.8965517,23.683703 C67.7841629,23.7762782 67.6194136,23.8521373 67.4022989,23.9112825 C67.1851841,23.9704278 66.9667955,24 66.7471264,24 C66.1340966,24 65.6462343,23.8135666 65.2835249,23.4406943 C64.9208156,23.067822 64.7394636,22.4828069 64.7394636,21.6856316 L64.7394636,16.6171649 L63.4214559,16.6171649 L63.4214559,15.490839 L64.7394636,15.490839 L64.7394636,13.4773385 L66.2490421,13.4773385 Z M71.3141762,23.8379942 L69.8045977,23.8379942 L69.8045977,15.490839 L71.3141762,15.490839 L71.3141762,23.8379942 Z M71.3141762,13.3539055 L69.8045977,13.3539055 L69.8045977,11.8032787 L71.3141762,11.8032787 L71.3141762,13.3539055 Z M78.4559387,21.6239151 C78.4559387,21.2896158 78.3295032,21.0144659 78.0766284,20.7984571 C77.8237535,20.5824483 77.3448311,20.3947292 76.6398467,20.2352941 C75.633456,20.0141423 74.87612,19.7145631 74.3678161,19.3365477 C73.8595121,18.9585323 73.605364,18.4429477 73.605364,17.7897782 C73.605364,17.1108934 73.8914403,16.5323071 74.4636015,16.0540019 C75.0357628,15.5756967 75.7816046,15.3365477 76.7011494,15.3365477 C77.6666715,15.3365477 78.4342245,15.5859827 79.0038314,16.0848602 C79.5734384,16.5837376 79.8454663,17.1906104 79.8199234,17.9054966 L79.8045977,17.951784 L78.3639847,17.951784 C78.3639847,17.5866263 78.2120066,17.2587607 77.908046,16.9681774 C77.6040853,16.6775942 77.2017905,16.5323047 76.7011494,16.5323047 C76.1647483,16.5323047 75.7662848,16.6505935 75.5057471,16.8871745 C75.2452094,17.1237556 75.1149425,17.4091915 75.1149425,17.7434908 C75.1149425,18.0726471 75.2298839,18.3323681 75.4597701,18.5226615 C75.6896563,18.712955 76.1570846,18.8826736 76.862069,19.0318226 C77.9093284,19.2581175 78.6883755,19.5654111 79.1992337,19.9537126 C79.710092,20.3420142 79.9655172,20.8627418 79.9655172,21.5159113 C79.9655172,22.2565129 79.6679468,22.8556711 79.0727969,23.3134041 C78.4776471,23.771137 77.6998771,24 76.7394636,24 C75.681987,24 74.8493006,23.7299931 74.2413793,23.1899711 C73.633458,22.6499491 73.3448274,22.0199329 73.3754789,21.2999036 L73.3908046,21.2536162 L74.8314176,21.2536162 C74.8569605,21.7936382 75.0561923,22.1883626 75.4291188,22.4378014 C75.8020453,22.6872401 76.2388225,22.8119576 76.7394636,22.8119576 C77.2758648,22.8119576 77.6960393,22.702669 78,22.4840887 C78.3039607,22.2655084 78.4559387,21.9787867 78.4559387,21.6239151 Z M83.835249,13.4773385 L83.835249,15.490839 L85.4061303,15.490839 L85.4061303,16.6171649 L83.835249,16.6171649 L83.835249,21.6856316 C83.835249,22.0765047 83.915708,22.3516546 84.0766284,22.5110897 C84.2375487,22.6705247 84.4508288,22.7502411 84.7164751,22.7502411 C84.803321,22.7502411 84.8991055,22.7399551 85.0038314,22.7193828 C85.1085574,22.6988106 85.2017876,22.6730956 85.2835249,22.6422372 L85.4827586,23.683703 C85.3703698,23.7762782 85.2056205,23.8521373 84.9885057,23.9112825 C84.771391,23.9704278 84.5530024,24 84.3333333,24 C83.7203034,24 83.2324411,23.8135666 82.8697318,23.4406943 C82.5070225,23.067822 82.3256705,22.4828069 82.3256705,21.6856316 L82.3256705,16.6171649 L81.0076628,16.6171649 L81.0076628,15.490839 L82.3256705,15.490839 L82.3256705,13.4773385 L83.835249,13.4773385 Z" id="powered-by-Inventist"></path>
                            <g id="Inventist-Icon" fill-rule="nonzero">
                                <path d="M17.0361418,1.83200884 L19.7514556,1.83200884 C20.7721295,1.83200884 21.6,2.66932754 21.6,3.70164998 L21.6,22.1295036 C21.6,23.1626813 20.7721295,24 19.7514556,24 L4.24769874,24 C3.22702488,24 2.4,23.161826 2.4,22.1295036 L2.4,3.70164998 C2.4,2.66932754 3.22702488,1.83200884 4.24769874,1.83200884 L6.96554944,1.83200884 L6.96554944,1.23245786 C6.96554944,0.551655322 7.51097996,7.12624404e-15 8.18410042,7.12624404e-15 L9.82462013,7.12624404e-15 L13.8176789,7.12624404e-15 L15.8175908,7.12624404e-15 C16.4898657,7.12624404e-15 17.0361418,0.551655322 17.0361418,1.23245786 L17.0361418,1.83200884 Z M18.6149306,22.1671359 C19.2423871,22.1671359 19.7514556,21.6522576 19.7514556,21.0176401 L19.7514556,4.85114572 C19.7514556,4.21652828 19.2415415,3.70164998 18.6149306,3.70164998 L17.0344506,3.70164998 C17.0344506,4.20797548 16.63024,4.6176544 16.1296278,4.6176544 L7.86868091,4.6176544 C7.36891434,4.6176544 6.96385818,4.2071202 6.96385818,3.70164998 L5.38422374,3.70164998 C4.75676723,3.70164998 4.24769874,4.215673 4.24769874,4.85114572 L4.24769874,21.0176401 C4.24769874,21.6522576 4.75676723,22.1671359 5.38422374,22.1671359 L18.6149306,22.1671359 Z M12.0213756,10.3334878 C11.0250495,10.3334878 10.2173677,9.51658812 10.2173677,8.50889134 C10.2173677,7.50119457 11.0250495,6.68429493 12.0213756,6.68429493 C13.0177017,6.68429493 13.8253835,7.50119457 13.8253835,8.50889134 C13.8253835,9.51658812 13.0177017,10.3334878 12.0213756,10.3334878 Z M13.2377732,18.9638035 C13.2377732,19.5457819 12.68355,20.0166288 12.0202627,20.0166288 C11.3569755,20.0166288 10.804978,19.5467568 10.804978,18.9657531 L10.804978,12.6507505 C10.804978,12.0687721 11.3569755,11.5979252 12.0202627,11.5979252 C12.68355,11.5979252 13.2377732,12.0697469 13.2377732,12.6507505 L13.2377732,18.9638035 Z" id="Shape"></path>
                            </g>
                        </g>
                    </g>
                </g>
            </g>
        </g>
    </g>
</svg>