<?xml version="1.0" encoding="UTF-8"?>
<svg width="100px" height="100px" viewBox="0 0 100 100" version="1.1" xmlns="http://www.w3.org/2000/svg" xmlns:xlink="http://www.w3.org/1999/xlink">
    <!-- Generator: Sketch 49 (51002) - http://www.bohemiancoding.com/sketch -->
    <title>Inventist Icon</title>
    <desc>Created with Sketch.</desc>
    <defs></defs>
    <g id="Inventist-Icon" stroke="none" stroke-width="1" fill="none" fill-rule="evenodd">
        <path d="M70.9839242,7.63337016 L82.2977318,7.63337016 C86.5505395,7.63337016 90,11.1221981 90,15.4235416 L90,92.2062649 C90,96.5111721 86.5505395,100 82.2977318,100 L17.6987448,100 C13.445937,100 10,96.5076084 10,92.2062649 L10,15.4235416 C10,11.1221981 13.445937,7.63337016 17.6987448,7.63337016 L29.0231227,7.63337016 L29.0231227,5.13524108 C29.0231227,2.29856384 31.2957498,8.67361738e-17 34.1004184,8.67361738e-17 L40.9359172,8.67361738e-17 L57.5736622,8.67361738e-17 L65.9066285,8.67361738e-17 C68.7077736,8.67361738e-17 70.9839242,2.29856384 70.9839242,5.13524108 L70.9839242,7.63337016 Z M77.562211,92.3630662 C80.1766131,92.3630662 82.2977318,90.2177399 82.2977318,87.5735006 L82.2977318,20.2131072 C82.2977318,17.5688678 80.1730896,15.4235416 77.562211,15.4235416 L70.9768773,15.4235416 C70.9768773,17.5332312 69.2926668,19.2402266 67.2067826,19.2402266 L32.7861704,19.2402266 C30.7038097,19.2402266 29.0160758,17.5296675 29.0160758,15.4235416 L22.4342656,15.4235416 C19.8198635,15.4235416 17.6987448,17.5653042 17.6987448,20.2131072 L17.6987448,87.5735006 C17.6987448,90.2177399 19.8198635,92.3630662 22.4342656,92.3630662 L77.562211,92.3630662 Z M50.0890651,43.056199 C45.9377064,43.056199 42.5723654,39.6524505 42.5723654,35.4537139 C42.5723654,31.2549774 45.9377064,27.8512289 50.0890651,27.8512289 C54.2404237,27.8512289 57.6057648,31.2549774 57.6057648,35.4537139 C57.6057648,39.6524505 54.2404237,43.056199 50.0890651,43.056199 Z M55.1573884,79.0158477 C55.1573884,81.440758 52.8481249,83.4026201 50.084428,83.4026201 C47.3207311,83.4026201 45.0207417,81.4448199 45.0207417,79.0239714 L45.0207417,52.7114606 C45.0207417,50.2865503 47.3207311,48.3246882 50.084428,48.3246882 C52.8481249,48.3246882 55.1573884,50.2906121 55.1573884,52.7114606 L55.1573884,79.0158477 Z" id="Shape" fill="#000000" fill-rule="nonzero"></path>
    </g>
</svg>