<?xml version="1.0" encoding="UTF-8"?>
<svg width="45px" height="30px" viewBox="0 0 45 30" version="1.1" xmlns="http://www.w3.org/2000/svg" xmlns:xlink="http://www.w3.org/1999/xlink">
    <!-- Generator: Sketch 49 (51002) - http://www.bohemiancoding.com/sketch -->
    <title>people</title>
    <desc>Created with Sketch.</desc>
    <defs></defs>
    <g id="people" stroke="none" stroke-width="1" fill="none" fill-rule="evenodd">
        <g transform="translate(9.000000, 1.000000)" fill="#000000" fill-rule="nonzero" id="Shape">
            <path d="M13.99972,0 C21.7314115,0 27.99972,6.26784179 27.99972,13.9996267 C27.99972,21.7314115 21.7313182,28 13.9996267,28 C6.26793512,28 0,21.7311315 0,13.9996267 C0,6.26812179 6.26793512,0 13.99972,0 Z M13.999874,1.40000933 C7.04115163,1.40000933 1.399916,7.04141297 1.399916,13.9998833 C1.399916,20.9583537 7.04115163,26.6004293 13.99979,26.6004293 C20.9584284,26.6004293 26.600084,20.9586057 26.600084,13.9998833 C26.600084,7.04116096 20.9585124,1.40000933 13.999874,1.40000933 Z M3.80158534,19.2730885 C3.80158534,14.899646 7.64246428,14.9005793 8.49478997,13.7570517 L8.59232395,13.2355949 C7.3948493,12.6284575 6.54952366,11.1656344 6.54952366,9.45426303 C6.54952366,7.19987467 8.01598677,5.37202248 9.82451883,5.37202248 C11.2486083,5.37202248 12.457003,6.50733672 12.9079927,8.0897206 C11.0963806,8.66540444 9.75629171,10.6297109 9.75629171,12.9647398 C9.75629171,14.5723238 10.3900293,16.0503603 11.4304229,16.9893933 C11.2633551,17.0750738 11.0775272,17.1624344 10.9177395,17.2372882 C10.0787605,17.6308775 8.91581944,18.1780012 8.07684051,19.2730885 L3.80158534,19.2730885 Z M14.0422803,22.7832852 L14.0422803,22.7830986 L13.9567864,22.7830986 L7.97678651,22.7830986 C7.97678651,18.4098427 11.8176655,18.4110561 12.6699911,17.2675285 L12.7675251,16.7460716 C11.5700505,16.1389343 10.7247248,14.6761112 10.7247248,12.9647398 C10.7247248,10.7103514 12.1911879,8.88249922 13.99972,8.88249922 C15.8082521,8.88249922 17.2747152,10.7103514 17.2747152,12.9647398 C17.2747152,14.6613644 16.4444163,16.1155074 15.2629018,16.7317915 L15.3739692,17.3246488 C16.3090821,18.4127361 20.0221868,18.4836699 20.0221868,22.7832852 L14.0422803,22.7832852 Z M19.9222261,19.2732752 L19.9222261,19.2730885 C19.0829672,18.1781879 17.9200261,17.6311575 17.0810472,17.2375683 C16.9159394,17.1601011 16.7329116,17.0741405 16.5692971,16.9901399 C17.6087574,16.0498937 18.2432416,14.5686838 18.2432416,12.9647398 C18.2432416,10.6299909 16.9036194,8.66605777 15.0924739,8.09018727 C15.5431836,6.50752338 16.7515783,5.37220915 18.1759478,5.37220915 C19.9846666,5.37220915 21.450943,7.20006133 21.450943,9.4544497 C21.450943,11.1510743 20.6206441,12.6050307 19.4391296,13.2215015 L19.550197,13.8143588 C20.4853099,14.9022593 24.1984147,14.9730998 24.1984147,19.2732752 L19.9222261,19.2732752 Z"></path>
        </g>
    </g>
</svg>